SplineFontDB: 3.2
FontName: drs
FullName: zorigt
FamilyName: Mongolian-zorigt
Weight: Regular
Copyright: Copyright (c) 2020, zorigt
UComments: "2020-7-28: Created with FontForge (http://fontforge.org)"
Version: 001.000
ItalicAngle: 0
UnderlinePosition: -205
UnderlineWidth: 102
Ascent: 1638
Descent: 410
InvalidEm: 0
LayerCount: 2
Layer: 0 1 "Back" 1
Layer: 1 1 "Fore" 0
XUID: [1021 544 -1892048230 1922997]
FSType: 0
OS2Version: 3
OS2_WeightWidthSlopeOnly: 0
OS2_UseTypoMetrics: 0
CreationTime: 1595937272
ModificationTime: 1600236641
PfmFamily: 17
TTFWeight: 400
TTFWidth: 5
LineGap: 205
VLineGap: 0
OS2TypoAscent: 1432
OS2TypoAOffset: 0
OS2TypoDescent: -428
OS2TypoDOffset: 0
OS2TypoLinegap: 205
OS2WinAscent: 1855
OS2WinAOffset: 0
OS2WinDescent: 512
OS2WinDOffset: 0
HheadAscent: 1432
HheadAOffset: 0
HheadDescent: -428
HheadDOffset: 0
OS2SubXSize: 1434
OS2SubYSize: 1331
OS2SubXOff: 0
OS2SubYOff: 287
OS2SupXSize: 1434
OS2SupYSize: 1331
OS2SupXOff: 0
OS2SupYOff: 977
OS2StrikeYSize: 102
OS2StrikeYPos: 498
OS2CapHeight: 1356
OS2XHeight: 924
OS2Vendor: '    '
MarkAttachClasses: 1
DEI: 91125
LangName: 1033
Encoding: UnicodeBmp
UnicodeInterp: none
NameList: AGL For New Fonts
DisplaySize: -48
AntiAlias: 1
FitToEm: 0
WinInfo: 57304 29 11
BeginPrivate: 0
EndPrivate
TeXData: 1 0 0 290304 145152 96768 468992 -1048576 96768 783286 444596 497025 792723 393216 433062 380633 303038 157286 324010 404750 52429 2506097 1059062 262144
BeginChars: 65536 167

StartChar: uniE011
Encoding: 57361 57361 0
Width: 917
Flags: W
LayerCount: 2
Fore
SplineSet
504 899 m 2,0,1
 611 899 611 899 611 791 c 2,2,-1
 611 555 l 2,3,4
 611 485 611 485 599.5 417.5 c 128,-1,5
 588 350 588 350 559.5 296 c 128,-1,6
 531 242 531 242 484 210 c 128,-1,7
 437 178 437 178 365 178 c 0,8,9
 312 178 312 178 274 201.5 c 128,-1,10
 236 225 236 225 207.5 266 c 128,-1,11
 179 307 179 307 162.5 358.5 c 128,-1,12
 146 410 146 410 136.5 465 c 128,-1,13
 127 520 127 520 123 573.5 c 128,-1,14
 119 627 119 627 119 670 c 1,15,-1
 0 670 l 1,16,-1
 0 899 l 1,17,-1
 119 899 l 1,18,19
 139 1153 139 1153 226 1286 c 0,20,21
 312 1417 312 1417 467 1417 c 0,22,23
 547 1417 547 1417 606.5 1376 c 128,-1,24
 666 1335 666 1335 708 1262.5 c 128,-1,25
 750 1190 750 1190 771.5 1087.5 c 128,-1,26
 793 985 793 985 793 866 c 0,27,28
 793 819 793 819 781.5 794.5 c 128,-1,29
 770 770 770 770 762 770 c 0,30,31
 746 770 746 770 739 790.5 c 128,-1,32
 732 811 732 811 717 868 c 1,33,34
 707 958 707 958 681.5 1024 c 128,-1,35
 656 1090 656 1090 624 1133 c 128,-1,36
 592 1176 592 1176 551 1197.5 c 128,-1,37
 510 1219 510 1219 467 1219 c 0,38,39
 260 1219 260 1219 207 899 c 1,40,-1
 504 899 l 2,0,1
203 670 m 1,41,42
 203 602 203 602 205 545.5 c 128,-1,43
 207 489 207 489 222.5 447.5 c 128,-1,44
 238 406 238 406 270.5 380 c 128,-1,45
 303 354 303 354 365 354 c 256,46,47
 426 354 426 354 461 377.5 c 128,-1,48
 496 401 496 401 510.5 443 c 128,-1,49
 525 485 525 485 528 543.5 c 128,-1,50
 531 602 531 602 531 670 c 1,51,-1
 203 670 l 1,41,42
EndSplineSet
Validated: 1
EndChar

StartChar: uniE015
Encoding: 57365 57365 1
Width: 1019
Flags: W
LayerCount: 2
Fore
SplineSet
262 1100.5 m 24,0,1
 379.9765625 1101.97460938 379.9765625 1101.97460938 320 1036 c 24,2,3
 258.994140625 968.893554688 258.994140625 968.893554688 200 1034.5 c 24,4,5
 142 1099 142 1099 262 1100.5 c 24,0,1
502 899 m 1,6,7
 512 1014 512 1014 540.5 1082.5 c 128,-1,8
 569 1151 569 1151 607 1189 c 128,-1,9
 645 1227 645 1227 684 1238 c 128,-1,10
 723 1249 723 1249 750 1249 c 0,11,12
 811 1249 811 1249 856 1221.5 c 128,-1,13
 901 1194 901 1194 933 1147 c 128,-1,14
 965 1100 965 1100 988.5 1036.5 c 128,-1,15
 1012 973 1012 973 1022 899 c 1,16,-1
 1120 899 l 1,17,-1
 1120 670 l 1,18,-1
 1022 670 l 2,19,20
 1008 670 1008 670 991 684 c 0,21,22
 973 700 973 700 969 723 c 0,23,24
 961 776 961 776 947.5 832.5 c 128,-1,25
 934 889 934 889 913.5 936 c 128,-1,26
 893 983 893 983 853 1015 c 128,-1,27
 813 1047 813 1047 750 1047 c 0,28,29
 719 1047 719 1047 685 1036.5 c 128,-1,30
 651 1026 651 1026 623.5 996.5 c 128,-1,31
 596 967 596 967 576.5 917.5 c 128,-1,32
 557 868 557 868 557 791 c 0,33,34
 557 744 557 744 576.5 704 c 128,-1,35
 596 664 596 664 622.5 627 c 128,-1,36
 649 590 649 590 681 556 c 128,-1,37
 713 522 713 522 733 494 c 1,38,-1
 702 281 l 1,39,-1
 682 281 l 1,40,41
 678 299 678 299 663.5 318.5 c 128,-1,42
 649 338 649 338 635 360 c 0,43,44
 606 403 606 403 604 406 c 0,45,46
 590 431 590 431 575.5 448 c 128,-1,47
 561 465 561 465 549 492.5 c 128,-1,48
 537 520 537 520 525.5 547.5 c 128,-1,49
 514 575 514 575 508 607 c 128,-1,50
 502 639 502 639 502 670 c 1,51,-1
 307 670 l 1,52,53
 305 639 305 639 300 585.5 c 128,-1,54
 295 532 295 532 289 473 c 128,-1,55
 283 414 283 414 274.5 360.5 c 128,-1,56
 266 307 266 307 256 276 c 1,57,-1
 211 260 l 1,58,59
 170 354 170 354 148.5 458.5 c 128,-1,60
 127 563 127 563 117 670 c 1,61,-1
 0 670 l 1,62,-1
 0 899 l 1,63,-1
 502 899 l 1,6,7
EndSplineSet
EndChar

StartChar: uniE016
Encoding: 57366 57366 2
Width: 1585
Flags: W
LayerCount: 2
Fore
SplineSet
670 1100.5 m 28,0,1
 787.9765625 1101.97460938 787.9765625 1101.97460938 728 1036 c 28,2,3
 666.994140625 968.893554688 666.994140625 968.893554688 608 1034.5 c 28,4,5
 550 1099 550 1099 670 1100.5 c 28,0,1
598 670 m 1,6,-1
 858 299 l 1,7,-1
 858 266 l 1,8,-1
 803 4 l 1,9,-1
 772 4 l 1,10,-1
 510 670 l 1,11,-1
 307 670 l 1,12,13
 305 639 305 639 300 585.5 c 128,-1,14
 295 532 295 532 289 473 c 128,-1,15
 283 414 283 414 274.5 360.5 c 128,-1,16
 266 307 266 307 256 276 c 1,17,-1
 211 260 l 1,18,19
 170 354 170 354 148.5 458.5 c 128,-1,20
 127 563 127 563 117 670 c 1,21,-1
 0 670 l 1,22,-1
 0 899 l 1,23,-1
 1178 899 l 2,24,25
 1305 899 1305 899 1368.5 785.5 c 128,-1,26
 1432 672 1432 672 1432 438 c 2,27,-1
 1432 23 l 2,28,29
 1432 -63 1432 -63 1416.5 -128 c 128,-1,30
 1401 -193 1401 -193 1370 -241 c 128,-1,31
 1339 -289 1339 -289 1293 -322.5 c 128,-1,32
 1247 -356 1247 -356 1190 -383 c 0,33,34
 1155 -397 1155 -397 1134.5 -409.5 c 128,-1,35
 1114 -422 1114 -422 1099.5 -435.5 c 128,-1,36
 1085 -449 1085 -449 1075 -466 c 128,-1,37
 1065 -483 1065 -483 1053 -512 c 1,38,-1
 1028 -512 l 1,39,-1
 1096 -225 l 1,40,41
 1110 -221 1110 -221 1123.5 -217 c 128,-1,42
 1137 -213 1137 -213 1152 -209 c 128,-1,43
 1167 -205 1167 -205 1184.5 -194.5 c 128,-1,44
 1202 -184 1202 -184 1229 -170 c 0,45,46
 1243 -162 1243 -162 1262.5 -148.5 c 128,-1,47
 1282 -135 1282 -135 1299.5 -112.5 c 128,-1,48
 1317 -90 1317 -90 1328 -57.5 c 128,-1,49
 1339 -25 1339 -25 1339 23 c 2,50,-1
 1339 438 l 2,51,52
 1339 553 1339 553 1296 611.5 c 128,-1,53
 1253 670 1253 670 1178 670 c 2,54,-1
 598 670 l 1,6,-1
EndSplineSet
EndChar

StartChar: uniE01A
Encoding: 57370 57370 3
Width: 771
Flags: W
LayerCount: 2
Fore
SplineSet
649 846 m 0,0,1
 649 805 649 805 644 787.5 c 128,-1,2
 639 770 639 770 625 770 c 0,3,4
 613 770 613 770 604 786 c 0,5,6
 596 801 596 801 592 821 c 0,7,8
 580 876 580 876 566.5 936.5 c 128,-1,9
 553 997 553 997 533.5 1048.5 c 128,-1,10
 514 1100 514 1100 482.5 1134.5 c 128,-1,11
 451 1169 451 1169 401 1169 c 0,12,13
 344 1169 344 1169 303 1139.5 c 128,-1,14
 262 1110 262 1110 232.5 1058 c 128,-1,15
 203 1006 203 1006 188.5 937 c 128,-1,16
 174 868 174 868 174 793 c 0,17,18
 174 752 174 752 191.5 710 c 128,-1,19
 209 668 209 668 232.5 626 c 128,-1,20
 256 584 256 584 286.5 542 c 128,-1,21
 317 500 317 500 347 464 c 128,-1,22
 377 428 377 428 402.5 401.5 c 128,-1,23
 428 375 428 375 442 360 c 1,24,-1
 381 162 l 1,25,-1
 360 162 l 1,26,27
 317 211 317 211 274 276.5 c 128,-1,28
 231 342 231 342 196.5 412.5 c 128,-1,29
 162 483 162 483 141.5 549.5 c 128,-1,30
 121 616 121 616 121 670 c 1,31,-1
 120 670 l 1,32,-1
 120 899 l 1,33,-1
 121 899 l 1,34,35
 137 1126 137 1126 208 1250 c 128,-1,36
 279 1374 279 1374 403 1374 c 0,37,38
 473 1374 473 1374 522 1327 c 128,-1,39
 571 1280 571 1280 600 1204 c 128,-1,40
 629 1128 629 1128 639 1034 c 128,-1,41
 649 940 649 940 649 846 c 0,0,1
EndSplineSet
Validated: 1
EndChar

StartChar: uniE01B
Encoding: 57371 57371 4
Width: 844
Flags: W
LayerCount: 2
Fore
SplineSet
492 670 m 1,0,-1
 165 670 l 1,1,2
 165 603 165 603 166.5 545.5 c 128,-1,3
 168 488 168 488 183.5 445.5 c 128,-1,4
 199 403 199 403 232.5 379 c 128,-1,5
 266 355 266 355 328 355 c 0,6,7
 389 355 389 355 422.5 378 c 128,-1,8
 456 401 456 401 471.5 443 c 128,-1,9
 487 485 487 485 489.5 543 c 128,-1,10
 492 601 492 601 492 670 c 1,0,-1
752 866 m 0,11,12
 752 820 752 820 742 796.5 c 128,-1,13
 732 773 732 773 726 773 c 0,14,15
 707 773 707 773 699 792.5 c 128,-1,16
 691 812 691 812 681 869 c 0,17,18
 668 958 668 958 642.5 1024 c 128,-1,19
 617 1090 617 1090 584.5 1132 c 128,-1,20
 552 1174 552 1174 513 1195 c 128,-1,21
 474 1216 474 1216 431 1216 c 0,22,23
 224 1216 224 1216 168 900 c 1,24,-1
 465 900 l 2,25,26
 573 900 573 900 573 790 c 2,27,-1
 573 556 l 2,28,29
 573 485 573 485 561.5 417 c 128,-1,30
 550 349 550 349 521 295.5 c 128,-1,31
 492 242 492 242 444.5 210.5 c 128,-1,32
 397 179 397 179 328 179 c 0,33,34
 274 179 274 179 235.5 202.5 c 128,-1,35
 197 226 197 226 169.5 267 c 128,-1,36
 142 308 142 308 125 359 c 128,-1,37
 108 410 108 410 99 465 c 128,-1,38
 90 520 90 520 86.5 573 c 128,-1,39
 83 626 83 626 83 670 c 2,40,-1
 83 900 l 1,41,42
 101 1153 101 1153 187.5 1285.5 c 128,-1,43
 274 1418 274 1418 431 1418 c 0,44,45
 509 1418 509 1418 568.5 1376 c 128,-1,46
 628 1334 628 1334 669.5 1261 c 128,-1,47
 711 1188 711 1188 731.5 1086.5 c 128,-1,48
 752 985 752 985 752 866 c 0,11,12
EndSplineSet
Validated: 1
EndChar

StartChar: uniE027
Encoding: 57383 57383 5
Width: 909
Flags: W
LayerCount: 2
Fore
SplineSet
633 -29 m 0,0,1
 633 -41 633 -41 623.5 -51 c 128,-1,2
 614 -61 614 -61 604 -72.5 c 128,-1,3
 594 -84 594 -84 576.5 -95 c 128,-1,4
 559 -106 559 -106 547 -123 c 0,5,6
 535 -139 535 -139 523.5 -153.5 c 128,-1,7
 512 -168 512 -168 504 -178 c 128,-1,8
 496 -188 496 -188 488.5 -194.5 c 128,-1,9
 481 -201 481 -201 471 -201 c 0,10,11
 451 -201 451 -201 435.5 -191.5 c 128,-1,12
 420 -182 420 -182 420 -156 c 0,13,14
 420 -127 420 -127 424 -104.5 c 128,-1,15
 428 -82 428 -82 438 -49 c 0,16,17
 444 -33 444 -33 454.5 -13.5 c 128,-1,18
 465 6 465 6 478.5 24.5 c 128,-1,19
 492 43 492 43 508 53 c 128,-1,20
 524 63 524 63 545 63 c 256,21,22
 563 63 563 63 590 41 c 0,23,24
 633 2 633 2 633 -29 c 0,0,1
645 670 m 1,25,26
 643 572 643 572 629.5 473.5 c 128,-1,27
 616 375 616 375 600 272 c 1,28,-1
 553 262 l 1,29,30
 526 315 526 315 509 382 c 128,-1,31
 492 449 492 449 479.5 513.5 c 128,-1,32
 467 578 467 578 461 631 c 128,-1,33
 455 684 455 684 455 709 c 2,34,-1
 455 899 l 2,35,36
 455 950 455 950 442.5 983 c 128,-1,37
 430 1016 430 1016 403 1016 c 0,38,39
 383 1016 383 1016 365.5 1012 c 128,-1,40
 348 1008 348 1008 333.5 1000.5 c 128,-1,41
 319 993 319 993 305 986 c 128,-1,42
 291 979 291 979 270 963 c 0,43,44
 241 943 241 943 223 926 c 128,-1,45
 205 909 205 909 197 909 c 1,46,47
 183 923 183 923 171.5 938.5 c 128,-1,48
 160 954 160 954 160 967 c 1,49,50
 174 981 174 981 191.5 1003.5 c 128,-1,51
 209 1026 209 1026 225 1044 c 0,52,53
 311 1140 311 1140 372.5 1185.5 c 128,-1,54
 434 1231 434 1231 477 1231 c 0,55,56
 536 1231 536 1231 568 1174.5 c 128,-1,57
 600 1118 600 1118 600 1026 c 2,58,-1
 600 899 l 1,59,-1
 909 899 l 1,60,-1
 909 670 l 1,61,-1
 645 670 l 1,25,26
EndSplineSet
Validated: 1
EndChar

StartChar: uniE028
Encoding: 57384 57384 6
Width: 397
Flags: W
LayerCount: 2
Fore
SplineSet
276 -29 m 0,0,1
 276 -41 276 -41 268 -51 c 128,-1,2
 260 -61 260 -61 249 -72.5 c 128,-1,3
 238 -84 238 -84 222.5 -95 c 128,-1,4
 207 -106 207 -106 190 -123 c 0,5,6
 176 -139 176 -139 166 -153.5 c 128,-1,7
 156 -168 156 -168 147.5 -178 c 128,-1,8
 139 -188 139 -188 132 -195.5 c 128,-1,9
 125 -203 125 -203 115 -203 c 0,10,11
 92 -203 92 -203 77.5 -191.5 c 128,-1,12
 63 -180 63 -180 63 -158 c 0,13,14
 63 -129 63 -129 67.5 -104.5 c 128,-1,15
 72 -80 72 -80 84 -51 c 0,16,17
 90 -35 90 -35 99.5 -14.5 c 128,-1,18
 109 6 109 6 122 23.5 c 128,-1,19
 135 41 135 41 152.5 52 c 128,-1,20
 170 63 170 63 186 63 c 0,21,22
 206 63 206 63 233 41 c 0,23,24
 276 2 276 2 276 -29 c 0,0,1
500 899 m 1,25,-1
 500 670 l 1,26,-1
 238 670 l 1,27,28
 236 639 236 639 229.5 585.5 c 128,-1,29
 223 532 223 532 218 473 c 128,-1,30
 213 414 213 414 205 360.5 c 128,-1,31
 197 307 197 307 186 276 c 1,32,-1
 141 260 l 1,33,34
 100 354 100 354 77.5 458.5 c 128,-1,35
 55 563 55 563 47 670 c 1,36,-1
 0 670 l 1,37,-1
 0 899 l 1,38,-1
 500 899 l 1,25,-1
EndSplineSet
Validated: 1
EndChar

StartChar: uniE029
Encoding: 57385 57385 7
Width: 847
Flags: W
LayerCount: 2
Fore
SplineSet
948 899 m 1,0,-1
 948 670 l 1,1,-1
 850 670 l 2,2,3
 809 670 809 670 800 681 c 128,-1,4
 791 692 791 692 781.5 714.5 c 128,-1,5
 772 737 772 737 762 774 c 128,-1,6
 752 811 752 811 739 870 c 0,7,8
 704 1050 704 1050 639.5 1135.5 c 128,-1,9
 575 1221 575 1221 487 1221 c 0,10,11
 280 1221 280 1221 223 899 c 1,12,-1
 522 899 l 2,13,14
 631 899 631 899 631 791 c 2,15,-1
 631 555 l 2,16,17
 631 485 631 485 619.5 415.5 c 128,-1,18
 608 346 608 346 578.5 293 c 128,-1,19
 549 240 549 240 502 206 c 128,-1,20
 455 172 455 172 385 172 c 0,21,22
 332 172 332 172 292 197.5 c 128,-1,23
 252 223 252 223 225.5 264 c 128,-1,24
 199 305 199 305 180.5 356.5 c 128,-1,25
 162 408 162 408 152.5 462 c 128,-1,26
 143 516 143 516 141 571.5 c 128,-1,27
 139 627 139 627 139 670 c 2,28,-1
 139 901 l 1,29,30
 155 1153 155 1153 242.5 1287 c 128,-1,31
 330 1421 330 1421 487 1421 c 0,32,33
 567 1421 567 1421 624.5 1383.5 c 128,-1,34
 682 1346 682 1346 724 1276 c 128,-1,35
 766 1206 766 1206 788.5 1111 c 128,-1,36
 811 1016 811 1016 813 899 c 1,37,-1
 948 899 l 1,0,-1
549 670 m 1,38,-1
 219 670 l 1,39,40
 219 602 219 602 221 543.5 c 128,-1,41
 223 485 223 485 238.5 443 c 128,-1,42
 254 401 254 401 288 377 c 0,43,44
 324 352 324 352 385 352 c 128,-1,45
 446 352 446 352 480 375.5 c 128,-1,46
 514 399 514 399 529.5 442 c 128,-1,47
 545 485 545 485 547 542.5 c 128,-1,48
 549 600 549 600 549 670 c 1,38,-1
EndSplineSet
Validated: 1
EndChar

StartChar: uniE02A
Encoding: 57386 57386 8
Width: 819
Flags: W
LayerCount: 2
Fore
SplineSet
494 899 m 2,0,1
 603 899 603 899 602 791 c 2,2,-1
 602 555 l 2,3,4
 602 485 602 485 591 415.5 c 128,-1,5
 580 346 580 346 549 293 c 128,-1,6
 518 240 518 240 472 206 c 128,-1,7
 426 172 426 172 354 172 c 0,8,9
 301 172 301 172 262 197.5 c 128,-1,10
 223 223 223 223 196.5 264 c 128,-1,11
 170 305 170 305 151.5 356.5 c 128,-1,12
 133 408 133 408 124 462 c 128,-1,13
 115 516 115 516 113 571.5 c 128,-1,14
 111 627 111 627 111 670 c 1,15,-1
 0 670 l 1,16,-1
 0 899 l 5,17,-1
 111 899 l 5,18,-1
 111 901 l 1,19,20
 127 1153 127 1153 214 1287 c 128,-1,21
 301 1421 301 1421 459 1421 c 0,22,23
 539 1421 539 1421 596 1383.5 c 128,-1,24
 653 1346 653 1346 695 1276 c 128,-1,25
 737 1206 737 1206 759.5 1111 c 128,-1,26
 782 1016 782 1016 784 899 c 1,27,-1
 920 899 l 1,28,-1
 920 670 l 1,29,-1
 811 670 l 2,30,31
 778 670 778 670 770 681 c 128,-1,32
 762 692 762 692 752.5 714.5 c 128,-1,33
 743 737 743 737 733 774 c 128,-1,34
 723 811 723 811 711 870 c 0,35,36
 676 1050 676 1050 611.5 1135.5 c 128,-1,37
 547 1221 547 1221 459 1221 c 0,38,39
 252 1221 252 1221 195 899 c 1,40,-1
 494 899 l 2,0,1
190 670 m 1,41,42
 190 602 190 602 192.5 543.5 c 128,-1,43
 195 485 195 485 210 443 c 128,-1,44
 225 401 225 401 259 376.5 c 128,-1,45
 293 352 293 352 354 352 c 0,46,47
 415 352 415 352 450 375.5 c 128,-1,48
 485 399 485 399 499.5 442 c 128,-1,49
 514 485 514 485 516 542.5 c 128,-1,50
 518 600 518 600 518 670 c 1,51,-1
 190 670 l 1,41,42
EndSplineSet
Validated: 33
EndChar

StartChar: uniE02B
Encoding: 57387 57387 9
Width: 968
Flags: W
LayerCount: 2
Fore
SplineSet
520 899 m 1,0,1
 606 889 606 889 606 791 c 2,2,-1
 606 555 l 2,3,4
 606 483 606 483 595 414.5 c 128,-1,5
 584 346 584 346 555 293 c 128,-1,6
 526 240 526 240 479 208 c 128,-1,7
 432 176 432 176 360 176 c 0,8,9
 307 176 307 176 268 199.5 c 128,-1,10
 229 223 229 223 202.5 263 c 128,-1,11
 176 303 176 303 158.5 355.5 c 128,-1,12
 141 408 141 408 132 462 c 128,-1,13
 123 516 123 516 120 570.5 c 128,-1,14
 117 625 117 625 117 670 c 1,15,-1
 0 670 l 1,16,-1
 0 899 l 1,17,-1
 117 899 l 1,18,19
 125 1024 125 1024 158 1128 c 0,20,21
 189 1230 189 1230 241 1303 c 128,-1,22
 293 1376 293 1376 363.5 1416 c 128,-1,23
 434 1456 434 1456 522 1456 c 0,24,25
 600 1456 600 1456 658.5 1429.5 c 128,-1,26
 717 1403 717 1403 762 1355 c 128,-1,27
 807 1307 807 1307 835.5 1242.5 c 128,-1,28
 864 1178 864 1178 882.5 1107 c 128,-1,29
 901 1036 901 1036 910.5 963.5 c 128,-1,30
 920 891 920 891 920 819 c 2,31,-1
 920 133 l 2,32,33
 920 47 920 47 903.5 -17.5 c 128,-1,34
 887 -82 887 -82 856 -128 c 128,-1,35
 825 -174 825 -174 780 -209 c 0,36,37
 727 -250 727 -250 676 -270 c 0,38,39
 641 -284 641 -284 620.5 -296.5 c 128,-1,40
 600 -309 600 -309 586.5 -322.5 c 128,-1,41
 573 -336 573 -336 563 -354.5 c 128,-1,42
 553 -373 553 -373 539 -399 c 1,43,-1
 514 -399 l 1,44,-1
 582 -115 l 1,45,46
 596 -111 596 -111 609.5 -106.5 c 128,-1,47
 623 -102 623 -102 639 -96 c 0,48,49
 664 -88 664 -88 672 -82 c 0,50,51
 690 -72 690 -72 717 -57 c 0,52,53
 731 -49 731 -49 749.5 -34.5 c 128,-1,54
 768 -20 768 -20 786.5 1.5 c 128,-1,55
 805 23 805 23 816 54.5 c 128,-1,56
 827 86 827 86 827 133 c 2,57,-1
 827 819 l 2,58,59
 827 852 827 852 822 897 c 128,-1,60
 817 942 817 942 805 989 c 128,-1,61
 793 1036 793 1036 770.5 1084.5 c 128,-1,62
 748 1133 748 1133 714 1170.5 c 128,-1,63
 680 1208 680 1208 633 1230.5 c 128,-1,64
 586 1253 586 1253 522 1253 c 0,65,66
 452 1253 452 1253 399 1227.5 c 128,-1,67
 346 1202 346 1202 307 1155 c 0,68,69
 270 1112 270 1112 244 1044 c 0,70,71
 217 978 217 978 203 899 c 1,72,-1
 520 899 l 1,0,1
197 670 m 1,73,74
 197 600 197 600 200 542.5 c 128,-1,75
 203 485 203 485 217 443 c 128,-1,76
 231 401 231 401 265 376.5 c 128,-1,77
 299 352 299 352 360 352 c 256,78,79
 421 352 421 352 455 375.5 c 128,-1,80
 489 399 489 399 505.5 441 c 128,-1,81
 522 483 522 483 524 540.5 c 128,-1,82
 526 598 526 598 526 670 c 1,83,-1
 197 670 l 1,73,74
EndSplineSet
Validated: 1
EndChar

StartChar: uniE02C
Encoding: 57388 57388 10
Width: 843
Flags: W
LayerCount: 2
Fore
SplineSet
944 899 m 1,0,-1
 944 670 l 1,1,-1
 846 670 l 2,2,3
 803 670 803 670 794.5 680 c 128,-1,4
 786 690 786 690 776 712.5 c 128,-1,5
 766 735 766 735 755.5 773 c 128,-1,6
 745 811 745 811 733 868 c 0,7,8
 698 1048 698 1048 634.5 1132.5 c 128,-1,9
 571 1217 571 1217 483 1217 c 0,10,11
 278 1217 278 1217 221 899 c 1,12,-1
 518 899 l 2,13,14
 624 899 624 899 627 791 c 2,15,-1
 627 584 l 2,16,17
 627 500 627 500 611.5 438.5 c 128,-1,18
 596 377 596 377 566.5 336 c 128,-1,19
 537 295 537 295 491.5 273.5 c 128,-1,20
 446 252 446 252 385 244 c 0,21,22
 295 234 295 234 246 212 c 128,-1,23
 197 190 197 190 170 178 c 1,24,25
 168 194 168 194 167 216 c 128,-1,26
 166 238 166 238 166 248 c 0,27,28
 166 293 166 293 174 325.5 c 128,-1,29
 182 358 182 358 209 382 c 128,-1,30
 236 406 236 406 282 421 c 128,-1,31
 328 436 328 436 403 444 c 0,32,33
 434 446 434 446 459.5 455.5 c 128,-1,34
 485 465 485 465 501.5 482.5 c 128,-1,35
 518 500 518 500 526.5 530.5 c 128,-1,36
 535 561 535 561 535 610 c 2,37,-1
 535 670 l 1,38,-1
 135 670 l 1,39,-1
 135 899 l 1,40,41
 143 1026 143 1026 172 1123.5 c 128,-1,42
 201 1221 201 1221 246 1286.5 c 128,-1,43
 291 1352 291 1352 351.5 1385.5 c 128,-1,44
 412 1419 412 1419 483 1419 c 0,45,46
 559 1419 559 1419 618.5 1381 c 128,-1,47
 678 1343 678 1343 719 1273.5 c 128,-1,48
 760 1204 760 1204 782.5 1110 c 128,-1,49
 805 1016 805 1016 807 899 c 1,50,-1
 944 899 l 1,0,-1
EndSplineSet
Validated: 1
EndChar

StartChar: uniE02D
Encoding: 57389 57389 11
Width: 817
Flags: W
LayerCount: 2
Fore
SplineSet
111 899 m 1,0,1
 119 1026 119 1026 147.5 1123.5 c 128,-1,2
 176 1221 176 1221 221 1286.5 c 128,-1,3
 266 1352 266 1352 325.5 1385.5 c 128,-1,4
 385 1419 385 1419 459 1419 c 0,5,6
 535 1419 535 1419 594 1381 c 128,-1,7
 653 1343 653 1343 693 1273.5 c 128,-1,8
 733 1204 733 1204 755.5 1110 c 128,-1,9
 778 1016 778 1016 782 899 c 1,10,-1
 920 899 l 1,11,-1
 920 670 l 1,12,-1
 819 670 l 2,13,14
 776 670 776 670 769 680 c 128,-1,15
 762 690 762 690 751.5 712.5 c 128,-1,16
 741 735 741 735 731 774 c 0,17,18
 717 827 717 827 709 868 c 0,19,20
 672 1050 672 1050 610 1133 c 0,21,22
 547 1217 547 1217 459 1217 c 0,23,24
 254 1217 254 1217 197 899 c 1,25,-1
 494 899 l 2,26,27
 600 899 600 899 600 791 c 2,28,-1
 600 584 l 2,29,30
 600 500 600 500 585.5 438.5 c 128,-1,31
 571 377 571 377 541.5 336 c 128,-1,32
 512 295 512 295 467 273.5 c 128,-1,33
 422 252 422 252 360 244 c 0,34,35
 270 234 270 234 220 212 c 128,-1,36
 170 190 170 190 145 178 c 1,37,38
 143 194 143 194 141 216 c 128,-1,39
 139 238 139 238 139 248 c 0,40,41
 139 293 139 293 148.5 325.5 c 128,-1,42
 158 358 158 358 184.5 382 c 128,-1,43
 211 406 211 406 256 422 c 0,44,45
 311 438 311 438 379 444 c 0,46,47
 410 446 410 446 435.5 455.5 c 128,-1,48
 461 465 461 465 477.5 482.5 c 128,-1,49
 494 500 494 500 502 530.5 c 128,-1,50
 510 561 510 561 510 610 c 2,51,-1
 510 670 l 1,52,-1
 0 670 l 1,53,-1
 0 899 l 1,54,-1
 111 899 l 1,0,1
EndSplineSet
Validated: 1
EndChar

StartChar: uniE02E
Encoding: 57390 57390 12
Width: 964
Flags: W
LayerCount: 2
Fore
SplineSet
92 901 m 1,0,1
 102 1028 102 1028 131 1131.5 c 128,-1,2
 160 1235 160 1235 206 1308.5 c 128,-1,3
 252 1382 252 1382 310.5 1420 c 128,-1,4
 369 1458 369 1458 442 1458 c 0,5,6
 520 1458 520 1458 579.5 1430.5 c 128,-1,7
 639 1403 639 1403 683 1356 c 128,-1,8
 727 1309 727 1309 757.5 1245.5 c 128,-1,9
 788 1182 788 1182 805.5 1111 c 128,-1,10
 823 1040 823 1040 832.5 966.5 c 128,-1,11
 842 893 842 893 842 821 c 2,12,-1
 842 133 l 2,13,14
 842 47 842 47 825.5 -18.5 c 128,-1,15
 809 -84 809 -84 779.5 -130 c 128,-1,16
 750 -176 750 -176 705 -211 c 0,17,18
 654 -250 654 -250 598 -274 c 0,19,20
 549 -297 549 -297 543 -299 c 0,21,22
 523 -311 523 -311 510.5 -324.5 c 128,-1,23
 498 -338 498 -338 486.5 -356.5 c 128,-1,24
 475 -375 475 -375 461 -403 c 1,25,-1
 436 -403 l 1,26,-1
 506 -117 l 1,27,28
 516 -113 516 -113 531.5 -108.5 c 128,-1,29
 547 -104 547 -104 561 -98 c 0,30,31
 594 -86 594 -86 595 -85 c 128,-1,32
 596 -84 596 -84 639 -59 c 0,33,34
 668 -43 668 -43 674 -39 c 0,35,36
 692 -25 692 -25 708.5 -2.5 c 128,-1,37
 725 20 725 20 738.5 53 c 128,-1,38
 752 86 752 86 752 133 c 2,39,-1
 752 821 l 2,40,41
 752 852 752 852 746.5 897 c 128,-1,42
 741 942 741 942 727 990 c 128,-1,43
 713 1038 713 1038 690.5 1085.5 c 128,-1,44
 668 1133 668 1133 635 1169.5 c 128,-1,45
 602 1206 602 1206 554 1228.5 c 128,-1,46
 506 1251 506 1251 442 1251 c 0,47,48
 391 1251 391 1251 349 1226.5 c 128,-1,49
 307 1202 307 1202 273.5 1156 c 128,-1,50
 240 1110 240 1110 216.5 1045.5 c 128,-1,51
 193 981 193 981 178 901 c 1,52,-1
 500 901 l 1,53,-1
 500 899 l 1,54,55
 586 893 586 893 586 791 c 2,56,-1
 586 584 l 2,57,58
 586 498 586 498 570.5 437.5 c 128,-1,59
 555 377 555 377 526.5 336 c 128,-1,60
 498 295 498 295 453 272.5 c 128,-1,61
 408 250 408 250 346 242 c 0,62,63
 254 230 254 230 204 209 c 128,-1,64
 154 188 154 188 129 176 c 1,65,66
 127 192 127 192 125 214 c 128,-1,67
 123 236 123 236 123 248 c 0,68,69
 123 293 123 293 131 323.5 c 128,-1,70
 139 354 139 354 166 380 c 128,-1,71
 193 406 193 406 240 420 c 0,72,73
 291 438 291 438 362 444 c 0,74,75
 399 448 399 448 420 455 c 0,76,77
 447 463 447 463 462 481.5 c 128,-1,78
 477 500 477 500 487.5 530.5 c 128,-1,79
 498 561 498 561 498 612 c 2,80,-1
 498 670 l 1,81,-1
 0 670 l 1,82,-1
 0 901 l 1,83,-1
 92 901 l 1,0,1
EndSplineSet
Validated: 1
EndChar

StartChar: uniE02F
Encoding: 57391 57391 13
Width: 1114
Flags: W
LayerCount: 2
Fore
SplineSet
764 800 m 256,0,1
 764 1000 764 1000 717.5 1084 c 128,-1,2
 671 1168 671 1168 612 1168 c 0,3,4
 570 1168 570 1168 536 1139.5 c 128,-1,5
 502 1111 502 1111 478.5 1062.5 c 128,-1,6
 455 1014 455 1014 441.5 948.5 c 128,-1,7
 428 883 428 883 428 805 c 0,8,9
 428 722 428 722 449.5 664.5 c 128,-1,10
 471 607 471 607 498 560 c 128,-1,11
 525 513 525 513 546 470.5 c 128,-1,12
 567 428 567 428 567 376 c 0,13,14
 567 265 567 265 424 265 c 0,15,16
 391 265 391 265 363 270 c 128,-1,17
 335 275 335 275 315 283.5 c 128,-1,18
 295 292 295 292 283 301 c 0,19,20
 273 309 273 309 273 317 c 2,21,-1
 273 319 l 2,22,23
 273 347 273 347 298.5 362 c 0,24,25
 322 376 322 376 347 392.5 c 128,-1,26
 372 409 372 409 393 440.5 c 128,-1,27
 414 472 414 472 414 534 c 0,28,29
 414 560 414 560 406 589 c 128,-1,30
 398 618 398 618 381.5 643 c 128,-1,31
 365 668 365 668 341.5 683.5 c 128,-1,32
 318 699 318 699 288 699 c 0,33,34
 273 699 273 699 261.5 694.5 c 128,-1,35
 250 690 250 690 235.5 684 c 128,-1,36
 221 678 221 678 208.5 674 c 128,-1,37
 196 670 196 670 187 670 c 1,38,39
 167 692 167 692 162.5 721.5 c 128,-1,40
 158 751 158 751 158 791 c 0,41,42
 158 827 158 827 168.5 850.5 c 128,-1,43
 179 874 179 874 195.5 886.5 c 128,-1,44
 212 899 212 899 234.5 908 c 128,-1,45
 257 917 257 917 277 928 c 128,-1,46
 297 939 297 939 315 953 c 128,-1,47
 333 967 333 967 342 993 c 0,48,49
 405 1177 405 1177 479.5 1274 c 128,-1,50
 554 1371 554 1371 641 1371 c 0,51,52
 686 1371 686 1371 725.5 1348.5 c 128,-1,53
 765 1326 765 1326 797.5 1278.5 c 128,-1,54
 830 1231 830 1231 848 1158 c 0,55,56
 867.123449498 1079.49320732 867.123449498 1079.49320732 866 984 c 2,57,-1
 865 899 l 1,58,-1
 1214 899 l 1,59,-1
 1214 670 l 1,60,-1
 951 670 l 1,61,62
 949 640 949 640 943 586 c 128,-1,63
 937 532 937 532 930.5 473 c 128,-1,64
 924 414 924 414 916 361 c 128,-1,65
 908 308 908 308 899 277 c 1,66,-1
 854 261 l 1,67,68
 814 355 814 355 789 477.5 c 128,-1,69
 764 600 764 600 764 800 c 256,0,1
EndSplineSet
Validated: 33
EndChar

StartChar: uniE030
Encoding: 57392 57392 14
Width: 778
Flags: W
LayerCount: 2
Fore
SplineSet
913 899 m 21,0,-1
 913 670 l 5,1,-1
 759 670 l 6,2,3
 716 670 716 670 705 739 c 132,-1,4
 694 808 694 808 684 874 c 4,5,-1
 671 949 l 4,6,7
 662 998 662 998 649.5 1035 c 132,-1,8
 637 1072 637 1072 614.5 1102 c 132,-1,9
 592 1132 592 1132 560.5 1151 c 132,-1,10
 529 1170 529 1170 488 1170 c 4,11,12
 424 1170 424 1170 378.5 1130 c 132,-1,13
 333 1090 333 1090 302 1032.5 c 132,-1,14
 271 975 271 975 257 909 c 132,-1,15
 243 843 243 843 243 789 c 4,16,17
 243 687 243 687 289 577.5 c 132,-1,18
 335 468 335 468 430 362 c 5,19,-1
 370 160 l 5,20,-1
 349 160 l 5,21,22
 257 275 257 275 206.5 406 c 132,-1,23
 156 537 156 537 156 670 c 6,24,-1
 156 901 l 5,25,26
 163 1003 163 1003 192.5 1090 c 132,-1,27
 222 1177 222 1177 265.5 1239.5 c 132,-1,28
 309 1302 309 1302 366.5 1337.5 c 132,-1,29
 424 1373 424 1373 493 1373 c 4,30,31
 561 1373 561 1373 611.5 1337.5 c 132,-1,32
 662 1302 662 1302 697.5 1238.5 c 132,-1,33
 733 1175 733 1175 749.5 1089 c 132,-1,34
 766 1003 766 1003 770 900 c 13,35,-1
 913 899 l 21,0,-1
EndSplineSet
Validated: 1
EndChar

StartChar: uniE031
Encoding: 57393 57393 15
Width: 670
Flags: W
LayerCount: 2
Fore
SplineSet
106 900 m 5,0,1
 114 966 114 966 131 1007 c 4,2,3
 161 1080 161 1080 199 1121 c 132,-1,4
 237 1162 237 1162 287.5 1186 c 132,-1,5
 338 1210 338 1210 391 1210 c 4,6,7
 449 1210 449 1210 502 1174 c 132,-1,8
 555 1138 555 1138 586 1088.5 c 132,-1,9
 617 1039 617 1039 634.5 987 c 132,-1,10
 652 935 652 935 665 900 c 5,11,-1
 770 900 l 5,12,-1
 770 670 l 5,13,-1
 670 670 l 6,14,15
 628 670 628 670 614.5 742 c 132,-1,16
 601 814 601 814 577.5 876.5 c 132,-1,17
 554 939 554 939 503 979.5 c 132,-1,18
 452 1020 452 1020 383 1020 c 4,19,20
 333 1020 333 1020 292 1002 c 132,-1,21
 251 984 251 984 223.5 954 c 132,-1,22
 196 924 196 924 182.5 881.5 c 132,-1,23
 169 839 169 839 169 791 c 4,24,25
 169 758 169 758 180 715 c 132,-1,26
 191 672 191 672 214 627 c 132,-1,27
 237 582 237 582 272 534.5 c 132,-1,28
 307 487 307 487 352 448 c 5,29,-1
 352 239 l 5,30,-1
 327 239 l 5,31,32
 281 290 281 290 241.5 349 c 132,-1,33
 202 408 202 408 174 466 c 4,34,35
 150 516 150 516 123 602 c 4,36,37
 113 634 113 634 108 670 c 5,38,-1
 0 670 l 5,39,-1
 0 900 l 5,40,-1
 106 900 l 5,0,1
EndSplineSet
Validated: 1
EndChar

StartChar: uniE032
Encoding: 57394 57394 16
Width: 1331
Flags: W
LayerCount: 2
Fore
SplineSet
545 899 m 1,0,1
 545 682 545 682 559 635 c 128,-1,2
 573 588 573 588 597 548 c 128,-1,3
 621 508 621 508 648.5 476 c 128,-1,4
 676 444 676 444 696 422 c 1,5,6
 696 465 696 465 697 514 c 128,-1,7
 698 563 698 563 704.5 623.5 c 128,-1,8
 711 684 711 684 725 748.5 c 128,-1,9
 739 813 739 813 762 887 c 1,10,11
 801 985 801 985 826.5 1057.5 c 128,-1,12
 852 1130 852 1130 869.5 1184.5 c 128,-1,13
 887 1239 887 1239 894 1285 c 128,-1,14
 901 1331 901 1331 901 1378 c 0,15,16
 901 1396 901 1396 897 1424 c 128,-1,17
 893 1452 893 1452 886 1479.5 c 128,-1,18
 879 1507 879 1507 872.5 1529.5 c 128,-1,19
 866 1552 866 1552 866 1563 c 0,20,21
 866 1596 866 1596 876.5 1611 c 128,-1,22
 887 1626 887 1626 911 1626 c 0,23,24
 934 1626 934 1626 957.5 1578 c 128,-1,25
 981 1530 981 1530 1022 1450 c 0,26,27
 1065 1366 1065 1366 1099 1304.5 c 128,-1,28
 1133 1243 1133 1243 1149 1196 c 1,29,30
 1118 1163 1118 1163 1083.5 1116 c 128,-1,31
 1049 1069 1049 1069 1014 1015 c 128,-1,32
 979 961 979 961 946 905 c 0,33,34
 919 858 919 858 899 798.5 c 128,-1,35
 879 739 879 739 861.5 686 c 128,-1,36
 844 633 844 633 830.5 569.5 c 128,-1,37
 817 506 817 506 810 424 c 128,-1,38
 803 342 803 342 803 225 c 1,39,40
 733 262 733 262 671.5 313.5 c 128,-1,41
 610 365 610 365 563 424 c 0,42,43
 520 479 520 479 489 547 c 0,44,45
 460 608 460 608 457 670 c 1,46,-1
 307 670 l 1,47,48
 305 639 305 639 299 585.5 c 128,-1,49
 293 532 293 532 287 473 c 128,-1,50
 281 414 281 414 272.5 360.5 c 128,-1,51
 264 307 264 307 256 276 c 1,52,-1
 211 260 l 1,53,54
 170 354 170 354 147.5 458.5 c 128,-1,55
 125 563 125 563 117 670 c 1,56,-1
 0 670 l 1,57,-1
 0 899 l 1,58,-1
 545 899 l 1,0,1
EndSplineSet
Validated: 1
EndChar

StartChar: uniE033
Encoding: 57395 57395 17
Width: 1140
Flags: W
LayerCount: 2
Fore
SplineSet
440 1100.5 m 28,0,1
 557.9765625 1101.97460938 557.9765625 1101.97460938 498 1036 c 28,2,3
 436.994140625 968.893554688 436.994140625 968.893554688 378 1034.5 c 28,4,5
 320 1099 320 1099 440 1100.5 c 28,0,1
778 899 m 2,6,7
 905 899 905 899 968.5 785.5 c 128,-1,8
 1032 672 1032 672 1032 438 c 2,9,-1
 1032 23 l 2,10,11
 1032 -63 1032 -63 1015.5 -128 c 128,-1,12
 999 -193 999 -193 968.5 -241 c 128,-1,13
 938 -289 938 -289 893 -322.5 c 128,-1,14
 848 -356 848 -356 788 -383 c 0,15,16
 753 -397 753 -397 734 -409.5 c 128,-1,17
 715 -422 715 -422 700.5 -435.5 c 128,-1,18
 686 -449 686 -449 676 -466 c 128,-1,19
 666 -483 666 -483 651 -512 c 1,20,-1
 629 -512 l 1,21,-1
 694 -225 l 1,22,23
 708 -221 708 -221 721.5 -217 c 128,-1,24
 735 -213 735 -213 751.5 -209 c 128,-1,25
 768 -205 768 -205 785.5 -194.5 c 128,-1,26
 803 -184 803 -184 829 -170 c 0,27,28
 843 -162 843 -162 863 -148.5 c 128,-1,29
 883 -135 883 -135 899 -112.5 c 128,-1,30
 915 -90 915 -90 926.5 -57.5 c 128,-1,31
 938 -25 938 -25 938 23 c 2,32,-1
 938 438 l 2,33,34
 938 553 938 553 896 611.5 c 128,-1,35
 854 670 854 670 778 670 c 2,36,-1
 197 670 l 1,37,-1
 459 299 l 1,38,-1
 459 266 l 1,39,-1
 403 4 l 1,40,-1
 373 4 l 1,41,-1
 111 670 l 1,42,-1
 0 670 l 1,43,-1
 0 899 l 1,44,-1
 778 899 l 2,6,7
EndSplineSet
EndChar

StartChar: uniE034
Encoding: 57396 57396 18
Width: 1099
Flags: W
LayerCount: 2
Fore
SplineSet
614 -215 m 0,0,1
 614 -225 614 -225 607 -235.5 c 128,-1,2
 600 -246 600 -246 590 -255 c 128,-1,3
 580 -264 580 -264 565.5 -275.5 c 128,-1,4
 551 -287 551 -287 537 -301 c 0,5,6
 525 -315 525 -315 515.5 -328.5 c 128,-1,7
 506 -342 506 -342 499 -351 c 128,-1,8
 492 -360 492 -360 484.5 -366.5 c 128,-1,9
 477 -373 477 -373 469 -373 c 0,10,11
 451 -373 451 -373 437.5 -362.5 c 128,-1,12
 424 -352 424 -352 424 -332 c 0,13,14
 424 -305 424 -305 427 -283.5 c 128,-1,15
 430 -262 430 -262 440 -236 c 0,16,17
 444 -220 444 -220 454.5 -201 c 128,-1,18
 465 -182 465 -182 477 -167 c 128,-1,19
 489 -152 489 -152 503.5 -142.5 c 128,-1,20
 518 -133 518 -133 535 -133 c 0,21,22
 553 -133 553 -133 575 -154 c 0,23,24
 614 -186 614 -186 614 -215 c 0,0,1
512 59 m 0,25,26
 512 49 512 49 505 40 c 128,-1,27
 498 31 498 31 486.5 20.5 c 128,-1,28
 475 10 475 10 460.5 0 c 128,-1,29
 446 -10 446 -10 434 -27 c 0,30,31
 422 -41 422 -41 412.5 -53.5 c 128,-1,32
 403 -66 403 -66 395 -76 c 128,-1,33
 387 -86 387 -86 381 -91 c 128,-1,34
 375 -96 375 -96 367 -96 c 0,35,36
 347 -96 347 -96 333 -86 c 128,-1,37
 319 -76 319 -76 319 -55 c 0,38,39
 319 -28 319 -28 323.5 -8 c 128,-1,40
 328 12 328 12 338 41 c 0,41,42
 344 57 344 57 352 74.5 c 128,-1,43
 360 92 360 92 372.5 108.5 c 128,-1,44
 385 125 385 125 399.5 134 c 128,-1,45
 414 143 414 143 430 143 c 0,46,47
 448 143 448 143 473 123 c 0,48,49
 512 88 512 88 512 59 c 0,25,26
649 801 m 256,50,51
 649 1002 649 1002 603 1084.5 c 128,-1,52
 557 1167 557 1167 498 1167 c 0,53,54
 455 1167 455 1167 421 1138.5 c 128,-1,55
 387 1110 387 1110 364.5 1062 c 128,-1,56
 342 1014 342 1014 327.5 948.5 c 128,-1,57
 313 883 313 883 313 805 c 0,58,59
 313 721 313 721 334.5 663.5 c 128,-1,60
 356 606 356 606 384 559 c 128,-1,61
 412 512 412 512 432.5 470 c 128,-1,62
 453 428 453 428 453 377 c 0,63,64
 453 266 453 266 309 264 c 0,65,66
 276 264 276 264 248.5 269 c 128,-1,67
 221 274 221 274 200.5 283.5 c 128,-1,68
 180 293 180 293 170 301 c 128,-1,70
 160 309 160 309 160 317 c 2,71,-1
 160 319 l 2,72,73
 162 348 162 348 185.5 362.5 c 128,-1,74
 209 377 209 377 233.5 393.5 c 128,-1,75
 258 410 258 410 278.5 440.5 c 128,-1,76
 299 471 299 471 299 535 c 0,77,78
 299 562 299 562 292 590 c 128,-1,79
 285 618 285 618 268.5 643 c 128,-1,80
 252 668 252 668 228.5 683 c 128,-1,81
 205 698 205 698 174 698 c 0,82,83
 160 698 160 698 147.5 694 c 128,-1,84
 135 690 135 690 120.5 684 c 128,-1,85
 106 678 106 678 94 674 c 128,-1,86
 82 670 82 670 74 670 c 1,87,88
 54 693 54 693 48.5 722.5 c 128,-1,89
 43 752 43 752 43 791 c 0,90,91
 43 828 43 828 54.5 851 c 128,-1,92
 66 874 66 874 82 886.5 c 128,-1,93
 98 899 98 899 120.5 908.5 c 128,-1,94
 143 918 143 918 162.5 928 c 128,-1,95
 182 938 182 938 200.5 952.5 c 128,-1,96
 219 967 219 967 227 993 c 0,97,98
 290 1177 290 1177 365 1273.5 c 128,-1,99
 440 1370 440 1370 526 1370 c 0,100,101
 571 1370 571 1370 611 1347.5 c 128,-1,102
 651 1325 651 1325 684 1278 c 128,-1,103
 717 1231 717 1231 734.5 1158 c 128,-1,104
 752 1085 752 1085 752 983 c 2,105,-1
 752 899 l 1,106,-1
 1100 899 l 1,107,-1
 1100 670 l 1,108,-1
 838 670 l 1,109,110
 836 639 836 639 829.5 585.5 c 128,-1,111
 823 532 823 532 817 473 c 128,-1,112
 811 414 811 414 803 360.5 c 128,-1,113
 795 307 795 307 784 276 c 1,114,-1
 739 260 l 1,115,116
 698 354 698 354 673.5 477 c 128,-1,117
 649 600 649 600 649 801 c 256,50,51
EndSplineSet
Validated: 1
EndChar

StartChar: uniE035
Encoding: 57397 57397 19
Width: 870
Flags: W
LayerCount: 2
Fore
SplineSet
440 1100.5 m 28,0,1
 557.9765625 1101.97460938 557.9765625 1101.97460938 498 1036 c 28,2,3
 436.994140625 968.893554688 436.994140625 968.893554688 378 1034.5 c 28,4,5
 320 1099 320 1099 440 1100.5 c 28,0,1
346 -29 m 0,6,7
 346 -41 346 -41 337.5 -51.5 c 128,-1,8
 329 -62 329 -62 318.5 -72.5 c 128,-1,9
 308 -83 308 -83 291.5 -94.5 c 128,-1,10
 275 -106 275 -106 261 -123 c 0,11,12
 247 -139 247 -139 236 -153.5 c 128,-1,13
 225 -168 225 -168 217 -178.5 c 128,-1,14
 209 -189 209 -189 202 -194.5 c 128,-1,15
 195 -200 195 -200 185 -200 c 0,16,17
 164 -200 164 -200 148.5 -191 c 128,-1,18
 133 -182 133 -182 133 -156 c 0,19,20
 133 -128 133 -128 137.5 -104.5 c 128,-1,21
 142 -81 142 -81 153 -50 c 0,22,23
 160 -34 160 -34 169 -13.5 c 128,-1,24
 178 7 178 7 192.5 24.5 c 128,-1,25
 207 42 207 42 223 52.5 c 128,-1,26
 239 63 239 63 259 63 c 0,27,28
 277 63 277 63 303 40 c 0,29,30
 346 2 346 2 346 -29 c 0,6,7
724 -29 m 0,31,32
 724 -41 724 -41 716 -51.5 c 128,-1,33
 708 -62 708 -62 698 -72.5 c 128,-1,34
 688 -83 688 -83 672.5 -94.5 c 128,-1,35
 657 -106 657 -106 640 -123 c 0,36,37
 625 -139 625 -139 615 -153.5 c 128,-1,38
 605 -168 605 -168 597 -178.5 c 128,-1,39
 589 -189 589 -189 581.5 -194.5 c 128,-1,40
 574 -200 574 -200 565 -200 c 0,41,42
 544 -200 544 -200 528.5 -191 c 128,-1,43
 513 -182 513 -182 513 -156 c 0,44,45
 513 -128 513 -128 517.5 -104.5 c 128,-1,46
 522 -81 522 -81 531 -50 c 0,47,48
 539 -34 539 -34 549.5 -13.5 c 128,-1,49
 560 7 560 7 573 24.5 c 128,-1,50
 586 42 586 42 602.5 52.5 c 128,-1,51
 619 63 619 63 638 63 c 256,52,53
 657 63 657 63 682 40 c 0,54,55
 724 2 724 2 724 -29 c 0,31,32
308 670 m 1,56,57
 306 640 306 640 300 586 c 128,-1,58
 294 532 294 532 288 473 c 128,-1,59
 282 414 282 414 274 361 c 128,-1,60
 266 308 266 308 256 277 c 1,61,-1
 211 261 l 1,62,63
 171 355 171 355 148.5 459.5 c 128,-1,64
 126 564 126 564 117 670 c 1,65,-1
 0 670 l 1,66,-1
 0 900 l 1,67,-1
 970 900 l 1,68,-1
 970 670 l 1,69,-1
 708 670 l 1,70,71
 706 640 706 640 700 586 c 128,-1,72
 694 532 694 532 688 473 c 128,-1,73
 682 414 682 414 674 361 c 128,-1,74
 666 308 666 308 656 277 c 1,75,-1
 611 261 l 1,76,77
 571 355 571 355 548.5 459.5 c 128,-1,78
 526 564 526 564 517 670 c 1,79,-1
 308 670 l 1,56,57
EndSplineSet
EndChar

StartChar: uniE036
Encoding: 57398 57398 20
Width: 872
Flags: W
LayerCount: 2
Fore
SplineSet
872 900 m 1,0,-1
 872 670 l 1,1,-1
 654 670 l 1,2,3
 650 575 650 575 636.5 476 c 128,-1,4
 623 377 623 377 607 278 c 1,5,-1
 561 264 l 1,6,7
 536 319 536 319 518 385 c 128,-1,8
 500 451 500 451 487.5 514 c 128,-1,9
 475 577 475 577 469 629.5 c 128,-1,10
 463 682 463 682 463 710 c 2,11,-1
 463 900 l 2,12,13
 463 950 463 950 451 981 c 128,-1,14
 439 1012 439 1012 410 1012 c 0,15,16
 391 1012 391 1012 375 1009 c 128,-1,17
 359 1006 359 1006 344.5 1000 c 128,-1,18
 330 994 330 994 314.5 985 c 128,-1,19
 299 976 299 976 279 963 c 0,20,21
 248 942 248 942 231 925.5 c 128,-1,22
 214 909 214 909 206 909 c 1,23,24
 192 923 192 923 181 939 c 128,-1,25
 170 955 170 955 170 966 c 1,26,27
 184 980 184 980 201.5 1001.5 c 128,-1,28
 219 1023 219 1023 237 1043 c 0,29,30
 307 1123 307 1123 360 1165.5 c 128,-1,31
 413 1208 413 1208 453 1222 c 1,32,-1
 400 1552 l 1,33,34
 414 1564 414 1564 446.5 1573 c 128,-1,35
 479 1582 479 1582 520 1582 c 0,36,37
 563 1582 563 1582 594 1589.5 c 128,-1,38
 625 1597 625 1597 645.5 1616.5 c 128,-1,39
 666 1636 666 1636 678 1667 c 128,-1,40
 690 1698 690 1698 697 1743 c 1,41,42
 722 1710 722 1710 730 1676 c 128,-1,43
 738 1642 738 1642 738 1607 c 0,44,45
 738 1515 738 1515 689 1457.5 c 128,-1,46
 640 1400 640 1400 536 1400 c 2,47,-1
 486 1400 l 1,48,-1
 513 1223 l 1,49,50
 558 1210 558 1210 582.5 1156.5 c 128,-1,51
 607 1103 607 1103 607 1023 c 2,52,-1
 607 900 l 1,53,-1
 872 900 l 1,0,-1
EndSplineSet
Validated: 1
EndChar

StartChar: uniE037
Encoding: 57399 57399 21
Width: 489
Flags: W
LayerCount: 2
Fore
SplineSet
152 899 m 1,0,-1
 90 1294 l 1,1,2
 104 1304 104 1304 137 1314.5 c 128,-1,3
 170 1325 170 1325 211 1325 c 0,4,5
 256 1325 256 1325 286.5 1332 c 128,-1,6
 317 1339 317 1339 338.5 1359.5 c 128,-1,7
 360 1380 360 1380 371.5 1411 c 128,-1,8
 383 1442 383 1442 391 1487 c 1,9,10
 414 1452 414 1452 422 1419 c 128,-1,11
 430 1386 430 1386 430 1352 c 0,12,13
 430 1258 430 1258 381 1201.5 c 128,-1,14
 332 1145 332 1145 227 1145 c 2,15,-1
 178 1145 l 1,16,-1
 209 899 l 1,17,-1
 569 899 l 1,18,-1
 569 670 l 1,19,-1
 307 670 l 1,20,21
 305 639 305 639 300 585.5 c 128,-1,22
 295 532 295 532 289 473 c 128,-1,23
 283 414 283 414 274.5 360.5 c 128,-1,24
 266 307 266 307 256 276 c 1,25,-1
 211 260 l 1,26,27
 170 354 170 354 148.5 458.5 c 128,-1,28
 127 563 127 563 117 670 c 1,29,-1
 0 670 l 1,30,-1
 0 899 l 1,31,-1
 152 899 l 1,0,-1
EndSplineSet
Validated: 1
EndChar

StartChar: uniE038
Encoding: 57400 57400 22
Width: 1003
Flags: W
LayerCount: 2
Fore
SplineSet
856 1198 m 1,0,1
 829 1155 829 1155 797.5 1105 c 128,-1,2
 766 1055 766 1055 735.5 1001.5 c 128,-1,3
 705 948 705 948 678 893 c 0,4,5
 643 823 643 823 631 786 c 0,6,7
 611 729 611 729 589 657.5 c 128,-1,8
 567 586 567 586 552 505 c 128,-1,9
 537 424 537 424 524.5 333 c 128,-1,10
 512 242 512 242 512 141 c 1,11,12
 442 178 442 178 378.5 242.5 c 128,-1,13
 315 307 315 307 268 381 c 128,-1,14
 221 455 221 455 193.5 530.5 c 128,-1,15
 166 606 166 606 160 670 c 1,16,-1
 0 670 l 1,17,-1
 0 899 l 1,18,-1
 125 899 l 1,19,-1
 70 1294 l 1,20,21
 82 1306 82 1306 114.5 1316.5 c 128,-1,22
 147 1327 147 1327 186 1327 c 0,23,24
 231 1327 231 1327 264 1334 c 128,-1,25
 297 1341 297 1341 316.5 1361.5 c 128,-1,26
 336 1382 336 1382 348 1413 c 128,-1,27
 360 1444 360 1444 367 1489 c 1,28,29
 394 1454 394 1454 401 1420 c 128,-1,30
 408 1386 408 1386 408 1352 c 0,31,32
 408 1260 408 1260 358 1202 c 128,-1,33
 308 1144 308 1144 219 1145 c 0,34,35
 213 1145 213 1145 207 1145 c 2,36,-1
 154 1147 l 1,37,-1
 184 899 l 1,38,-1
 246 899 l 1,39,-1
 246 760 l 2,40,41
 246 713 246 713 261 655.5 c 128,-1,42
 276 598 276 598 301 541.5 c 128,-1,43
 326 485 326 485 353.5 441 c 128,-1,44
 381 397 381 397 401 377 c 1,45,46
 401 420 401 420 407.5 477.5 c 128,-1,47
 414 535 414 535 424 600.5 c 128,-1,48
 434 666 434 666 451.5 737.5 c 128,-1,49
 469 809 469 809 498 885 c 1,50,51
 531 983 531 983 550 1055.5 c 128,-1,52
 569 1128 569 1128 579.5 1182.5 c 128,-1,53
 590 1237 590 1237 593 1280 c 128,-1,54
 596 1323 596 1323 596 1370 c 0,55,56
 596 1390 596 1390 589 1424 c 128,-1,57
 582 1458 582 1458 574.5 1493 c 128,-1,58
 567 1528 567 1528 563 1555.5 c 128,-1,59
 559 1583 559 1583 559 1595 c 0,60,61
 559 1628 559 1628 568.5 1644.5 c 128,-1,62
 578 1661 578 1661 604 1661 c 0,63,64
 612 1661 612 1661 626.5 1642.5 c 128,-1,65
 641 1624 641 1624 656.5 1596.5 c 128,-1,66
 672 1569 672 1569 690 1530 c 0,67,68
 715 1475 715 1475 725 1452 c 0,69,70
 770 1368 770 1368 806 1306.5 c 128,-1,71
 842 1245 842 1245 856 1198 c 1,0,1
EndSplineSet
Validated: 33
EndChar

StartChar: uniE039
Encoding: 57401 57401 23
Width: 929
Flags: W
LayerCount: 2
Fore
SplineSet
485 1230 m 1,0,-1
 512 1405 l 1,1,-1
 462 1403 l 1,2,3
 359 1403 359 1403 310.5 1461 c 128,-1,4
 262 1519 262 1519 262 1611 c 0,5,6
 262 1643 262 1643 269 1677.5 c 128,-1,7
 276 1712 276 1712 302 1744 c 1,8,9
 307 1699 307 1699 318.5 1667.5 c 128,-1,10
 330 1636 330 1636 351.5 1617 c 128,-1,11
 373 1598 373 1598 403 1591 c 128,-1,12
 433 1584 433 1584 478 1584 c 0,13,14
 521 1584 521 1584 552.5 1576 c 128,-1,15
 584 1568 584 1568 599 1553 c 1,16,-1
 543 1218 l 1,17,18
 568 1204 568 1204 586 1174 c 0,19,20
 617 1118 617 1118 617 1026 c 2,21,-1
 617 900 l 1,22,-1
 929 900 l 1,23,-1
 929 670 l 1,24,-1
 662 670 l 1,25,26
 660 572 660 572 647 473.5 c 128,-1,27
 634 375 634 375 617 273 c 1,28,-1
 570 262 l 1,29,30
 544 316 544 316 526.5 382 c 128,-1,31
 509 448 509 448 496 513 c 128,-1,32
 483 578 483 578 477 631 c 128,-1,33
 471 684 471 684 471 709 c 2,34,-1
 471 900 l 2,35,36
 471 952 471 952 459.5 983.5 c 128,-1,37
 448 1015 448 1015 420 1015 c 0,38,39
 399 1015 399 1015 382.5 1011.5 c 128,-1,40
 366 1008 366 1008 351.5 1001 c 128,-1,41
 337 994 337 994 322 986 c 128,-1,42
 307 978 307 978 287 963 c 0,43,44
 258 943 258 943 240 926 c 128,-1,45
 222 909 222 909 213 909 c 1,46,47
 198 924 198 924 187.5 939 c 128,-1,48
 177 954 177 954 177 966 c 1,49,50
 191 981 191 981 208.5 1003.5 c 128,-1,51
 226 1026 226 1026 243 1044 c 0,52,53
 330 1141 330 1141 391 1186 c 0,54,55
 445 1225 445 1225 485 1230 c 1,0,-1
EndSplineSet
Validated: 1
EndChar

StartChar: uniE03A
Encoding: 57402 57402 24
Width: 468
Flags: W
LayerCount: 2
Fore
SplineSet
219 899 m 1,0,-1
 260 1145 l 1,1,-1
 211 1145 l 2,2,3
 107 1145 107 1145 57.5 1201 c 128,-1,4
 8 1257 8 1257 8 1350 c 0,5,6
 8 1389 8 1389 15.5 1420.5 c 128,-1,7
 23 1452 23 1452 47 1487 c 1,8,9
 53 1442 53 1442 65.5 1411 c 128,-1,10
 78 1380 78 1380 98.5 1359.5 c 128,-1,11
 119 1339 119 1339 150.5 1332 c 128,-1,12
 182 1325 182 1325 227 1325 c 0,13,14
 268 1325 268 1325 300 1316 c 128,-1,15
 332 1307 332 1307 344 1294 c 1,16,-1
 279 899 l 1,17,-1
 569 899 l 1,18,-1
 569 670 l 1,19,-1
 307 670 l 1,20,21
 305 639 305 639 299 585.5 c 128,-1,22
 293 532 293 532 287 473 c 128,-1,23
 281 414 281 414 272.5 360.5 c 128,-1,24
 264 307 264 307 256 276 c 1,25,-1
 211 260 l 1,26,27
 170 354 170 354 147.5 458.5 c 128,-1,28
 125 563 125 563 117 670 c 1,29,-1
 0 670 l 1,30,-1
 0 899 l 1,31,-1
 219 899 l 1,0,-1
EndSplineSet
Validated: 1
EndChar

StartChar: uniE03B
Encoding: 57403 57403 25
Width: 903
Flags: W
LayerCount: 2
Fore
SplineSet
727 1376 m 0,0,1
 723 1343 723 1343 703.5 1301.5 c 128,-1,2
 684 1260 684 1260 660.5 1207.5 c 128,-1,3
 637 1155 637 1155 609.5 1094.5 c 128,-1,4
 582 1034 582 1034 557 963.5 c 128,-1,5
 532 893 532 893 517 812 c 128,-1,6
 502 731 502 731 502 645 c 0,7,8
 502 569 502 569 507 493.5 c 128,-1,9
 512 418 512 418 522 348.5 c 128,-1,10
 532 279 532 279 543.5 220.5 c 128,-1,11
 555 162 555 162 565 125 c 1,12,13
 508 139 508 139 458 174 c 128,-1,14
 408 209 408 209 363.5 256 c 128,-1,15
 319 303 319 303 284.5 358.5 c 128,-1,16
 250 414 250 414 222.5 469 c 128,-1,17
 195 524 195 524 179.5 577.5 c 128,-1,18
 164 631 164 631 160 670 c 1,19,-1
 0 670 l 1,20,-1
 0 899 l 1,21,-1
 248 899 l 1,22,-1
 248 760 l 2,23,24
 248 713 248 713 265.5 655.5 c 128,-1,25
 283 598 283 598 308.5 542.5 c 128,-1,26
 334 487 334 487 362.5 442 c 128,-1,27
 391 397 391 397 412 379 c 1,28,29
 412 399 412 399 411 429 c 128,-1,30
 410 459 410 459 410 496 c 0,31,32
 410 533 410 533 408 570.5 c 128,-1,33
 406 608 406 608 406 645 c 0,34,35
 406 729 406 729 418 813 c 128,-1,36
 430 897 430 897 452.5 974 c 128,-1,37
 475 1051 475 1051 500.5 1116.5 c 128,-1,38
 526 1182 526 1182 553 1229 c 1,39,-1
 418 1229 l 2,40,41
 209 1229 209 1229 176 1616 c 1,42,-1
 207 1616 l 1,43,44
 246 1473 246 1473 453 1458 c 1,45,-1
 608 1458 l 2,46,47
 667 1458 667 1458 700 1442 c 0,48,49
 729 1428 729 1428 727 1389 c 0,50,51
 727 1382 727 1382 727 1376 c 0,0,1
EndSplineSet
Validated: 1
EndChar

StartChar: uniE03C
Encoding: 57404 57404 26
Width: 1076
Flags: W
LayerCount: 2
Fore
SplineSet
809 670 m 1,0,1
 807 572 807 572 794 473.5 c 128,-1,2
 781 375 781 375 764 273 c 1,3,-1
 717 262 l 1,4,5
 691 316 691 316 673.5 382 c 128,-1,6
 656 448 656 448 643 513 c 128,-1,7
 630 578 630 578 626 800 c 0,8,9
 626 874 626 874 629 944 c 128,-1,10
 632 1014 632 1014 635.5 1052 c 128,-1,11
 639 1090 639 1090 641 1119 c 2,12,-1
 642 1136 l 1,13,-1
 642 1138 l 2,14,15
 642 1150 642 1150 637 1150 c 0,16,17
 626 1150 626 1150 611 1120 c 128,-1,18
 596 1090 596 1090 586 1056 c 128,-1,19
 576 1022 576 1022 554 965 c 0,20,21
 511 840 511 840 455 767 c 128,-1,22
 399 694 399 694 331 694 c 0,23,24
 288 694 288 694 253.5 712 c 128,-1,25
 219 730 219 730 195.5 761.5 c 128,-1,26
 172 793 172 793 160.5 837 c 128,-1,27
 149 881 149 881 149 932 c 0,28,29
 149 953 149 953 153.5 971 c 128,-1,30
 158 989 158 989 180 989 c 0,31,32
 192 989 192 989 203.5 973.5 c 128,-1,33
 215 958 215 958 232.5 940.5 c 128,-1,34
 250 923 250 923 273.5 908.5 c 128,-1,35
 297 894 297 894 331 894 c 0,36,37
 399 894 399 894 441.5 946 c 128,-1,38
 484 998 484 998 511 1097 c 0,39,40
 545 1231 545 1231 581.5 1302 c 128,-1,41
 618 1373 618 1373 649 1373 c 0,42,43
 674 1373 674 1373 691 1356 c 128,-1,44
 708 1339 708 1339 718.5 1317 c 128,-1,45
 729 1295 729 1295 734 1270 c 128,-1,46
 739 1245 739 1245 739 1227 c 0,47,48
 739 1200 739 1200 732.5 1075 c 128,-1,49
 726 950 726 950 726 900 c 1,50,-1
 1076 900 l 1,51,-1
 1076 670 l 1,52,-1
 809 670 l 1,0,1
EndSplineSet
Validated: 1
EndChar

StartChar: uniE03D
Encoding: 57405 57405 27
Width: 821
Flags: W
LayerCount: 2
Fore
SplineSet
440 1217 m 1,0,1
 426 1217 426 1217 405.5 1188 c 128,-1,2
 385 1159 385 1159 362.5 1113 c 128,-1,3
 340 1067 340 1067 317.5 1004.5 c 128,-1,4
 295 942 295 942 274 877 c 0,5,6
 260 824 260 824 251 765.5 c 128,-1,7
 242 707 242 707 235.5 654.5 c 128,-1,8
 229 602 229 602 226 562 c 128,-1,9
 223 522 223 522 223 506 c 0,10,11
 223 453 223 453 226 401.5 c 128,-1,12
 229 350 229 350 240 299 c 1,13,-1
 201 266 l 1,14,15
 111 385 111 385 92 670 c 1,16,-1
 0 670 l 1,17,-1
 0 899 l 1,18,-1
 147 899 l 1,19,20
 165 958 165 958 193 1020 c 0,21,22
 218 1077 218 1077 244 1129.5 c 128,-1,23
 270 1182 270 1182 299 1227 c 0,24,25
 336 1284 336 1284 356 1305 c 0,26,27
 463 1418 463 1418 514 1417 c 0,28,29
 515 1417 515 1417 516 1417 c 0,30,31
 534 1417 534 1417 544.5 1403 c 128,-1,32
 555 1389 555 1389 558 1346 c 128,-1,33
 561 1303 561 1303 562 1180 c 128,-1,34
 563 1057 563 1057 567 899 c 1,35,-1
 920 899 l 1,36,-1
 920 670 l 1,37,-1
 657 670 l 1,38,39
 655 639 655 639 649 585.5 c 128,-1,40
 643 532 643 532 638 473 c 128,-1,41
 633 414 633 414 624.5 360.5 c 128,-1,42
 616 307 616 307 606 276 c 1,43,-1
 561 260 l 1,44,45
 520 354 520 354 497.5 458.5 c 128,-1,46
 475 563 475 563 473 663.5 c 128,-1,47
 471 764 471 764 468 939 c 128,-1,48
 465 1114 465 1114 457.5 1159.5 c 128,-1,49
 450 1205 450 1205 440 1217 c 1,0,1
EndSplineSet
Validated: 33
EndChar

StartChar: uniE03E
Encoding: 57406 57406 28
Width: 1132
Flags: W
LayerCount: 2
Fore
SplineSet
152 899 m 1,0,1
 170 960 170 960 193.5 1020.5 c 128,-1,2
 217 1081 217 1081 244.5 1134.5 c 128,-1,3
 272 1188 272 1188 302 1232 c 128,-1,4
 332 1276 332 1276 360 1309 c 0,5,6
 471 1426 471 1426 522 1425 c 0,7,8
 538 1425 538 1425 547.5 1408 c 128,-1,9
 557 1391 557 1391 557 1360 c 0,10,11
 557 1354 557 1354 557 1321 c 0,12,13
 555 1266 555 1266 555 1235 c 2,14,-1
 555 1118 l 2,15,16
 555 1067 555 1067 559 983 c 0,17,18
 563 915 563 915 574.5 846.5 c 128,-1,19
 586 778 586 778 606 721 c 1,20,21
 626 780 626 780 660 845.5 c 128,-1,22
 694 911 694 911 730 975.5 c 128,-1,23
 766 1040 766 1040 803 1100 c 0,24,25
 819 1127 819 1127 874 1206 c 0,26,27
 919 1272 919 1272 942 1298 c 0,28,29
 971 1331 971 1331 981 1329 c 0,30,31
 989 1329 989 1329 1000.5 1324 c 128,-1,32
 1012 1319 1012 1319 1012 1298 c 0,33,34
 1012 1288 1012 1288 1000.5 1259.5 c 128,-1,35
 989 1231 989 1231 969 1190 c 0,36,37
 934 1116 934 1116 893 1027 c 128,-1,38
 852 938 852 938 814 840.5 c 128,-1,39
 776 743 776 743 752.5 641 c 128,-1,40
 729 539 729 539 729 438 c 0,41,42
 729 405 729 405 730 374.5 c 128,-1,43
 731 344 731 344 731 274 c 1,44,-1
 674 342 l 2,45,46
 611 416 611 416 569.5 506 c 128,-1,47
 528 596 528 596 503.5 689 c 128,-1,48
 479 782 479 782 468 870 c 128,-1,49
 457 958 457 958 451.5 1031 c 128,-1,50
 446 1104 446 1104 446 1153 c 0,51,52
 446 1204 446 1204 444 1223 c 1,53,54
 428 1223 428 1223 406.5 1192 c 128,-1,55
 385 1161 385 1161 363.5 1115 c 128,-1,56
 342 1069 342 1069 319 1006 c 0,57,58
 290 924 290 924 276 879 c 0,59,60
 264 836 264 836 254 766 c 0,61,62
 244 707 244 707 236.5 654.5 c 128,-1,63
 229 602 229 602 227 561 c 128,-1,64
 225 520 225 520 225 504 c 0,65,66
 225 451 225 451 227 399.5 c 128,-1,67
 229 348 229 348 240 297 c 1,68,-1
 203 262 l 1,69,70
 115 385 115 385 92 670 c 1,71,-1
 0 670 l 1,72,-1
 0 899 l 1,73,-1
 152 899 l 1,0,1
EndSplineSet
Validated: 33
EndChar

StartChar: uniE03F
Encoding: 57407 57407 29
Width: 1081
Flags: W
LayerCount: 2
Fore
SplineSet
641 1645 m 0,0,1
 641 1635 641 1635 635 1625.5 c 128,-1,2
 629 1616 629 1616 617.5 1605.5 c 128,-1,3
 606 1595 606 1595 592 1585 c 128,-1,4
 578 1575 578 1575 563 1559 c 0,5,6
 553 1545 553 1545 542.5 1533.5 c 128,-1,7
 532 1522 532 1522 526 1510.5 c 128,-1,8
 520 1499 520 1499 513 1494 c 128,-1,9
 506 1489 506 1489 496 1489 c 0,10,11
 478 1489 478 1489 464.5 1499 c 128,-1,12
 451 1509 451 1509 451 1530 c 0,13,14
 451 1557 451 1557 455 1577 c 128,-1,15
 459 1597 459 1597 469 1624 c 0,16,17
 475 1640 475 1640 483.5 1659.5 c 128,-1,18
 492 1679 492 1679 504 1694.5 c 128,-1,19
 516 1710 516 1710 530.5 1719.5 c 128,-1,20
 545 1729 545 1729 561 1729 c 0,21,22
 579 1729 579 1729 604 1706 c 0,23,24
 641 1674 641 1674 641 1645 c 0,0,1
930 1645 m 0,25,26
 930 1635 930 1635 922.5 1625.5 c 128,-1,27
 915 1616 915 1616 904 1605.5 c 128,-1,28
 893 1595 893 1595 879.5 1585 c 128,-1,29
 866 1575 866 1575 852 1559 c 0,30,31
 840 1545 840 1545 830.5 1533.5 c 128,-1,32
 821 1522 821 1522 814 1510.5 c 128,-1,33
 807 1499 807 1499 800 1494 c 128,-1,34
 793 1489 793 1489 782 1489 c 0,35,36
 764 1489 764 1489 750.5 1499 c 128,-1,37
 737 1509 737 1509 737 1530 c 0,38,39
 737 1557 737 1557 741 1577 c 128,-1,40
 745 1597 745 1597 756 1624 c 0,41,42
 762 1640 762 1640 770 1659.5 c 128,-1,43
 778 1679 778 1679 791.5 1694.5 c 128,-1,44
 805 1710 805 1710 818 1719.5 c 128,-1,45
 831 1729 831 1729 850 1729 c 256,46,47
 868 1729 868 1729 891 1706 c 0,48,49
 930 1674 930 1674 930 1645 c 0,25,26
815 670 m 1,50,51
 813 572 813 572 799.5 473.5 c 128,-1,52
 786 375 786 375 770 272 c 1,53,-1
 723 262 l 1,54,55
 696 315 696 315 679 382 c 128,-1,56
 662 449 662 449 649.5 513.5 c 128,-1,57
 637 578 637 578 633 801 c 0,58,59
 633 875 633 875 636 944.5 c 128,-1,60
 639 1014 639 1014 642 1052 c 128,-1,61
 645 1090 645 1090 647 1118 c 2,62,-1
 647 1137 l 1,63,-1
 647 1139 l 2,64,65
 647 1151 647 1151 643 1151 c 0,66,67
 633 1151 633 1151 617.5 1120.5 c 128,-1,68
 602 1090 602 1090 592 1056 c 128,-1,69
 582 1022 582 1022 559 965 c 0,70,71
 516 840 516 840 461 767 c 128,-1,72
 406 694 406 694 338 694 c 0,73,74
 295 694 295 694 260 711.5 c 128,-1,75
 225 729 225 729 201.5 761 c 128,-1,76
 178 793 178 793 167 837 c 128,-1,77
 156 881 156 881 156 932 c 0,78,79
 156 952 156 952 160 970.5 c 128,-1,80
 164 989 164 989 186 989 c 0,81,82
 198 989 198 989 209.5 973.5 c 128,-1,83
 221 958 221 958 238.5 941 c 128,-1,84
 256 924 256 924 279.5 909.5 c 128,-1,85
 303 895 303 895 338 895 c 0,86,87
 406 895 406 895 447.5 946 c 128,-1,88
 489 997 489 997 516 1098 c 0,89,90
 551 1231 551 1231 588 1301.5 c 128,-1,91
 625 1372 625 1372 655 1372 c 0,92,93
 680 1372 680 1372 697.5 1355.5 c 128,-1,94
 715 1339 715 1339 725 1316.5 c 128,-1,95
 735 1294 735 1294 740 1269.5 c 128,-1,96
 745 1245 745 1245 745 1227 c 0,97,98
 745 1200 745 1200 738 1075 c 128,-1,99
 731 950 731 950 731 899 c 1,100,-1
 1081 899 l 1,101,-1
 1081 670 l 1,102,-1
 815 670 l 1,50,51
EndSplineSet
Validated: 1
EndChar

StartChar: uniE040
Encoding: 57408 57408 30
Width: 823
Flags: W
LayerCount: 2
Fore
SplineSet
477 1645 m 0,0,1
 477 1635 477 1635 471 1625.5 c 128,-1,2
 465 1616 465 1616 454.5 1605.5 c 128,-1,3
 444 1595 444 1595 430 1585 c 128,-1,4
 416 1575 416 1575 401 1559 c 0,5,6
 391 1545 391 1545 381 1533.5 c 128,-1,7
 371 1522 371 1522 363.5 1510.5 c 128,-1,8
 356 1499 356 1499 349 1494 c 128,-1,9
 342 1489 342 1489 332 1489 c 0,10,11
 314 1489 314 1489 301.5 1499 c 128,-1,12
 289 1509 289 1509 289 1530 c 0,13,14
 289 1557 289 1557 293 1577 c 128,-1,15
 297 1597 297 1597 305 1624 c 0,16,17
 311 1640 311 1640 319.5 1659.5 c 128,-1,18
 328 1679 328 1679 341 1694.5 c 128,-1,19
 354 1710 354 1710 368.5 1719.5 c 128,-1,20
 383 1729 383 1729 399 1729 c 0,21,22
 417 1729 417 1729 442 1706 c 0,23,24
 477 1674 477 1674 477 1645 c 0,0,1
766 1645 m 0,25,26
 766 1635 766 1635 759 1625.5 c 128,-1,27
 752 1616 752 1616 740.5 1605.5 c 128,-1,28
 729 1595 729 1595 715.5 1585 c 128,-1,29
 702 1575 702 1575 688 1559 c 0,30,31
 676 1545 676 1545 666.5 1533.5 c 128,-1,32
 657 1522 657 1522 650 1510.5 c 128,-1,33
 643 1499 643 1499 636 1494 c 128,-1,34
 629 1489 629 1489 621 1489 c 0,35,36
 603 1489 603 1489 589 1499 c 128,-1,37
 575 1509 575 1509 575 1530 c 0,38,39
 575 1557 575 1557 578.5 1577 c 128,-1,40
 582 1597 582 1597 592 1624 c 0,41,42
 598 1640 598 1640 606 1659.5 c 128,-1,43
 614 1679 614 1679 627.5 1694.5 c 128,-1,44
 641 1710 641 1710 655.5 1719.5 c 128,-1,45
 670 1729 670 1729 686 1729 c 256,46,47
 704 1729 704 1729 727 1706 c 0,48,49
 766 1674 766 1674 766 1645 c 0,25,26
440 1217 m 1,50,51
 426 1217 426 1217 405.5 1188 c 128,-1,52
 385 1159 385 1159 361.5 1113 c 128,-1,53
 338 1067 338 1067 315.5 1004.5 c 128,-1,54
 293 942 293 942 274 877 c 0,55,56
 260 824 260 824 250 765.5 c 128,-1,57
 240 707 240 707 233.5 654.5 c 128,-1,58
 227 602 227 602 225 562 c 128,-1,59
 223 522 223 522 223 506 c 0,60,61
 223 453 223 453 226 401.5 c 128,-1,62
 229 350 229 350 238 299 c 1,63,-1
 201 266 l 1,64,65
 111 385 111 385 92 670 c 1,66,-1
 0 670 l 1,67,-1
 0 899 l 1,68,-1
 147 899 l 1,69,70
 165 958 165 958 190 1020 c 0,71,72
 215 1077 215 1077 241.5 1129.5 c 128,-1,73
 268 1182 268 1182 299 1227 c 0,74,75
 336 1284 336 1284 354 1305 c 0,76,77
 461 1418 461 1418 514 1417 c 0,78,79
 515 1417 515 1417 516 1417 c 0,80,81
 534 1417 534 1417 543.5 1403 c 128,-1,82
 553 1389 553 1389 557 1346 c 128,-1,83
 561 1303 561 1303 561 1180 c 128,-1,84
 561 1057 561 1057 565 899 c 1,85,-1
 920 899 l 1,86,-1
 920 670 l 1,87,-1
 657 670 l 1,88,89
 655 639 655 639 649 585.5 c 128,-1,90
 643 532 643 532 637 473 c 128,-1,91
 631 414 631 414 622.5 360.5 c 128,-1,92
 614 307 614 307 604 276 c 1,93,-1
 559 260 l 1,94,95
 518 354 518 354 496.5 458.5 c 128,-1,96
 475 563 475 563 473 663.5 c 128,-1,97
 471 764 471 764 467 939 c 128,-1,98
 463 1114 463 1114 456.5 1159.5 c 128,-1,99
 450 1205 450 1205 440 1217 c 1,50,51
EndSplineSet
Validated: 33
EndChar

StartChar: uniE041
Encoding: 57409 57409 31
Width: 1163
Flags: W
LayerCount: 2
Fore
SplineSet
152 899 m 5,0,1
 170 960 170 960 193.5 1020.5 c 132,-1,2
 217 1081 217 1081 244.5 1134.5 c 132,-1,3
 272 1188 272 1188 302 1232 c 132,-1,4
 332 1276 332 1276 360 1309 c 4,5,6
 471 1426 471 1426 522 1425 c 4,7,8
 538 1425 538 1425 547.5 1408 c 132,-1,9
 557 1391 557 1391 557 1360 c 4,10,11
 557 1354 557 1354 557 1321 c 4,12,13
 555 1266 555 1266 555 1235 c 6,14,-1
 555 1118 l 6,15,16
 555 1067 555 1067 559 983 c 4,17,18
 563 915 563 915 574.5 846.5 c 132,-1,19
 586 778 586 778 606 721 c 5,20,21
 626 780 626 780 660 845.5 c 132,-1,22
 694 911 694 911 730 975.5 c 132,-1,23
 766 1040 766 1040 803 1100 c 4,24,25
 819 1127 819 1127 874 1206 c 4,26,27
 919 1272 919 1272 942 1298 c 4,28,29
 971 1331 971 1331 981 1329 c 4,30,31
 989 1329 989 1329 1000.5 1324 c 132,-1,32
 1012 1319 1012 1319 1012 1298 c 4,33,34
 1012 1288 1012 1288 1000.5 1259.5 c 132,-1,35
 989 1231 989 1231 969 1190 c 4,36,37
 934 1116 934 1116 893 1027 c 132,-1,38
 852 938 852 938 814 840.5 c 132,-1,39
 776 743 776 743 752.5 641 c 132,-1,40
 729 539 729 539 729 438 c 4,41,42
 729 405 729 405 730 374.5 c 132,-1,43
 731 344 731 344 735 317 c 5,44,-1
 674 342 l 5,45,46
 611 416 611 416 569.5 506 c 132,-1,47
 528 596 528 596 503.5 689 c 132,-1,48
 479 782 479 782 468 870 c 132,-1,49
 457 958 457 958 451.5 1031 c 132,-1,50
 446 1104 446 1104 446 1153 c 4,51,52
 446 1204 446 1204 444 1223 c 5,53,54
 428 1223 428 1223 406.5 1192 c 132,-1,55
 385 1161 385 1161 363.5 1115 c 132,-1,56
 342 1069 342 1069 319 1006 c 4,57,58
 290 924 290 924 276 879 c 4,59,60
 264 836 264 836 254 766 c 4,61,62
 244 707 244 707 236.5 654.5 c 132,-1,63
 229 602 229 602 227 561 c 132,-1,64
 225 520 225 520 225 504 c 4,65,66
 225 451 225 451 227 399.5 c 132,-1,67
 229 348 229 348 240 297 c 5,68,-1
 203 262 l 5,69,70
 115 385 115 385 92 670 c 5,71,-1
 0 670 l 5,72,-1
 0 899 l 5,73,-1
 152 899 l 5,0,1
479 1645 m 4,74,75
 479 1635 479 1635 473 1625.5 c 132,-1,76
 467 1616 467 1616 455.5 1605.5 c 132,-1,77
 444 1595 444 1595 430 1585 c 132,-1,78
 416 1575 416 1575 401 1559 c 4,79,80
 391 1545 391 1545 381 1533.5 c 132,-1,81
 371 1522 371 1522 364.5 1510.5 c 132,-1,82
 358 1499 358 1499 351 1494 c 132,-1,83
 344 1489 344 1489 334 1489 c 4,84,85
 316 1489 316 1489 302.5 1499 c 132,-1,86
 289 1509 289 1509 289 1530 c 4,87,88
 289 1557 289 1557 293 1577 c 132,-1,89
 297 1597 297 1597 305 1624 c 4,90,91
 311 1640 311 1640 320.5 1659.5 c 132,-1,92
 330 1679 330 1679 342 1694.5 c 132,-1,93
 354 1710 354 1710 368.5 1719.5 c 132,-1,94
 383 1729 383 1729 399 1729 c 4,95,96
 417 1729 417 1729 442 1706 c 4,97,98
 479 1674 479 1674 479 1645 c 4,74,75
768 1645 m 4,99,100
 768 1635 768 1635 761 1625.5 c 132,-1,101
 754 1616 754 1616 742.5 1605.5 c 132,-1,102
 731 1595 731 1595 718 1585 c 132,-1,103
 705 1575 705 1575 690 1559 c 4,104,105
 678 1545 678 1545 668.5 1533.5 c 132,-1,106
 659 1522 659 1522 652 1510.5 c 132,-1,107
 645 1499 645 1499 638 1494 c 132,-1,108
 631 1489 631 1489 621 1489 c 4,109,110
 603 1489 603 1489 589 1499 c 132,-1,111
 575 1509 575 1509 575 1530 c 4,112,113
 575 1557 575 1557 579.5 1577 c 132,-1,114
 584 1597 584 1597 594 1624 c 4,115,116
 600 1640 600 1640 608 1659.5 c 132,-1,117
 616 1679 616 1679 629.5 1694.5 c 132,-1,118
 643 1710 643 1710 656.5 1719.5 c 132,-1,119
 670 1729 670 1729 688 1729 c 260,120,121
 706 1729 706 1729 729 1706 c 4,122,123
 768 1674 768 1674 768 1645 c 4,99,100
EndSplineSet
Validated: 33
EndChar

StartChar: uniE042
Encoding: 57410 57410 32
Width: 1093
Flags: W
LayerCount: 2
Fore
SplineSet
709 897 m 0,0,1
 709 991 709 991 665 1049.5 c 128,-1,2
 621 1108 621 1108 541 1108 c 0,3,4
 494 1108 494 1108 456 1083.5 c 128,-1,5
 418 1059 418 1059 387 1025 c 128,-1,6
 356 991 356 991 327.5 953 c 128,-1,7
 299 915 299 915 260 893 c 1,8,9
 295 879 295 879 325.5 846 c 128,-1,10
 356 813 356 813 389 781.5 c 128,-1,11
 422 750 422 750 460 725 c 128,-1,12
 498 700 498 700 541 700 c 0,13,14
 615 700 615 700 662 750.5 c 128,-1,15
 709 801 709 801 709 897 c 0,0,1
739 662 m 1,16,17
 708 631 708 631 686 614 c 0,18,19
 657 591 657 591 631.5 577 c 128,-1,20
 606 563 606 563 580.5 559 c 128,-1,21
 555 555 555 555 541 555 c 0,22,23
 514 555 514 555 487.5 558 c 128,-1,24
 461 561 461 561 435.5 574.5 c 128,-1,25
 410 588 410 588 385 611.5 c 128,-1,26
 360 635 360 635 340 670 c 0,27,28
 309 717 309 717 286.5 749.5 c 128,-1,29
 264 782 264 782 242.5 805.5 c 128,-1,30
 221 829 221 829 201.5 845.5 c 128,-1,31
 182 862 182 862 117 885 c 1,32,33
 174 924 174 924 207 958.5 c 128,-1,34
 240 993 240 993 254 1015.5 c 128,-1,35
 268 1038 268 1038 289 1069 c 0,36,37
 322 1126 322 1126 354.5 1160 c 128,-1,38
 387 1194 387 1194 418 1216.5 c 128,-1,39
 449 1239 449 1239 478.5 1246 c 128,-1,40
 508 1253 508 1253 541 1253 c 0,41,42
 590 1253 590 1253 638 1230.5 c 128,-1,43
 686 1208 686 1208 723 1164 c 128,-1,44
 760 1120 760 1120 782.5 1054.5 c 128,-1,45
 805 989 805 989 807 899 c 1,46,-1
 1194 899 l 1,47,-1
 1194 670 l 1,48,-1
 930 670 l 1,49,50
 928 639 928 639 921.5 585.5 c 128,-1,51
 915 532 915 532 909 473 c 128,-1,52
 903 414 903 414 896 360.5 c 128,-1,53
 889 307 889 307 879 276 c 1,54,-1
 834 260 l 1,55,56
 793 354 793 354 770 461 c 0,57,58
 749 562 749 562 739 662 c 1,16,17
EndSplineSet
Validated: 1
EndChar

StartChar: uniE043
Encoding: 57411 57411 33
Width: 999
Flags: W
LayerCount: 2
Fore
SplineSet
616 897 m 0,0,1
 616 991 616 991 572 1049.5 c 128,-1,2
 528 1108 528 1108 449 1108 c 0,3,4
 402 1108 402 1108 364 1083.5 c 128,-1,5
 326 1059 326 1059 295 1025 c 128,-1,6
 264 991 264 991 235.5 953 c 128,-1,7
 207 915 207 915 168 893 c 1,8,9
 203 879 203 879 233.5 846 c 128,-1,10
 264 813 264 813 297 781.5 c 128,-1,11
 330 750 330 750 368 725 c 128,-1,12
 406 700 406 700 449 700 c 0,13,14
 523 700 523 700 569.5 750.5 c 128,-1,15
 616 801 616 801 616 897 c 0,0,1
0 670 m 1,16,-1
 0 899 l 1,17,-1
 47 899 l 1,18,19
 90 930 90 930 115 958 c 0,20,21
 148 993 148 993 162 1015.5 c 128,-1,22
 176 1038 176 1038 197 1069 c 0,23,24
 230 1126 230 1126 262.5 1160 c 128,-1,25
 295 1194 295 1194 325.5 1216.5 c 128,-1,26
 356 1239 356 1239 386 1246 c 128,-1,27
 416 1253 416 1253 449 1253 c 0,28,29
 498 1253 498 1253 546 1230.5 c 128,-1,30
 594 1208 594 1208 631 1164 c 128,-1,31
 668 1120 668 1120 690.5 1054.5 c 128,-1,32
 713 989 713 989 715 899 c 1,33,-1
 1100 899 l 1,34,-1
 1100 670 l 1,35,-1
 838 670 l 1,36,37
 836 639 836 639 829.5 585.5 c 128,-1,38
 823 532 823 532 817 473 c 128,-1,39
 811 414 811 414 804 360.5 c 128,-1,40
 797 307 797 307 786 276 c 1,41,-1
 741 260 l 1,42,43
 700 354 700 354 680 461 c 0,44,45
 660 561 660 561 647 662 c 1,46,47
 616 631 616 631 594 614 c 0,48,49
 565 591 565 591 539.5 577 c 128,-1,50
 514 563 514 563 489.5 559 c 128,-1,51
 465 555 465 555 449 555 c 0,52,53
 422 555 422 555 395.5 558 c 128,-1,54
 369 561 369 561 343 574.5 c 128,-1,55
 317 588 317 588 292.5 611.5 c 128,-1,56
 268 635 268 635 248 670 c 0,57,58
 248 670 l 2,59,-1
 0 670 l 1,16,-1
EndSplineSet
Validated: 5
EndChar

StartChar: uniE044
Encoding: 57412 57412 34
Width: 1398
Flags: W
LayerCount: 2
Fore
SplineSet
616 897 m 0,0,1
 616 991 616 991 572 1049.5 c 128,-1,2
 528 1108 528 1108 449 1108 c 0,3,4
 402 1108 402 1108 364 1083.5 c 128,-1,5
 326 1059 326 1059 295 1025 c 128,-1,6
 264 991 264 991 235.5 953 c 128,-1,7
 207 915 207 915 168 893 c 1,8,9
 203 879 203 879 233.5 846 c 128,-1,10
 264 813 264 813 297 781.5 c 128,-1,11
 330 750 330 750 368 725 c 128,-1,12
 406 700 406 700 449 700 c 0,13,14
 523 700 523 700 569.5 750.5 c 128,-1,15
 616 801 616 801 616 897 c 0,0,1
838 670 m 1,16,17
 836 639 836 639 829.5 585.5 c 128,-1,18
 823 532 823 532 817 473 c 128,-1,19
 811 414 811 414 804 360.5 c 128,-1,20
 797 307 797 307 786 276 c 1,21,-1
 741 260 l 1,22,23
 700 354 700 354 680 461 c 0,24,25
 660 561 660 561 647 662 c 1,26,27
 616 631 616 631 594 614 c 0,28,29
 565 591 565 591 539.5 577 c 128,-1,30
 514 563 514 563 489.5 559 c 128,-1,31
 465 555 465 555 449 555 c 0,32,33
 422 555 422 555 395.5 558 c 128,-1,34
 369 561 369 561 343 574.5 c 128,-1,35
 317 588 317 588 292.5 611.5 c 128,-1,36
 268 635 268 635 248 670 c 0,37,38
 248 670 l 2,39,-1
 0 670 l 1,40,-1
 0 899 l 1,41,-1
 47 899 l 1,42,43
 90 930 90 930 115 958 c 0,44,45
 148 993 148 993 162 1015.5 c 128,-1,46
 176 1038 176 1038 197 1069 c 0,47,48
 230 1126 230 1126 262.5 1160 c 128,-1,49
 295 1194 295 1194 325.5 1216.5 c 128,-1,50
 356 1239 356 1239 386 1246 c 128,-1,51
 416 1253 416 1253 449 1253 c 0,52,53
 498 1253 498 1253 546 1230.5 c 128,-1,54
 594 1208 594 1208 631 1164 c 128,-1,55
 668 1120 668 1120 690.5 1054.5 c 128,-1,56
 713 989 713 989 715 899 c 1,57,-1
 1128 899 l 1,58,59
 1220 893 1220 893 1274.5 822.5 c 128,-1,60
 1329 752 1329 752 1329 633 c 2,61,-1
 1329 512 l 2,62,63
 1329 440 1329 440 1304.5 396 c 128,-1,64
 1280 352 1280 352 1241 352 c 1,65,-1
 1241 375 l 2,66,67
 1241 510 1241 510 1191 588 c 128,-1,68
 1141 666 1141 666 1040 670 c 1,69,-1
 838 670 l 1,16,17
EndSplineSet
Validated: 5
EndChar

StartChar: uniE045
Encoding: 57413 57413 35
Width: 825
Flags: W
LayerCount: 2
Fore
SplineSet
332 240 m 1,0,1
 342 209 342 209 360.5 182.5 c 128,-1,2
 379 156 379 156 400.5 134.5 c 128,-1,3
 422 113 422 113 446.5 100.5 c 128,-1,4
 471 88 471 88 500 88 c 0,5,6
 523 88 523 88 546 97 c 128,-1,7
 569 106 569 106 586.5 122.5 c 128,-1,8
 604 139 604 139 613.5 164.5 c 128,-1,9
 623 190 623 190 623 225 c 0,10,11
 623 258 623 258 614.5 290 c 128,-1,12
 606 322 606 322 589.5 346.5 c 128,-1,13
 573 371 573 371 551.5 388.5 c 128,-1,14
 530 406 530 406 502 406 c 0,15,16
 469 406 469 406 441.5 387.5 c 128,-1,17
 414 369 414 369 390.5 344 c 128,-1,18
 367 319 367 319 351.5 291 c 128,-1,19
 336 263 336 263 332 240 c 1,0,1
926 899 m 1,20,-1
 926 670 l 1,21,-1
 211 670 l 1,22,23
 213 643 213 643 222 598 c 128,-1,24
 231 553 231 553 243.5 507 c 128,-1,25
 256 461 256 461 267.5 417 c 128,-1,26
 279 373 279 373 291 350 c 1,27,28
 301 377 301 377 321.5 402.5 c 128,-1,29
 342 428 342 428 370.5 449.5 c 128,-1,30
 399 471 399 471 432 485.5 c 128,-1,31
 465 500 465 500 502 500 c 0,32,33
 600 500 600 500 650 426 c 128,-1,34
 700 352 700 352 700 225 c 0,35,36
 700 147 700 147 685 93 c 128,-1,37
 670 39 670 39 641 1 c 128,-1,38
 612 -37 612 -37 575.5 -54.5 c 128,-1,39
 539 -72 539 -72 496 -72 c 0,40,41
 428 -72 428 -72 382 -37 c 128,-1,42
 336 -2 336 -2 300 53.5 c 128,-1,43
 264 109 264 109 238.5 183.5 c 128,-1,44
 213 258 213 258 191.5 340 c 128,-1,45
 170 422 170 422 151.5 508 c 128,-1,46
 133 594 133 594 117 670 c 1,47,-1
 117 899 l 1,48,-1
 926 899 l 1,20,-1
EndSplineSet
Validated: 1
EndChar

StartChar: uniE046
Encoding: 57414 57414 36
Width: 819
Flags: W
LayerCount: 2
Fore
SplineSet
326 240 m 5,0,1
 337 209 337 209 355 182 c 132,-1,2
 373 155 373 155 394.5 133.5 c 132,-1,3
 416 112 416 112 440.5 100.5 c 132,-1,4
 465 89 465 89 494 89 c 4,5,6
 517 89 517 89 540.5 97.5 c 132,-1,7
 564 106 564 106 581 122.5 c 132,-1,8
 598 139 598 139 607 165 c 132,-1,9
 616 191 616 191 616 225 c 4,10,11
 616 258 616 258 608 290 c 132,-1,12
 600 322 600 322 583.5 346.5 c 132,-1,13
 567 371 567 371 545.5 388 c 132,-1,14
 524 405 524 405 496 405 c 4,15,16
 463 405 463 405 435 387 c 132,-1,17
 407 369 407 369 383.5 344 c 132,-1,18
 360 319 360 319 345.5 291 c 132,-1,19
 331 263 331 263 326 240 c 5,0,1
919 900 m 5,20,-1
 919 670 l 5,21,-1
 204 670 l 5,22,23
 207 643 207 643 216 598 c 132,-1,24
 225 553 225 553 237 507 c 132,-1,25
 249 461 249 461 260.5 417 c 132,-1,26
 272 373 272 373 285 350 c 5,27,28
 296 376 296 376 316.5 402 c 132,-1,29
 337 428 337 428 365 450 c 132,-1,30
 393 472 393 472 425.5 485.5 c 132,-1,31
 458 499 458 499 496 499 c 4,32,33
 595 499 595 499 644.5 426 c 132,-1,34
 694 353 694 353 694 225 c 4,35,36
 694 148 694 148 678.5 93 c 132,-1,37
 663 38 663 38 635 1 c 132,-1,38
 607 -36 607 -36 569.5 -54 c 132,-1,39
 532 -72 532 -72 490 -72 c 4,40,41
 423 -72 423 -72 376 -37.5 c 132,-1,42
 329 -3 329 -3 293.5 52.5 c 132,-1,43
 258 108 258 108 232.5 183 c 132,-1,44
 207 258 207 258 185.5 339.5 c 132,-1,45
 164 421 164 421 146 507 c 132,-1,46
 128 593 128 593 110 670 c 5,47,-1
 -1 670 l 5,48,-1
 -1 900 l 5,49,-1
 919 900 l 5,20,-1
EndSplineSet
Validated: 1
EndChar

StartChar: uniE049
Encoding: 57417 57417 37
Width: 1150
Flags: W
LayerCount: 2
Fore
SplineSet
257 240 m 1,0,1
 268 209 268 209 286 182 c 128,-1,2
 304 155 304 155 325.5 133.5 c 128,-1,3
 347 112 347 112 371.5 100.5 c 128,-1,4
 396 89 396 89 425 89 c 0,5,6
 448 89 448 89 471.5 97.5 c 128,-1,7
 495 106 495 106 512 122.5 c 128,-1,8
 529 139 529 139 538 165 c 128,-1,9
 547 191 547 191 547 225 c 0,10,11
 547 258 547 258 539 290 c 128,-1,12
 531 322 531 322 514.5 346.5 c 128,-1,13
 498 371 498 371 476.5 388 c 128,-1,14
 455 405 455 405 427 405 c 0,15,16
 394 405 394 405 366 387 c 128,-1,17
 338 369 338 369 314.5 344 c 128,-1,18
 291 319 291 319 276.5 291 c 128,-1,19
 262 263 262 263 257 240 c 1,0,1
135 670 m 1,20,21
 138 643 138 643 147 598 c 128,-1,22
 156 553 156 553 168 507 c 128,-1,23
 180 461 180 461 191.5 417 c 128,-1,24
 203 373 203 373 216 350 c 1,25,26
 227 376 227 376 247.5 402 c 128,-1,27
 268 428 268 428 296 450 c 128,-1,28
 324 472 324 472 356.5 485.5 c 128,-1,29
 389 499 389 499 427 499 c 0,30,31
 526 499 526 499 575.5 426 c 128,-1,32
 625 353 625 353 625 225 c 0,33,34
 625 148 625 148 609.5 93 c 128,-1,35
 594 38 594 38 566 1 c 128,-1,36
 538 -36 538 -36 500.5 -54 c 128,-1,37
 463 -72 463 -72 421 -72 c 0,38,39
 354 -72 354 -72 307 -37.5 c 128,-1,40
 260 -3 260 -3 224.5 52.5 c 128,-1,41
 189 108 189 108 163.5 183 c 128,-1,42
 138 258 138 258 116.5 339.5 c 128,-1,43
 95 421 95 421 77 507 c 128,-1,44
 59 593 59 593 41 670 c 1,45,-1
 0 670 l 1,46,-1
 0 900 l 1,47,-1
 946 900 l 1,48,49
 1041 894 1041 894 1092.5 824 c 128,-1,50
 1144 754 1144 754 1144 636 c 2,51,-1
 1144 517 l 2,52,53
 1144 445 1144 445 1119.5 400.5 c 128,-1,54
 1095 356 1095 356 1057 356 c 1,55,-1
 1057 379 l 2,56,57
 1057 517 1057 517 1007 591.5 c 128,-1,58
 957 666 957 666 857 670 c 1,59,-1
 135 670 l 1,20,21
EndSplineSet
Validated: 1
EndChar

StartChar: uniE04A
Encoding: 57418 57418 38
Width: 829
Flags: W
LayerCount: 2
Fore
SplineSet
959 899 m 1,0,-1
 959 670 l 1,1,-1
 633 670 l 1,2,3
 625 637 625 637 619.5 603 c 128,-1,4
 614 569 614 569 614 528 c 0,5,6
 614 465 614 465 622.5 404.5 c 128,-1,7
 631 344 631 344 642 293 c 128,-1,8
 653 242 653 242 664.5 203 c 128,-1,9
 676 164 676 164 680 143 c 1,10,-1
 350 143 l 2,11,12
 284 143 284 143 246.5 111.5 c 128,-1,13
 209 80 209 80 193 27 c 1,14,15
 179 27 179 27 167.5 37 c 128,-1,16
 156 47 156 47 147.5 60.5 c 128,-1,17
 139 74 139 74 133 90 c 128,-1,18
 127 106 127 106 127 121 c 0,19,20
 127 172 127 172 141.5 218 c 128,-1,21
 156 264 156 264 183.5 299 c 128,-1,22
 211 334 211 334 253 354.5 c 128,-1,23
 295 375 295 375 350 375 c 2,24,-1
 526 375 l 1,25,26
 526 395 526 395 524 415.5 c 128,-1,27
 522 436 522 436 522 457 c 0,28,29
 522 557 522 557 549 670 c 1,30,-1
 119 670 l 1,31,-1
 119 899 l 1,32,-1
 959 899 l 1,0,-1
EndSplineSet
Validated: 1
EndChar

StartChar: uniE04B
Encoding: 57419 57419 39
Width: 772
Flags: W
LayerCount: 2
Fore
SplineSet
870 899 m 1,0,-1
 870 670 l 1,1,-1
 625 670 l 1,2,3
 617 637 617 637 611.5 603 c 128,-1,4
 606 569 606 569 606 528 c 0,5,6
 606 465 606 465 613.5 404.5 c 128,-1,7
 621 344 621 344 633 293 c 128,-1,8
 645 242 645 242 656.5 203 c 128,-1,9
 668 164 668 164 672 143 c 1,10,-1
 342 143 l 2,11,12
 276 143 276 143 238.5 111.5 c 128,-1,13
 201 80 201 80 184 27 c 1,14,15
 170 27 170 27 157.5 37 c 128,-1,16
 145 47 145 47 137 60.5 c 128,-1,17
 129 74 129 74 124 90 c 128,-1,18
 119 106 119 106 119 121 c 0,19,20
 119 172 119 172 132 218 c 128,-1,21
 145 264 145 264 174 299 c 128,-1,22
 203 334 203 334 244 354.5 c 128,-1,23
 285 375 285 375 342 375 c 2,24,-1
 516 375 l 1,25,26
 516 395 516 395 515 415.5 c 128,-1,27
 514 436 514 436 514 457 c 0,28,29
 514 557 514 557 539 670 c 1,30,-1
 0 670 l 1,31,-1
 0 899 l 1,32,-1
 870 899 l 1,0,-1
EndSplineSet
Validated: 1
EndChar

StartChar: uniE04C
Encoding: 57420 57420 40
Width: 1234
Flags: W
LayerCount: 2
Fore
SplineSet
625 670 m 5,0,1
 617 637 617 637 611.5 603 c 132,-1,2
 606 569 606 569 606 528 c 4,3,4
 606 465 606 465 613.5 404.5 c 132,-1,5
 621 344 621 344 633 293 c 132,-1,6
 645 242 645 242 656.5 203 c 132,-1,7
 668 164 668 164 672 143 c 5,8,-1
 342 143 l 6,9,10
 276 143 276 143 238.5 111.5 c 132,-1,11
 201 80 201 80 184 27 c 5,12,13
 170 27 170 27 157.5 37 c 132,-1,14
 145 47 145 47 137 60.5 c 132,-1,15
 129 74 129 74 124 90 c 132,-1,16
 119 106 119 106 119 121 c 4,17,18
 119 172 119 172 132 218 c 132,-1,19
 145 264 145 264 174 299 c 132,-1,20
 203 334 203 334 244 354.5 c 132,-1,21
 285 375 285 375 342 375 c 6,22,-1
 516 375 l 5,23,24
 516 395 516 395 515 415.5 c 132,-1,25
 514 436 514 436 514 457 c 4,26,27
 514 557 514 557 539 670 c 5,28,-1
 0 670 l 5,29,-1
 0 899 l 5,30,-1
 899 899 l 5,31,32
 991 893 991 893 1045.5 822.5 c 132,-1,33
 1100 752 1100 752 1100 633 c 6,34,-1
 1100 512 l 6,35,36
 1100 440 1100 440 1074.5 396 c 132,-1,37
 1049 352 1049 352 1012 352 c 5,38,-1
 1012 375 l 6,39,40
 1012 510 1012 510 960.5 588 c 132,-1,41
 909 666 909 666 811 670 c 5,42,-1
 625 670 l 5,0,1
EndSplineSet
Validated: 1
EndChar

StartChar: uniE04D
Encoding: 57421 57421 41
Width: 586
Flags: W
LayerCount: 2
Fore
SplineSet
125 900 m 1,0,-1
 686 900 l 1,1,-1
 686 670 l 1,2,-1
 212 670 l 1,3,-1
 473 298 l 1,4,-1
 473 267 l 1,5,-1
 418 4 l 1,6,-1
 388 4 l 1,7,-1
 125 670 l 1,8,-1
 125 900 l 1,0,-1
EndSplineSet
EndChar

StartChar: uniE04E
Encoding: 57422 57422 42
Width: 669
Flags: W
LayerCount: 2
Fore
SplineSet
770 899 m 1,0,-1
 770 670 l 1,1,-1
 522 670 l 1,2,-1
 522 498 l 2,3,4
 522 455 522 455 514 417 c 128,-1,5
 506 379 506 379 486.5 345 c 128,-1,6
 467 311 467 311 432 283 c 0,7,8
 395 250 395 250 350 231 c 0,9,10
 307 213 307 213 268 198.5 c 128,-1,11
 229 184 229 184 200.5 169 c 128,-1,12
 172 154 172 154 155.5 135.5 c 128,-1,13
 139 117 139 117 139 88 c 1,14,-1
 121 88 l 1,15,16
 86 123 86 123 86 209 c 0,17,18
 86 272 86 272 137 319 c 0,19,20
 184 364 184 364 295 406 c 0,21,22
 342 424 342 424 367.5 446.5 c 128,-1,23
 393 469 393 469 406.5 496.5 c 128,-1,24
 420 524 420 524 422 559 c 0,25,26
 424 610 424 610 426 637 c 2,27,-1
 426 670 l 1,28,-1
 0 670 l 1,29,-1
 0 899 l 1,30,-1
 770 899 l 1,0,-1
EndSplineSet
Validated: 1
EndChar

StartChar: uniE04F
Encoding: 57423 57423 43
Width: 1177
Flags: W
LayerCount: 2
Fore
SplineSet
850 899 m 1,0,1
 942 893 942 893 995.5 822.5 c 128,-1,2
 1049 752 1049 752 1049 633 c 2,3,-1
 1049 512 l 2,4,5
 1049 440 1049 440 1024 396 c 128,-1,6
 999 352 999 352 963 352 c 1,7,-1
 963 375 l 2,8,9
 963 510 963 510 911.5 588 c 128,-1,10
 860 666 860 666 762 670 c 1,11,-1
 522 670 l 1,12,-1
 522 498 l 2,13,14
 522 455 522 455 514 417 c 128,-1,15
 506 379 506 379 486.5 345 c 128,-1,16
 467 311 467 311 432 283 c 0,17,18
 395 250 395 250 350 231 c 0,19,20
 307 213 307 213 268 198.5 c 128,-1,21
 229 184 229 184 200.5 169 c 128,-1,22
 172 154 172 154 155.5 135.5 c 128,-1,23
 139 117 139 117 139 88 c 1,24,-1
 121 88 l 1,25,26
 86 123 86 123 86 209 c 0,27,28
 86 272 86 272 137 319 c 0,29,30
 184 364 184 364 295 406 c 0,31,32
 342 424 342 424 367.5 446.5 c 128,-1,33
 393 469 393 469 406.5 496.5 c 128,-1,34
 420 524 420 524 422 559 c 0,35,36
 424 610 424 610 426 637 c 2,37,-1
 426 670 l 1,38,-1
 0 670 l 1,39,-1
 0 899 l 1,40,-1
 850 899 l 1,0,1
EndSplineSet
Validated: 1
EndChar

StartChar: uniE050
Encoding: 57424 57424 44
Width: 628
Flags: W
LayerCount: 2
Fore
SplineSet
629 899 m 1,0,-1
 629 670 l 1,1,-1
 211 670 l 1,2,3
 213 623 213 623 237.5 573.5 c 128,-1,4
 262 524 262 524 301 465 c 0,5,6
 324 432 324 432 348.5 396 c 128,-1,7
 373 360 373 360 391.5 323.5 c 128,-1,8
 410 287 410 287 422 250 c 128,-1,9
 434 213 434 213 434 176 c 0,10,11
 434 127 434 127 422 98.5 c 128,-1,12
 410 70 410 70 387.5 54.5 c 128,-1,13
 365 39 365 39 336 34 c 128,-1,14
 307 29 307 29 279 29 c 0,15,16
 242 29 242 29 203 45 c 128,-1,17
 164 61 164 61 139 86 c 1,18,19
 139 106 139 106 161.5 121.5 c 128,-1,20
 184 137 184 137 211 154.5 c 128,-1,21
 238 172 238 172 260.5 195.5 c 128,-1,22
 283 219 283 219 283 260 c 0,23,24
 283 278 283 278 277.5 295.5 c 128,-1,25
 272 313 272 313 263 332.5 c 128,-1,26
 254 352 254 352 238.5 376.5 c 128,-1,27
 223 401 223 401 205 434 c 0,28,29
 187 465 187 465 172.5 498.5 c 128,-1,30
 158 532 158 532 146.5 564 c 128,-1,31
 135 596 135 596 129 623.5 c 128,-1,32
 123 651 123 651 119 670 c 2,33,-1
 119 899 l 1,34,-1
 629 899 l 1,0,-1
EndSplineSet
Validated: 1
EndChar

StartChar: uniE051
Encoding: 57425 57425 45
Width: 577
Flags: W
LayerCount: 2
Fore
SplineSet
680 899 m 1,0,-1
 680 670 l 1,1,-1
 211 670 l 1,2,3
 213 623 213 623 238 573 c 0,4,5
 267 514 267 514 301 465 c 0,6,7
 324 432 324 432 348.5 396 c 128,-1,8
 373 360 373 360 392.5 323.5 c 128,-1,9
 412 287 412 287 424 250 c 128,-1,10
 436 213 436 213 436 176 c 0,11,12
 436 127 436 127 423 98.5 c 128,-1,13
 410 70 410 70 388.5 54.5 c 128,-1,14
 367 39 367 39 338 34 c 128,-1,15
 309 29 309 29 279 29 c 0,16,17
 242 29 242 29 203 45 c 128,-1,18
 164 61 164 61 141 86 c 1,19,20
 141 106 141 106 163.5 121.5 c 128,-1,21
 186 137 186 137 212 154.5 c 128,-1,22
 238 172 238 172 260.5 195.5 c 128,-1,23
 283 219 283 219 283 260 c 0,24,25
 283 278 283 278 277.5 295.5 c 128,-1,26
 272 313 272 313 264 332.5 c 128,-1,27
 256 352 256 352 240.5 376.5 c 128,-1,28
 225 401 225 401 207 434 c 0,29,30
 189 465 189 465 173.5 498.5 c 128,-1,31
 158 532 158 532 147.5 564 c 128,-1,32
 137 596 137 596 130 623.5 c 128,-1,33
 123 651 123 651 121 670 c 1,34,-1
 0 670 l 1,35,-1
 0 899 l 1,36,-1
 680 899 l 1,0,-1
EndSplineSet
Validated: 1
EndChar

StartChar: uniE055
Encoding: 57429 57429 46
Width: 765
Flags: W
LayerCount: 2
Fore
SplineSet
358 438 m 0,0,1
 319 325 319 325 188 256 c 1,2,3
 217 391 217 391 217 508 c 0,4,5
 217 596 217 596 201 670 c 1,6,-1
 0 670 l 1,7,-1
 0 899 l 1,8,-1
 184 899 l 1,9,10
 209 1128 209 1128 293 1254 c 128,-1,11
 377 1380 377 1380 506 1380 c 0,12,13
 578 1380 578 1380 627 1332 c 128,-1,14
 676 1284 676 1284 703.5 1208.5 c 128,-1,15
 731 1133 731 1133 744.5 1037.5 c 128,-1,16
 758 942 758 942 758 846 c 0,17,18
 758 805 758 805 753 786.5 c 128,-1,19
 748 768 748 768 729 768 c 0,20,21
 715 768 715 768 709 786 c 0,22,23
 699 813 699 813 696 823 c 0,24,25
 684 874 684 874 670.5 935.5 c 128,-1,26
 657 997 657 997 636.5 1050.5 c 128,-1,27
 616 1104 616 1104 584.5 1140 c 128,-1,28
 553 1176 553 1176 502 1176 c 0,29,30
 445 1176 445 1176 402.5 1144 c 128,-1,31
 360 1112 360 1112 330.5 1060 c 128,-1,32
 301 1008 301 1008 285.5 953.5 c 128,-1,33
 270 899 270 899 270 793 c 0,34,35
 270 697 270 697 387 596 c 0,36,37
 465 530 465 530 590 492 c 1,38,39
 705 451 705 451 705 395 c 0,40,41
 705 346 705 346 641 84 c 1,42,-1
 631 84 l 1,43,44
 580 236 580 236 434 399 c 0,45,46
 399 440 399 440 383 449 c 0,47,48
 377 451 377 451 371 451 c 0,49,50
 360 450 360 450 358 438 c 0,0,1
EndSplineSet
Validated: 1
EndChar

StartChar: uniE056
Encoding: 57430 57430 47
Width: 824
Flags: W
LayerCount: 2
Fore
SplineSet
924 899 m 1,0,-1
 924 670 l 1,1,-1
 205 670 l 1,2,-1
 273 364 l 1,3,4
 293 301 293 301 311 252.5 c 128,-1,5
 329 204 329 204 354 172.5 c 128,-1,6
 379 141 379 141 412.5 125.5 c 128,-1,7
 446 110 446 110 488 110 c 0,8,9
 523 110 523 110 546.5 124.5 c 128,-1,10
 570 139 570 139 585.5 155 c 128,-1,11
 601 171 601 171 609 186.5 c 128,-1,12
 617 202 617 202 628 202 c 0,13,14
 653 202 653 202 661 181 c 128,-1,15
 669 160 669 160 669 119 c 0,16,17
 669 81 669 81 655 47.5 c 128,-1,18
 641 14 641 14 616.5 -12 c 128,-1,19
 592 -38 592 -38 558.5 -53.5 c 128,-1,20
 525 -69 525 -69 488 -69 c 0,21,22
 424 -69 424 -69 378 -42 c 128,-1,23
 332 -15 332 -15 295.5 37 c 128,-1,24
 259 89 259 89 231 164.5 c 0,25,26
 200.991210938 246.765625 200.991210938 246.765625 181 334 c 2,27,-1
 104 670 l 1,28,-1
 104 899 l 1,29,-1
 924 899 l 1,0,-1
EndSplineSet
Validated: 1
EndChar

StartChar: uniE057
Encoding: 57431 57431 48
Width: 820
Flags: W
LayerCount: 2
Fore
SplineSet
920 899 m 1,0,-1
 920 670 l 1,1,-1
 202 670 l 1,2,-1
 270 364 l 1,3,4
 290 301 290 301 308 252.5 c 128,-1,5
 326 204 326 204 351 172.5 c 128,-1,6
 376 141 376 141 409.5 125.5 c 128,-1,7
 443 110 443 110 485 110 c 0,8,9
 520 110 520 110 543.5 124.5 c 128,-1,10
 567 139 567 139 582.5 155 c 128,-1,11
 598 171 598 171 606 186.5 c 128,-1,12
 614 202 614 202 625 202 c 0,13,14
 650 202 650 202 658 181 c 128,-1,15
 666 160 666 160 666 119 c 0,16,17
 666 81 666 81 652 47.5 c 128,-1,18
 638 14 638 14 613.5 -12 c 128,-1,19
 589 -38 589 -38 555.5 -53.5 c 128,-1,20
 522 -69 522 -69 485 -69 c 0,21,22
 421 -69 421 -69 375 -42 c 128,-1,23
 329 -15 329 -15 292.5 37 c 128,-1,24
 256 89 256 89 228 164.5 c 0,25,26
 197.831054688 247.46484375 197.831054688 247.46484375 178 334 c 2,27,-1
 101 670 l 1,28,-1
 0 670 l 1,29,-1
 0 899 l 1,30,-1
 920 899 l 1,0,-1
EndSplineSet
Validated: 1
EndChar

StartChar: uniE058
Encoding: 57432 57432 49
Width: 1246
Flags: W
LayerCount: 2
Fore
SplineSet
202 670 m 1,0,-1
 270 364 l 1,1,2
 290 301 290 301 308 252.5 c 128,-1,3
 326 204 326 204 351 172.5 c 128,-1,4
 376 141 376 141 409.5 125.5 c 128,-1,5
 443 110 443 110 485 110 c 0,6,7
 520 110 520 110 543.5 124.5 c 128,-1,8
 567 139 567 139 582.5 155 c 128,-1,9
 598 171 598 171 606 186.5 c 128,-1,10
 614 202 614 202 625 202 c 0,11,12
 650 202 650 202 658 181 c 128,-1,13
 666 160 666 160 666 119 c 0,14,15
 666 81 666 81 652 47.5 c 128,-1,16
 638 14 638 14 613.5 -12 c 128,-1,17
 589 -38 589 -38 555.5 -53.5 c 128,-1,18
 522 -69 522 -69 485 -69 c 0,19,20
 421 -69 421 -69 375 -42 c 128,-1,21
 329 -15 329 -15 292.5 37 c 128,-1,22
 256 89 256 89 228 164.5 c 0,23,24
 197.830985915 247.464788732 197.830985915 247.464788732 178 334 c 2,25,-1
 101 670 l 1,26,-1
 0 670 l 1,27,-1
 0 899 l 1,28,-1
 949 899 l 5,29,30
 1042 892 1042 892 1095.5 822 c 128,-1,31
 1149 752 1149 752 1149 632 c 2,32,-1
 1149 511 l 2,33,34
 1149 439 1149 439 1124 395.5 c 128,-1,35
 1099 352 1099 352 1062 352 c 1,36,-1
 1062 375 l 2,37,38
 1062 511 1062 511 1011 588.5 c 128,-1,39
 960 666 960 666 861 670 c 1,40,-1
 202 670 l 1,0,-1
EndSplineSet
Validated: 1
EndChar

StartChar: uniE059
Encoding: 57433 57433 50
Width: 830
Flags: W
LayerCount: 2
Fore
SplineSet
529 670 m 1,0,-1
 201 670 l 1,1,2
 201 602 201 602 203 543.5 c 128,-1,3
 205 485 205 485 220 443.5 c 128,-1,4
 235 402 235 402 268.5 377.5 c 128,-1,5
 302 353 302 353 365 353 c 0,6,7
 426 353 426 353 460.5 376.5 c 128,-1,8
 495 400 495 400 510 442.5 c 128,-1,9
 525 485 525 485 527 542.5 c 128,-1,10
 529 600 529 600 529 670 c 1,0,-1
224 240 m 1,11,12
 215 251 215 251 206 265 c 0,13,14
 179 306 179 306 161 356.5 c 128,-1,15
 143 407 143 407 134 462 c 128,-1,16
 125 517 125 517 122.5 571.5 c 128,-1,17
 120 626 120 626 120 670 c 2,18,-1
 120 901 l 1,19,20
 136 1153 136 1153 223.5 1287.5 c 128,-1,21
 311 1422 311 1422 468 1422 c 0,22,23
 547 1422 547 1422 605.5 1384 c 128,-1,24
 664 1346 664 1346 705.5 1276.5 c 128,-1,25
 747 1207 747 1207 769.5 1111.5 c 128,-1,26
 792 1016 792 1016 794 900 c 1,27,-1
 931 900 l 1,28,-1
 931 670 l 1,29,-1
 830 670 l 2,30,31
 780 670 780 670 756 741 c 128,-1,32
 732 812 732 812 720 870 c 0,33,34
 685 1050 685 1050 620.5 1135 c 128,-1,35
 556 1220 556 1220 468 1220 c 0,36,37
 261 1220 261 1220 205 900 c 1,38,-1
 504 900 l 2,39,40
 612 900 612 900 612 791 c 2,41,-1
 612 555 l 2,42,43
 612 485 612 485 600.5 415.5 c 128,-1,44
 589 346 589 346 559 293 c 128,-1,45
 529 240 529 240 482 206.5 c 128,-1,46
 435 173 435 173 365 173 c 0,47,48
 328 173 328 173 298 185 c 1,49,50
 286 151 286 151 285 149 c 0,51,52
 283 133 283 133 283 119 c 0,53,54
 283 92 283 92 291.5 74 c 128,-1,55
 300 56 300 56 310.5 39.5 c 128,-1,56
 321 23 321 23 329 4 c 128,-1,57
 337 -15 337 -15 337 -47 c 0,58,59
 337 -67 337 -67 331.5 -78.5 c 128,-1,60
 326 -90 326 -90 315.5 -99 c 128,-1,61
 305 -108 305 -108 293 -111 c 128,-1,62
 281 -114 281 -114 272 -114 c 0,63,64
 215 -114 215 -114 180.5 -70.5 c 128,-1,65
 146 -27 146 -27 146 42 c 0,66,67
 146 61 146 61 152.5 84.5 c 128,-1,68
 159 108 159 108 168 132.5 c 128,-1,69
 177 157 177 157 191 181 c 0,70,71
 202 200 202 200 224 240 c 1,11,12
EndSplineSet
Validated: 1
EndChar

StartChar: uniE05A
Encoding: 57434 57434 51
Width: 819
Flags: W
LayerCount: 2
Fore
SplineSet
494 900 m 2,0,1
 602 900 602 900 602 791 c 2,2,-1
 602 555 l 2,3,4
 602 485 602 485 590.5 415.5 c 128,-1,5
 579 346 579 346 549 293 c 128,-1,6
 519 240 519 240 472 206.5 c 128,-1,7
 425 173 425 173 355 173 c 0,8,9
 318 173 318 173 288 185 c 1,10,11
 276 151 276 151 275 149 c 0,12,13
 273 133 273 133 273 119 c 0,14,15
 273 92 273 92 281.5 74 c 128,-1,16
 290 56 290 56 300.5 39.5 c 128,-1,17
 311 23 311 23 319 4 c 128,-1,18
 327 -15 327 -15 327 -47 c 0,19,20
 327 -67 327 -67 321.5 -78.5 c 128,-1,21
 316 -90 316 -90 305.5 -99 c 128,-1,22
 295 -108 295 -108 283 -111 c 128,-1,23
 271 -114 271 -114 262 -114 c 0,24,25
 205 -114 205 -114 170.5 -70.5 c 128,-1,26
 136 -27 136 -27 136 42 c 0,27,28
 136 61 136 61 142.5 84.5 c 128,-1,29
 149 108 149 108 158 132.5 c 128,-1,30
 167 157 167 157 181 181 c 0,31,32
 192 200 192 200 214 240 c 1,33,34
 205 251 205 251 196 265 c 0,35,36
 169 306 169 306 151 356.5 c 128,-1,37
 133 407 133 407 124 462 c 128,-1,38
 115 517 115 517 112.5 571.5 c 128,-1,39
 110 626 110 626 110 670 c 1,40,-1
 0 670 l 1,41,-1
 0 900 l 1,42,-1
 110 900 l 1,43,-1
 110 901 l 1,44,45
 126 1153 126 1153 213.5 1287.5 c 128,-1,46
 301 1422 301 1422 458 1422 c 0,47,48
 537 1422 537 1422 595.5 1384 c 128,-1,49
 654 1346 654 1346 695.5 1276.5 c 128,-1,50
 737 1207 737 1207 759.5 1111.5 c 128,-1,51
 782 1016 782 1016 784 900 c 1,52,-1
 920 900 l 1,53,-1
 920 670 l 1,54,-1
 820 670 l 2,55,56
 770 670 770 670 746 741 c 128,-1,57
 722 812 722 812 710 870 c 0,58,59
 675 1050 675 1050 610.5 1135 c 128,-1,60
 546 1220 546 1220 458 1220 c 0,61,62
 251 1220 251 1220 195 900 c 1,63,-1
 494 900 l 2,0,1
191 670 m 1,64,65
 191 602 191 602 193 543.5 c 128,-1,66
 195 485 195 485 210 443.5 c 128,-1,67
 225 402 225 402 258.5 377.5 c 128,-1,68
 292 353 292 353 355 353 c 0,69,70
 416 353 416 353 450.5 376.5 c 128,-1,71
 485 400 485 400 500 442.5 c 128,-1,72
 515 485 515 485 517 542.5 c 128,-1,73
 519 600 519 600 519 670 c 1,74,-1
 191 670 l 1,64,65
EndSplineSet
Validated: 1
EndChar

StartChar: uniE05B
Encoding: 57435 57435 52
Width: 1024
Flags: W
LayerCount: 2
Fore
SplineSet
196 670 m 1,0,1
 196 601 196 601 198.5 543 c 128,-1,2
 201 485 201 485 216 443 c 128,-1,3
 231 401 231 401 264.5 377 c 128,-1,4
 298 353 298 353 360 353 c 256,5,6
 422 353 422 353 455.5 376 c 128,-1,7
 489 399 489 399 505 441 c 128,-1,8
 521 483 521 483 523.5 541 c 128,-1,9
 526 599 526 599 526 670 c 1,10,-1
 196 670 l 1,0,1
216 245 m 1,11,12
 209 254 209 254 202 264 c 0,13,14
 175 304 175 304 157.5 356 c 128,-1,15
 140 408 140 408 130.5 462.5 c 128,-1,16
 121 517 121 517 118 571 c 128,-1,17
 115 625 115 625 115 670 c 1,18,-1
 -1 670 l 1,19,-1
 -1 900 l 1,20,-1
 115 900 l 1,21,22
 124 1024 124 1024 156 1128 c 0,23,24
 187 1230 187 1230 239 1303.5 c 128,-1,25
 291 1377 291 1377 362.5 1417 c 128,-1,26
 434 1457 434 1457 521 1457 c 0,27,28
 598 1457 598 1457 657 1429.5 c 128,-1,29
 716 1402 716 1402 760.5 1354 c 128,-1,30
 805 1306 805 1306 834.5 1242 c 128,-1,31
 864 1178 864 1178 882 1107.5 c 128,-1,32
 900 1037 900 1037 909 963.5 c 128,-1,33
 918 890 918 890 918 820 c 2,34,-1
 918 134 l 2,35,36
 918 47 918 47 902 -17 c 128,-1,37
 886 -81 886 -81 855.5 -128 c 128,-1,38
 825 -175 825 -175 779.5 -209.5 c 0,39,40
 726 -250 726 -250 675 -271 c 0,41,42
 641 -285 641 -285 620.5 -297.5 c 128,-1,43
 600 -310 600 -310 586.5 -323 c 128,-1,44
 573 -336 573 -336 562.5 -354.5 c 128,-1,45
 552 -373 552 -373 537 -400 c 1,46,-1
 514 -400 l 1,47,-1
 581 -114 l 1,48,49
 595 -110 595 -110 608.5 -106.5 c 128,-1,50
 622 -103 622 -103 637.5 -97 c 0,51,52
 662 -88 662 -88 671.5 -82 c 0,53,54
 689 -72 689 -72 715 -58 c 0,55,56
 730 -50 730 -50 749 -35.5 c 128,-1,57
 768 -21 768 -21 785.5 0.5 c 128,-1,58
 803 22 803 22 815 54.5 c 128,-1,59
 827 87 827 87 827 134 c 2,60,-1
 827 820 l 2,61,62
 827 852 827 852 822 897 c 128,-1,63
 817 942 817 942 804 989.5 c 128,-1,64
 791 1037 791 1037 768.5 1084.5 c 128,-1,65
 746 1132 746 1132 712.5 1170 c 128,-1,66
 679 1208 679 1208 631.5 1231 c 128,-1,67
 584 1254 584 1254 521 1254 c 0,68,69
 451 1254 451 1254 398 1228.5 c 128,-1,70
 345 1203 345 1203 306 1156 c 0,71,72
 270 1113 270 1113 242 1044 c 0,73,74
 215 978 215 978 201 900 c 1,75,-1
 520 900 l 1,76,77
 606 889 606 889 606 790 c 2,78,-1
 606 555 l 2,79,80
 606 483 606 483 594 414.5 c 128,-1,81
 582 346 582 346 554 293 c 128,-1,82
 526 240 526 240 478.5 208 c 128,-1,83
 431 176 431 176 360 176 c 0,84,85
 320 176 320 176 288 189 c 1,86,87
 275 151 275 151 274 149 c 0,88,89
 272 133 272 133 272 119 c 0,90,91
 272 92 272 92 280.5 74 c 128,-1,92
 289 56 289 56 299.5 39.5 c 128,-1,93
 310 23 310 23 318 4 c 128,-1,94
 326 -15 326 -15 326 -47 c 0,95,96
 326 -67 326 -67 320.5 -78.5 c 128,-1,97
 315 -90 315 -90 304.5 -99 c 128,-1,98
 294 -108 294 -108 282 -111 c 128,-1,99
 270 -114 270 -114 261 -114 c 0,100,101
 204 -114 204 -114 169.5 -70.5 c 128,-1,102
 135 -27 135 -27 135 42 c 0,103,104
 135 61 135 61 141.5 84.5 c 128,-1,105
 148 108 148 108 157 132.5 c 128,-1,106
 166 157 166 157 180 181 c 0,107,108
 191 201 191 201 216 245 c 1,11,12
EndSplineSet
Validated: 1
EndChar

StartChar: uniE053
Encoding: 57427 57427 53
Width: 743
Flags: W
LayerCount: 2
Fore
SplineSet
745 899 m 1,0,-1
 745 670 l 1,1,-1
 221 670 l 1,2,-1
 575 227 l 1,3,-1
 575 199 l 1,4,-1
 520 -70 l 1,5,-1
 489 -70 l 1,6,-1
 334 256 l 1,7,-1
 162 109 l 1,8,-1
 135 131 l 1,9,-1
 250 436 l 1,10,-1
 135 670 l 1,11,-1
 135 899 l 1,12,-1
 745 899 l 1,0,-1
EndSplineSet
Validated: 1
EndChar

StartChar: uniE054
Encoding: 57428 57428 54
Width: 669
Flags: W
LayerCount: 2
Fore
SplineSet
770 899 m 1,0,-1
 770 670 l 1,1,-1
 197 670 l 1,2,-1
 551 227 l 1,3,-1
 551 199 l 1,4,-1
 496 -70 l 1,5,-1
 465 -70 l 1,6,-1
 309 256 l 1,7,-1
 135 109 l 1,8,-1
 111 131 l 1,9,-1
 223 436 l 1,10,-1
 111 670 l 1,11,-1
 0 670 l 1,12,-1
 0 899 l 1,13,-1
 770 899 l 1,0,-1
EndSplineSet
Validated: 1
EndChar

StartChar: uniE05C
Encoding: 57436 57436 55
Width: 719
Flags: W
LayerCount: 2
Fore
SplineSet
92 900 m 1,0,-1
 127 900 l 1,1,2
 136 1014 136 1014 163 1101.5 c 128,-1,3
 190 1189 190 1189 232 1250 c 128,-1,4
 274 1311 274 1311 327.5 1342.5 c 128,-1,5
 381 1374 381 1374 440 1374 c 0,6,7
 511 1374 511 1374 557 1333 c 128,-1,8
 603 1292 603 1292 632 1225.5 c 128,-1,9
 661 1159 661 1159 675 1074.5 c 128,-1,10
 689 990 689 990 692 900 c 1,11,-1
 819 900 l 1,12,-1
 819 670 l 1,13,-1
 719 670 l 2,14,15
 669 670 669 670 657 715 c 128,-1,16
 645 760 645 760 640 783.5 c 128,-1,17
 635 807 635 807 631 823 c 0,18,19
 620 876 620 876 606 936.5 c 128,-1,20
 592 997 592 997 571.5 1049 c 128,-1,21
 551 1101 551 1101 520 1135.5 c 128,-1,22
 489 1170 489 1170 439 1170 c 0,23,24
 384 1170 384 1170 341.5 1145 c 128,-1,25
 299 1120 299 1120 270.5 1073.5 c 128,-1,26
 242 1027 242 1027 227 962 c 128,-1,27
 212 897 212 897 212 819 c 0,28,29
 212 766 212 766 235.5 721.5 c 128,-1,30
 259 677 259 677 291 642.5 c 128,-1,31
 323 608 323 608 358 583.5 c 128,-1,32
 393 559 393 559 413 546 c 1,33,-1
 338 227 l 1,34,-1
 300 227 l 1,35,36
 293 270 293 270 281.5 314.5 c 128,-1,37
 270 359 270 359 256.5 400 c 128,-1,38
 243 441 243 441 227.5 478 c 128,-1,39
 212 515 212 515 196 541 c 1,40,41
 190 510 190 510 182 475.5 c 128,-1,42
 174 441 174 441 161 413 c 128,-1,43
 148 385 148 385 131 367 c 0,44,45
 116 350 116 350 99 350 c 2,46,-1
 92 350 l 1,47,-1
 92 900 l 1,0,-1
EndSplineSet
Validated: 1
EndChar

StartChar: uniE05D
Encoding: 57437 57437 56
Width: 719
Flags: W
LayerCount: 2
Fore
SplineSet
128 900 m 1,0,1
 137 1014 137 1014 164 1101.5 c 128,-1,2
 191 1189 191 1189 233 1250 c 128,-1,3
 275 1311 275 1311 328.5 1342.5 c 128,-1,4
 382 1374 382 1374 441 1374 c 0,5,6
 512 1374 512 1374 558 1333 c 128,-1,7
 604 1292 604 1292 633 1225.5 c 128,-1,8
 662 1159 662 1159 676 1074.5 c 128,-1,9
 690 990 690 990 693 900 c 1,10,-1
 820 900 l 1,11,-1
 820 670 l 1,12,-1
 720 670 l 2,13,14
 670 670 670 670 658 715 c 128,-1,15
 646 760 646 760 641 783.5 c 128,-1,16
 636 807 636 807 632 823 c 0,17,18
 621 876 621 876 607 936.5 c 128,-1,19
 593 997 593 997 572.5 1049 c 128,-1,20
 552 1101 552 1101 521 1135.5 c 128,-1,21
 490 1170 490 1170 440 1170 c 0,22,23
 385 1170 385 1170 342.5 1145 c 128,-1,24
 300 1120 300 1120 271.5 1073.5 c 128,-1,25
 243 1027 243 1027 228 962 c 128,-1,26
 213 897 213 897 213 819 c 0,27,28
 213 766 213 766 236.5 721.5 c 128,-1,29
 260 677 260 677 292 642.5 c 128,-1,30
 324 608 324 608 359 583.5 c 128,-1,31
 394 559 394 559 414 546 c 1,32,-1
 339 227 l 1,33,-1
 301 227 l 1,34,35
 294 270 294 270 282.5 314.5 c 128,-1,36
 271 359 271 359 257.5 400 c 128,-1,37
 244 441 244 441 228.5 478 c 128,-1,38
 213 515 213 515 197 541 c 1,39,40
 191 510 191 510 183 475.5 c 128,-1,41
 175 441 175 441 162 413 c 128,-1,42
 149 385 149 385 132 367 c 0,43,44
 117 350 117 350 100 350 c 2,45,-1
 93 350 l 1,46,-1
 93 670 l 1,47,-1
 0 670 l 1,48,-1
 0 900 l 1,49,-1
 128 900 l 1,0,1
EndSplineSet
Validated: 1
EndChar

StartChar: uniE05E
Encoding: 57438 57438 57
Width: 945
Flags: W
LayerCount: 2
Fore
SplineSet
132 900 m 1,0,1
 132 1001 132 1001 155 1103 c 128,-1,2
 178 1205 178 1205 223 1286.5 c 128,-1,3
 268 1368 268 1368 333 1419.5 c 128,-1,4
 398 1471 398 1471 483 1471 c 0,5,6
 563 1471 563 1471 621.5 1441.5 c 128,-1,7
 680 1412 680 1412 720 1363 c 128,-1,8
 760 1314 760 1314 783.5 1249.5 c 128,-1,9
 807 1185 807 1185 820.5 1112.5 c 128,-1,10
 834 1040 834 1040 838 965 c 128,-1,11
 842 890 842 890 842 820 c 2,12,-1
 842 118 l 2,13,14
 842 30 842 30 825.5 -35.5 c 128,-1,15
 809 -101 809 -101 778 -149.5 c 128,-1,16
 747 -198 747 -198 701 -233 c 128,-1,17
 655 -268 655 -268 594 -295 c 0,18,19
 559 -311 559 -311 539 -323 c 128,-1,20
 519 -335 519 -335 504.5 -349 c 128,-1,21
 490 -363 490 -363 479.5 -381 c 128,-1,22
 469 -399 469 -399 453 -428 c 1,23,-1
 430 -428 l 1,24,-1
 499 -135 l 1,25,26
 513 -131 513 -131 526.5 -127 c 128,-1,27
 540 -123 540 -123 556.5 -117.5 c 128,-1,28
 573 -112 573 -112 591 -102.5 c 128,-1,29
 609 -93 609 -93 636 -78 c 0,30,31
 651 -69 651 -69 670.5 -55 c 128,-1,32
 690 -41 690 -41 707 -19 c 128,-1,33
 724 3 724 3 737 37 c 128,-1,34
 750 71 750 71 750 118 c 2,35,-1
 750 820 l 2,36,37
 750 852 750 852 746.5 897.5 c 128,-1,38
 743 943 743 943 733 991.5 c 128,-1,39
 723 1040 723 1040 704.5 1089 c 128,-1,40
 686 1138 686 1138 655.5 1177 c 128,-1,41
 625 1216 625 1216 580 1240 c 128,-1,42
 535 1264 535 1264 471 1264 c 0,43,44
 408 1264 408 1264 360.5 1221 c 128,-1,45
 313 1178 313 1178 281 1111.5 c 128,-1,46
 249 1045 249 1045 232.5 964 c 0,47,48
 214 875 214 875 215 806 c 0,49,50
 215 757 215 757 241.5 711.5 c 0,51,52
 266 669 266 669 299 635 c 128,-1,53
 332 601 332 601 365 577.5 c 128,-1,54
 398 554 398 554 418 540 c 1,55,-1
 343 218 l 1,56,-1
 305 218 l 1,57,58
 297 261 297 261 285.5 305.5 c 128,-1,59
 274 350 274 350 260 392 c 128,-1,60
 246 434 246 434 230.5 471 c 128,-1,61
 215 508 215 508 198 536 c 1,62,63
 192 505 192 505 184 469.5 c 128,-1,64
 176 434 176 434 162.5 405.5 c 0,65,66
 152 383 152 383 132 359 c 0,67,68
 117 341 117 341 98 341 c 2,69,-1
 93 341 l 1,70,-1
 93 670 l 1,71,-1
 0 670 l 1,72,-1
 0 900 l 1,73,-1
 132 900 l 1,0,1
EndSplineSet
Validated: 33
EndChar

StartChar: uniE05F
Encoding: 57439 57439 58
Width: 849
Flags: W
LayerCount: 2
Fore
SplineSet
851 118 m 0,0,1
 851 132 851 132 846.5 153.5 c 128,-1,2
 842 175 842 175 831.5 193 c 128,-1,3
 821 211 821 211 801.5 225 c 128,-1,4
 782 239 782 239 755 239 c 0,5,6
 726 239 726 239 707 225 c 128,-1,7
 688 211 688 211 677.5 193 c 128,-1,8
 667 175 667 175 663.5 153.5 c 128,-1,9
 660 132 660 132 660 118 c 0,10,11
 660 103 660 103 663.5 83 c 128,-1,12
 667 63 667 63 677.5 44.5 c 128,-1,13
 688 26 688 26 707 12.5 c 128,-1,14
 726 -1 726 -1 755 -1 c 0,15,16
 782 -1 782 -1 801.5 12.5 c 128,-1,17
 821 26 821 26 831.5 44.5 c 128,-1,18
 842 63 842 63 846.5 83 c 128,-1,19
 851 103 851 103 851 118 c 0,0,1
583 209 m 1,20,21
 605 256 605 256 649 279 c 0,22,23
 692 302 692 302 755 302 c 0,24,25
 842 302 842 302 892 258 c 128,-1,26
 942 214 942 214 942 118 c 256,27,28
 942 22 942 22 892 -35 c 128,-1,29
 842 -92 842 -92 755 -92 c 0,30,31
 667 -92 667 -92 617 -35 c 128,-1,32
 567 22 567 22 567 118 c 2,33,-1
 567 143 l 1,34,-1
 271 143 l 2,35,36
 206 143 206 143 167.5 111 c 128,-1,37
 129 79 129 79 113 26 c 1,38,39
 99 27 99 27 87 37 c 128,-1,40
 75 47 75 47 67 60 c 128,-1,41
 59 73 59 73 53.5 89.5 c 128,-1,42
 48 106 48 106 48 120 c 0,43,44
 48 172 48 172 61.5 218 c 128,-1,45
 75 264 75 264 103 298.5 c 128,-1,46
 131 333 131 333 172.5 354 c 128,-1,47
 214 375 214 375 271 375 c 2,48,-1
 446 375 l 1,49,50
 445 395 445 395 444 415.5 c 128,-1,51
 443 436 443 436 443 456 c 0,52,53
 443 557 443 557 468 670 c 1,54,-1
 39 670 l 1,55,-1
 39 899 l 5,56,-1
 949 899 l 5,57,-1
 949 670 l 1,58,-1
 553 670 l 1,59,60
 545 638 545 638 540 603.5 c 128,-1,61
 535 569 535 569 535 528 c 0,62,63
 535 464 535 464 542.5 404 c 128,-1,64
 550 344 550 344 562 293 c 0,65,66
 573 246 573 246 583 209 c 1,20,21
EndSplineSet
Validated: 1
EndChar

StartChar: uniE060
Encoding: 57440 57440 59
Width: 900
Flags: W
LayerCount: 2
Fore
SplineSet
852 118 m 0,0,1
 852 132 852 132 847.5 153.5 c 128,-1,2
 843 175 843 175 832.5 193 c 128,-1,3
 822 211 822 211 802.5 225 c 128,-1,4
 783 239 783 239 756 239 c 0,5,6
 727 239 727 239 708 225 c 128,-1,7
 689 211 689 211 678.5 193 c 128,-1,8
 668 175 668 175 664.5 153.5 c 128,-1,9
 661 132 661 132 661 118 c 0,10,11
 661 103 661 103 664.5 83 c 128,-1,12
 668 63 668 63 678.5 44.5 c 128,-1,13
 689 26 689 26 708 12.5 c 128,-1,14
 727 -1 727 -1 756 -1 c 0,15,16
 783 -1 783 -1 802.5 12.5 c 128,-1,17
 822 26 822 26 832.5 44.5 c 128,-1,18
 843 63 843 63 847.5 83 c 128,-1,19
 852 103 852 103 852 118 c 0,0,1
554 670 m 1,20,21
 546 638 546 638 541 603.5 c 128,-1,22
 536 569 536 569 536 528 c 0,23,24
 536 464 536 464 543.5 404 c 128,-1,25
 551 344 551 344 563 293 c 0,26,27
 574 246 574 246 584 209 c 1,28,29
 606 256 606 256 650 279 c 0,30,31
 693 302 693 302 756 302 c 0,32,33
 843 302 843 302 893 258 c 128,-1,34
 943 214 943 214 943 118 c 256,35,36
 943 22 943 22 893 -35 c 128,-1,37
 843 -92 843 -92 756 -92 c 0,38,39
 668 -92 668 -92 618 -35 c 128,-1,40
 568 22 568 22 568 118 c 2,41,-1
 568 143 l 1,42,-1
 272 143 l 2,43,44
 207 143 207 143 168.5 111 c 128,-1,45
 130 79 130 79 114 26 c 1,46,47
 100 27 100 27 88 37 c 128,-1,48
 76 47 76 47 68 60 c 128,-1,49
 60 73 60 73 54.5 89.5 c 128,-1,50
 49 106 49 106 49 120 c 0,51,52
 49 172 49 172 62.5 218 c 128,-1,53
 76 264 76 264 104 298.5 c 128,-1,54
 132 333 132 333 173.5 354 c 128,-1,55
 215 375 215 375 272 375 c 2,56,-1
 447 375 l 1,57,58
 446 395 446 395 445 415.5 c 128,-1,59
 444 436 444 436 444 456 c 0,60,61
 444 557 444 557 469 670 c 1,62,-1
 0 670 l 1,63,-1
 0 899 l 5,64,-1
 1000 899 l 5,65,-1
 1000 670 l 1,66,-1
 554 670 l 1,20,21
EndSplineSet
Validated: 1
EndChar

StartChar: uniE061
Encoding: 57441 57441 60
Width: 1250
Flags: W
LayerCount: 2
Fore
SplineSet
852 118 m 0,0,1
 852 132 852 132 847.5 153.5 c 128,-1,2
 843 175 843 175 832.5 193 c 128,-1,3
 822 211 822 211 802.5 225 c 128,-1,4
 783 239 783 239 756 239 c 0,5,6
 727 239 727 239 708 225 c 128,-1,7
 689 211 689 211 678.5 193 c 128,-1,8
 668 175 668 175 664.5 153.5 c 128,-1,9
 661 132 661 132 661 118 c 0,10,11
 661 103 661 103 664.5 83 c 128,-1,12
 668 63 668 63 678.5 44.5 c 128,-1,13
 689 26 689 26 708 12.5 c 128,-1,14
 727 -1 727 -1 756 -1 c 0,15,16
 783 -1 783 -1 802.5 12.5 c 128,-1,17
 822 26 822 26 832.5 44.5 c 128,-1,18
 843 63 843 63 847.5 83 c 128,-1,19
 852 103 852 103 852 118 c 0,0,1
554 670 m 1,20,21
 546 638 546 638 541 603.5 c 128,-1,22
 536 569 536 569 536 528 c 0,23,24
 536 464 536 464 543.5 404 c 128,-1,25
 551 344 551 344 563 293 c 0,26,27
 574 246 574 246 584 209 c 1,28,29
 606 256 606 256 650 279 c 0,30,31
 693 302 693 302 756 302 c 0,32,33
 843 302 843 302 893 258 c 128,-1,34
 943 214 943 214 943 118 c 256,35,36
 943 22 943 22 893 -35 c 128,-1,37
 843 -92 843 -92 756 -92 c 0,38,39
 668 -92 668 -92 618 -35 c 128,-1,40
 568 22 568 22 568 118 c 2,41,-1
 568 143 l 1,42,-1
 272 143 l 2,43,44
 207 143 207 143 168.5 111 c 128,-1,45
 130 79 130 79 114 26 c 1,46,47
 100 27 100 27 88 37 c 128,-1,48
 76 47 76 47 68 60 c 128,-1,49
 60 73 60 73 54.5 89.5 c 128,-1,50
 49 106 49 106 49 120 c 0,51,52
 49 172 49 172 62.5 218 c 128,-1,53
 76 264 76 264 104 298.5 c 128,-1,54
 132 333 132 333 173.5 354 c 128,-1,55
 215 375 215 375 272 375 c 2,56,-1
 447 375 l 1,57,58
 446 395 446 395 445 415.5 c 128,-1,59
 444 436 444 436 444 456 c 0,60,61
 444 557 444 557 469 670 c 1,62,-1
 0 670 l 1,63,-1
 0 899 l 5,64,-1
 1029 899 l 5,65,66
 1122 892 1122 892 1175.5 822 c 128,-1,67
 1229 752 1229 752 1229 632 c 2,68,-1
 1229 511 l 2,69,70
 1229 439 1229 439 1204 395.5 c 128,-1,71
 1179 352 1179 352 1142 352 c 1,72,-1
 1142 375 l 2,73,74
 1142 511 1142 511 1091 588.5 c 128,-1,75
 1040 666 1040 666 941 670 c 1,76,-1
 554 670 l 1,20,21
EndSplineSet
Validated: 1
EndChar

StartChar: uniE062
Encoding: 57442 57442 61
Width: 994
Flags: W
LayerCount: 2
Fore
SplineSet
1104 899 m 5,0,-1
 1104 670 l 5,1,-1
 645 670 l 1,2,3
 638 638 638 638 632 603.5 c 128,-1,4
 626 569 626 569 626 526 c 0,5,6
 626 378 626 378 648.5 274.5 c 128,-1,7
 671 171 671 171 705 106.5 c 128,-1,8
 739 42 739 42 782.5 12 c 128,-1,9
 826 -18 826 -18 869 -18 c 0,10,11
 905 -18 905 -18 926.5 -3.5 c 128,-1,12
 948 11 948 11 963.5 28 c 128,-1,13
 979 45 979 45 988.5 58.5 c 128,-1,14
 998 72 998 72 1010 72 c 0,15,16
 1031 72 1031 72 1041 51 c 128,-1,17
 1051 30 1051 30 1051 -5 c 0,18,19
 1051 -45 1051 -45 1036.5 -79.5 c 128,-1,20
 1022 -114 1022 -114 997.5 -140 c 128,-1,21
 973 -166 973 -166 940 -181 c 128,-1,22
 907 -196 907 -196 869 -196 c 0,23,24
 810 -196 810 -196 769 -173.5 c 128,-1,25
 728 -151 728 -151 695 -108 c 128,-1,26
 662 -65 662 -65 637.5 -2 c 128,-1,27
 613 61 613 61 591 143 c 1,28,-1
 362 143 l 2,29,30
 299 143 299 143 260.5 111 c 128,-1,31
 222 79 222 79 204 25 c 1,32,33
 191 27 191 27 179.5 37 c 128,-1,34
 168 47 168 47 159 59.5 c 128,-1,35
 150 72 150 72 145.5 89 c 128,-1,36
 141 106 141 106 141 119 c 0,37,38
 141 173 141 173 154.5 219 c 128,-1,39
 168 265 168 265 196 299.5 c 128,-1,40
 224 334 224 334 266 353.5 c 128,-1,41
 308 373 308 373 362 373 c 2,42,-1
 539 373 l 1,43,44
 537 395 537 395 535.5 415.5 c 128,-1,45
 534 436 534 436 534 454 c 0,46,47
 534 557 534 557 561 670 c 1,48,-1
 133 670 l 1,49,-1
 133 899 l 1,50,-1
 1104 899 l 5,0,-1
EndSplineSet
Validated: 1
EndChar

StartChar: uniE077
Encoding: 57463 57463 62
Width: 1386
Flags: W
LayerCount: 2
Fore
SplineSet
1257 438 m 2,0,-1
 1257 23 l 2,1,2
 1257 -63 1257 -63 1242 -128 c 128,-1,3
 1227 -193 1227 -193 1196 -241 c 128,-1,4
 1165 -289 1165 -289 1119 -322.5 c 128,-1,5
 1073 -356 1073 -356 1016 -383 c 0,6,7
 981 -397 981 -397 960.5 -409.5 c 128,-1,8
 940 -422 940 -422 925.5 -435.5 c 128,-1,9
 911 -449 911 -449 901 -466 c 128,-1,10
 891 -483 891 -483 879 -512 c 1,11,-1
 854 -512 l 1,12,-1
 922 -225 l 1,13,14
 936 -221 936 -221 949.5 -217 c 128,-1,15
 963 -213 963 -213 978 -209 c 128,-1,16
 993 -205 993 -205 1010.5 -194.5 c 128,-1,17
 1028 -184 1028 -184 1055 -170 c 0,18,19
 1069 -162 1069 -162 1089.5 -148.5 c 128,-1,20
 1110 -135 1110 -135 1126.5 -112.5 c 128,-1,21
 1143 -90 1143 -90 1154 -57.5 c 128,-1,22
 1165 -25 1165 -25 1165 23 c 2,23,-1
 1165 438 l 2,24,25
 1165 553 1165 553 1122 611.5 c 128,-1,26
 1079 670 1079 670 1004 670 c 2,27,-1
 797 670 l 1,28,-1
 797 899 l 1,29,-1
 1004 899 l 2,30,31
 1131 899 1131 899 1194 785 c 128,-1,32
 1257 671 1257 671 1257 438 c 2,0,-1
967 295 m 0,33,34
 967 281 967 281 957.5 270.5 c 128,-1,35
 948 260 948 260 938 250 c 128,-1,36
 928 240 928 240 911.5 226.5 c 128,-1,37
 895 213 895 213 881 201 c 0,38,39
 867 185 867 185 856.5 170.5 c 128,-1,40
 846 156 846 156 837.5 144.5 c 128,-1,41
 829 133 829 133 822 126 c 128,-1,42
 815 119 815 119 805 119 c 0,43,44
 785 119 785 119 769.5 130 c 128,-1,45
 754 141 754 141 754 164 c 0,46,47
 754 195 754 195 759 218.5 c 128,-1,48
 764 242 764 242 772 270 c 0,49,50
 778 290 778 290 788.5 310 c 128,-1,51
 799 330 799 330 813 346 c 128,-1,52
 827 362 827 362 843.5 373.5 c 128,-1,53
 860 385 860 385 879 385 c 0,54,55
 897 385 897 385 924 362 c 0,56,57
 967 326 967 326 967 295 c 0,33,34
854 1395 m 1,58,59
 762 1276 762 1276 697.5 1183 c 128,-1,60
 633 1090 633 1090 565.5 919 c 128,-1,61
 498 748 498 748 441.5 545 c 128,-1,62
 385 342 385 342 385 145 c 1,63,64
 313 182 313 182 251.5 245.5 c 128,-1,65
 190 309 190 309 144 383 c 128,-1,66
 98 457 98 457 69.5 532.5 c 128,-1,67
 41 608 41 608 37 670 c 1,68,-1
 0 670 l 1,69,-1
 0 899 l 1,70,-1
 121 899 l 1,71,-1
 121 762 l 2,72,73
 121 715 121 715 138.5 654.5 c 128,-1,74
 156 594 156 594 181.5 535.5 c 128,-1,75
 207 477 207 477 233.5 431 c 128,-1,76
 260 385 260 385 285 365 c 1,77,78
 279 383 279 383 279 416 c 0,79,80
 279 436 279 436 283 463 c 0,81,82
 289 526 289 526 316.5 655 c 128,-1,83
 344 784 344 784 431 1002.5 c 128,-1,84
 518 1221 518 1221 558 1370.5 c 128,-1,85
 598 1520 598 1520 598 1561 c 0,86,87
 598 1588 598 1588 593 1620.5 c 128,-1,88
 588 1653 588 1653 581.5 1687.5 c 128,-1,89
 575 1722 575 1722 568 1752 c 128,-1,90
 561 1782 561 1782 561 1790 c 0,91,92
 561 1825 561 1825 570.5 1840 c 128,-1,93
 580 1855 580 1855 604 1855 c 0,94,95
 610 1855 610 1855 624.5 1838 c 128,-1,96
 639 1821 639 1821 651 1796 c 0,97,98
 682 1739 682 1739 705.5 1692 c 128,-1,99
 729 1645 729 1645 751.5 1597.5 c 128,-1,100
 774 1550 774 1550 799.5 1501 c 128,-1,101
 825 1452 825 1452 854 1395 c 1,58,59
EndSplineSet
Validated: 1
EndChar

StartChar: uniE079
Encoding: 57465 57465 63
Width: 1736
Flags: W
LayerCount: 2
Fore
SplineSet
535 670 m 1,0,-1
 205 670 l 1,1,2
 205 602 205 602 207 543.5 c 128,-1,3
 209 485 209 485 223.5 442 c 128,-1,4
 238 399 238 399 272.5 374.5 c 128,-1,5
 307 350 307 350 371 350 c 0,6,7
 432 350 432 350 465 373.5 c 128,-1,8
 498 397 498 397 514 440 c 128,-1,9
 530 483 530 483 532.5 540.5 c 128,-1,10
 535 598 535 598 535 670 c 1,0,-1
879 670 m 1,11,12
 897 598 897 598 923.5 541.5 c 128,-1,13
 950 485 950 485 977 443 c 128,-1,14
 1004 401 1004 401 1030.5 370.5 c 128,-1,15
 1057 340 1057 340 1071 315 c 1,16,-1
 1032 113 l 1,17,-1
 1004 113 l 1,18,19
 910 222 910 222 846 410 c 128,-1,20
 782 598 782 598 755.5 767 c 128,-1,21
 729 936 729 936 701.5 1005.5 c 128,-1,22
 674 1075 674 1075 637 1122 c 128,-1,23
 600 1169 600 1169 558 1196 c 128,-1,24
 516 1223 516 1223 471 1223 c 0,25,26
 266 1223 266 1223 209 899 c 1,27,-1
 510 899 l 2,28,29
 614 899 614 899 614 795 c 0,30,31
 614 793 614 793 614 791 c 2,32,-1
 614 553 l 2,33,34
 614 483 614 483 603 414.5 c 128,-1,35
 592 346 592 346 563.5 292 c 128,-1,36
 535 238 535 238 487.5 204 c 128,-1,37
 440 170 440 170 371 170 c 0,38,39
 316 170 316 170 276 195.5 c 128,-1,40
 236 221 236 221 209 262 c 128,-1,41
 182 303 182 303 163.5 355.5 c 128,-1,42
 145 408 145 408 136 461 c 128,-1,43
 127 514 127 514 125 570.5 c 128,-1,44
 123 627 123 627 123 670 c 2,45,-1
 123 901 l 1,46,47
 139 1155 139 1155 226 1290 c 128,-1,48
 313 1425 313 1425 471 1425 c 0,49,50
 551 1425 551 1425 610.5 1376 c 128,-1,51
 670 1327 670 1327 712 1252.5 c 128,-1,52
 754 1178 754 1178 779.5 1084.5 c 128,-1,53
 805 991 805 991 813 899 c 1,54,-1
 1380 899 l 1,55,56
 1474 893 1474 893 1526.5 823.5 c 128,-1,57
 1579 754 1579 754 1579 637 c 2,58,-1
 1579 516 l 2,59,60
 1579 444 1579 444 1554.5 400 c 128,-1,61
 1530 356 1530 356 1491 356 c 1,62,-1
 1491 379 l 2,63,64
 1491 516 1491 516 1441 591 c 128,-1,65
 1391 666 1391 666 1290 670 c 1,66,-1
 879 670 l 1,11,12
EndSplineSet
Validated: 1
EndChar

StartChar: uniE07A
Encoding: 57466 57466 64
Width: 1093
Flags: W
LayerCount: 2
Fore
SplineSet
950 901 m 1,0,-1
 950 666 l 2,1,2
 950 560 950 560 938 476.5 c 128,-1,3
 926 393 926 393 900 334.5 c 128,-1,4
 874 276 874 276 835.5 245.5 c 128,-1,5
 797 215 797 215 737 215 c 0,6,7
 643 215 643 215 593 285.5 c 128,-1,8
 543 356 543 356 539 500 c 1,9,10
 535 359 535 359 484.5 287 c 128,-1,11
 434 215 434 215 340 215 c 0,12,13
 283 215 283 215 242 245.5 c 128,-1,14
 201 276 201 276 176.5 334.5 c 128,-1,15
 152 393 152 393 140.5 476 c 128,-1,16
 129 559 129 559 129 666 c 2,17,-1
 129 901 l 1,18,19
 135 1028 135 1028 172 1127.5 c 128,-1,20
 209 1227 209 1227 264 1293.5 c 128,-1,21
 319 1360 319 1360 391 1395 c 128,-1,22
 463 1430 463 1430 543 1430 c 0,23,24
 652 1430 652 1430 725.5 1383.5 c 128,-1,25
 799 1337 799 1337 848 1263.5 c 128,-1,26
 897 1190 897 1190 921.5 1093.5 c 128,-1,27
 946 997 946 997 950 901 c 1,0,-1
852 899 m 1,28,29
 846 950 846 950 827.5 1008.5 c 128,-1,30
 809 1067 809 1067 772 1113 c 128,-1,31
 735 1159 735 1159 679 1192 c 128,-1,32
 623 1225 623 1225 543 1225 c 0,33,34
 490 1225 490 1225 437.5 1203.5 c 128,-1,35
 385 1182 385 1182 340 1142 c 128,-1,36
 295 1102 295 1102 263 1041.5 c 128,-1,37
 231 981 231 981 217 899 c 1,38,-1
 428 899 l 2,39,40
 479 899 479 899 507 868.5 c 128,-1,41
 535 838 535 838 539 786 c 1,42,43
 541 837 541 837 568.5 868 c 128,-1,44
 596 899 596 899 649 899 c 2,45,-1
 852 899 l 1,28,29
459 670 m 1,46,-1
 213 670 l 1,47,48
 213 531 213 531 237.5 463 c 128,-1,49
 262 395 262 395 340 395 c 0,50,51
 379 395 379 395 401.5 410.5 c 128,-1,52
 424 426 424 426 435 460 c 128,-1,53
 446 494 446 494 452.5 544 c 128,-1,54
 459 594 459 594 459 670 c 1,46,-1
866 670 m 1,55,-1
 623 670 l 1,56,57
 623 594 623 594 626 544 c 128,-1,58
 629 494 629 494 641 460 c 128,-1,59
 653 426 653 426 676.5 410.5 c 128,-1,60
 700 395 700 395 737 395 c 0,61,62
 815 395 815 395 840.5 463 c 128,-1,63
 866 531 866 531 866 670 c 1,55,-1
EndSplineSet
Validated: 1
EndChar

StartChar: uniE07B
Encoding: 57467 57467 65
Width: 1562
Flags: W
LayerCount: 2
Fore
SplineSet
872 899 m 5,0,1
 866 950 866 950 847.5 1008.5 c 132,-1,2
 829 1067 829 1067 792.5 1113 c 132,-1,3
 756 1159 756 1159 699.5 1192 c 132,-1,4
 643 1225 643 1225 563 1225 c 0,5,6
 510 1225 510 1225 458 1203.5 c 128,-1,7
 406 1182 406 1182 360.5 1142 c 132,-1,8
 315 1102 315 1102 283.5 1041.5 c 132,-1,9
 252 981 252 981 238 899 c 1,10,-1
 451 899 l 6,11,12
 502 899 502 899 528.5 868.5 c 132,-1,13
 555 838 555 838 559 786 c 5,14,15
 563 837 563 837 589.5 868 c 132,-1,16
 616 899 616 899 670 899 c 6,17,-1
 872 899 l 5,0,1
889 670 m 1,18,-1
 643 670 l 5,19,20
 643 596 643 596 646 545 c 128,-1,21
 649 494 649 494 661.5 460 c 128,-1,22
 674 426 674 426 697.5 410.5 c 128,-1,23
 721 395 721 395 758 395 c 0,24,25
 836 395 836 395 862.5 463 c 128,-1,26
 889 531 889 531 889 670 c 1,18,-1
479 670 m 5,27,-1
 233 670 l 1,28,29
 233 531 233 531 258 463 c 128,-1,30
 283 395 283 395 360 395 c 0,31,32
 397 395 397 395 420.5 410.5 c 128,-1,33
 444 426 444 426 456.5 460 c 128,-1,34
 469 494 469 494 474 544 c 128,-1,35
 479 594 479 594 479 670 c 5,27,-1
152 670 m 9,36,-1
 152 899 l 17,37,-1
 152 901 l 1,38,39
 158 1028 158 1028 193.5 1127.5 c 128,-1,40
 229 1227 229 1227 284.5 1293.5 c 128,-1,41
 340 1360 340 1360 411.5 1395 c 128,-1,42
 483 1430 483 1430 563 1430 c 0,43,44
 672 1430 672 1430 745.5 1383.5 c 128,-1,45
 819 1337 819 1337 868.5 1263.5 c 128,-1,46
 918 1190 918 1190 942.5 1093.5 c 128,-1,47
 967 997 967 997 971 901 c 1,48,-1
 971 899 l 1,49,-1
 1206 899 l 1,50,51
 1302 895 1302 895 1353.5 825.5 c 128,-1,52
 1405 756 1405 756 1405 637 c 2,53,-1
 1405 516 l 2,54,55
 1405 444 1405 444 1381.5 400 c 128,-1,56
 1358 356 1358 356 1319 356 c 1,57,-1
 1319 379 l 2,58,59
 1319 516 1319 516 1269 591 c 128,-1,60
 1219 666 1219 666 1118 670 c 1,61,-1
 971 670 l 1,62,-1
 971 666 l 2,63,64
 971 560 971 560 958.5 476.5 c 128,-1,65
 946 393 946 393 920.5 334.5 c 128,-1,66
 895 276 895 276 856 245.5 c 128,-1,67
 817 215 817 215 758 215 c 0,68,69
 664 215 664 215 612.5 286.5 c 128,-1,70
 561 358 561 358 559 500 c 1,71,72
 555 357 555 357 505 286 c 128,-1,73
 455 215 455 215 360 215 c 0,74,75
 301 215 301 215 261 245.5 c 128,-1,76
 221 276 221 276 196.5 334.5 c 128,-1,77
 172 393 172 393 162 476 c 128,-1,78
 152 559 152 559 152 666 c 2,79,-1
 152 670 l 9,36,-1
EndSplineSet
Validated: 1
EndChar

StartChar: uniE07C
Encoding: 57468 57468 66
Width: 1073
Flags: W
LayerCount: 2
Fore
SplineSet
528 670 m 1,0,-1
 197 670 l 1,1,2
 197 604 197 604 199 545.5 c 128,-1,3
 201 487 201 487 216 444 c 128,-1,4
 231 401 231 401 265 376.5 c 128,-1,5
 299 352 299 352 360 352 c 0,6,7
 423 352 423 352 457.5 375.5 c 128,-1,8
 492 399 492 399 507 441 c 128,-1,9
 522 483 522 483 525 541.5 c 128,-1,10
 528 600 528 600 528 670 c 1,0,-1
723 809 m 0,11,12
 721 887 721 887 702 961 c 0,13,14
 682 1041 682 1041 648 1098 c 128,-1,15
 614 1155 614 1155 570 1188 c 128,-1,16
 526 1221 526 1221 467 1221 c 0,17,18
 260 1221 260 1221 201 899 c 1,19,-1
 504 899 l 2,20,21
 611 899 611 899 610 795 c 0,22,23
 610 793 610 793 610 791 c 2,24,-1
 610 555 l 2,25,26
 610 481 610 481 598 411.5 c 128,-1,27
 586 342 586 342 557 289 c 128,-1,28
 528 236 528 236 481 203 c 128,-1,29
 434 170 434 170 360 170 c 0,30,31
 307 170 307 170 268 194.5 c 128,-1,32
 229 219 229 219 201.5 260 c 128,-1,33
 174 301 174 301 156.5 353.5 c 128,-1,34
 139 406 139 406 130 460 c 128,-1,35
 121 514 121 514 118 569.5 c 128,-1,36
 115 625 115 625 115 670 c 2,37,-1
 115 901 l 1,38,39
 133 1157 133 1157 220 1291 c 128,-1,40
 307 1425 307 1425 467 1425 c 0,41,42
 545 1425 545 1425 604.5 1387.5 c 128,-1,43
 664 1350 664 1350 707 1280 c 128,-1,44
 750 1210 750 1210 775.5 1114 c 128,-1,45
 801 1018 801 1018 811 899 c 1,46,-1
 1176 899 l 1,47,-1
 1176 670 l 1,48,-1
 911 670 l 1,49,50
 909 639 909 639 903 585.5 c 128,-1,51
 897 532 897 532 892 473 c 128,-1,52
 887 414 887 414 878.5 360.5 c 128,-1,53
 870 307 870 307 860 276 c 1,54,-1
 815 260 l 1,55,56
 774 354 774 354 751.5 459.5 c 128,-1,57
 729 565 729 565 723 809 c 0,11,12
EndSplineSet
Validated: 33
EndChar

StartChar: uniE07D
Encoding: 57469 57469 67
Width: 1079
Flags: W
LayerCount: 2
Fore
SplineSet
121 670 m 9,0,1
 0 670 l 25,2,-1
 0 899 l 25,3,-1
 121 899 l 1,4,-1
 121 901 l 1,5,6
 139 1157 139 1157 226 1291 c 128,-1,7
 313 1425 313 1425 473 1425 c 0,8,9
 551 1425 551 1425 611.5 1387.5 c 128,-1,10
 672 1350 672 1350 714 1280 c 128,-1,11
 756 1210 756 1210 782.5 1114 c 128,-1,12
 809 1018 809 1018 817 899 c 1,13,-1
 1182 899 l 1,14,-1
 1182 670 l 1,15,-1
 920 670 l 1,16,17
 918 639 918 639 911.5 585.5 c 128,-1,18
 905 532 905 532 899 473 c 128,-1,19
 893 414 893 414 885 360.5 c 128,-1,20
 877 307 877 307 866 276 c 1,21,-1
 821 260 l 1,22,23
 780 354 780 354 758.5 458.5 c 128,-1,24
 737 563 737 563 729 809 c 0,25,26
 727 887 727 887 709 961 c 0,27,28
 689 1041 689 1041 656 1098 c 128,-1,29
 623 1155 623 1155 577.5 1188 c 128,-1,30
 532 1221 532 1221 473 1221 c 0,31,32
 266 1221 266 1221 209 899 c 1,33,-1
 510 899 l 2,34,35
 619 899 619 899 618 791 c 2,36,-1
 618 555 l 2,37,38
 618 481 618 481 606 411.5 c 128,-1,39
 594 342 594 342 564.5 289 c 128,-1,40
 535 236 535 236 487.5 203 c 128,-1,41
 440 170 440 170 369 170 c 0,42,43
 316 170 316 170 276 194.5 c 128,-1,44
 236 219 236 219 208 260 c 128,-1,45
 180 301 180 301 163.5 353.5 c 128,-1,46
 147 406 147 406 137 460 c 128,-1,47
 127 514 127 514 124 569.5 c 128,-1,48
 121 625 121 625 121 670 c 9,0,1
203 670 m 5,49,50
 203 604 203 604 206 545.5 c 132,-1,51
 209 487 209 487 223.5 444 c 132,-1,52
 238 401 238 401 271.5 376.5 c 132,-1,53
 305 352 305 352 369 352 c 4,54,55
 432 352 432 352 466 375.5 c 132,-1,56
 500 399 500 399 515 441 c 132,-1,57
 530 483 530 483 532.5 541.5 c 132,-1,58
 535 600 535 600 535 670 c 5,59,-1
 203 670 l 5,49,50
EndSplineSet
Validated: 33
EndChar

StartChar: uniE07F
Encoding: 57471 57471 68
Width: 1189
Flags: W
LayerCount: 2
Fore
SplineSet
1290 899 m 1,0,-1
 1290 670 l 1,1,-1
 885 670 l 1,2,3
 903 598 903 598 929.5 541.5 c 128,-1,4
 956 485 956 485 983 443 c 128,-1,5
 1010 401 1010 401 1036.5 370.5 c 128,-1,6
 1063 340 1063 340 1077 315 c 1,7,-1
 1038 113 l 1,8,-1
 1010 113 l 1,9,10
 916 222 916 222 852 410 c 128,-1,11
 788 598 788 598 761.5 767 c 128,-1,12
 735 936 735 936 707.5 1005.5 c 128,-1,13
 680 1075 680 1075 643 1122 c 128,-1,14
 606 1169 606 1169 564 1196 c 128,-1,15
 522 1223 522 1223 477 1223 c 0,16,17
 272 1223 272 1223 213 899 c 1,18,-1
 514 899 l 2,19,20
 620 899 620 899 621 791 c 2,21,-1
 621 553 l 2,22,23
 621 483 621 483 609.5 414.5 c 128,-1,24
 598 346 598 346 569.5 292 c 128,-1,25
 541 238 541 238 493.5 204 c 128,-1,26
 446 170 446 170 377 170 c 0,27,28
 322 170 322 170 282 195.5 c 128,-1,29
 242 221 242 221 215 262 c 128,-1,30
 188 303 188 303 170 355.5 c 128,-1,31
 152 408 152 408 142.5 461 c 128,-1,32
 133 514 133 514 131 570.5 c 128,-1,33
 129 627 129 627 129 670 c 2,34,-1
 129 901 l 1,35,36
 145 1155 145 1155 232 1290 c 128,-1,37
 319 1425 319 1425 477 1425 c 0,38,39
 557 1425 557 1425 616.5 1376 c 128,-1,40
 676 1327 676 1327 718 1252.5 c 128,-1,41
 760 1178 760 1178 785.5 1084.5 c 128,-1,42
 811 991 811 991 819 899 c 1,43,-1
 1290 899 l 1,0,-1
541 670 m 1,44,-1
 211 670 l 1,45,46
 211 602 211 602 212 543.5 c 128,-1,47
 213 485 213 485 228.5 442 c 128,-1,48
 244 399 244 399 278.5 374.5 c 128,-1,49
 313 350 313 350 377 350 c 0,50,51
 438 350 438 350 471 373.5 c 128,-1,52
 504 397 504 397 520.5 440 c 128,-1,53
 537 483 537 483 539 540.5 c 128,-1,54
 541 598 541 598 541 670 c 1,44,-1
EndSplineSet
Validated: 1
EndChar

StartChar: uniE080
Encoding: 57472 57472 69
Width: 1206
Flags: W
LayerCount: 2
Fore
SplineSet
532 899 m 2,0,1
 638 899 638 899 639 791 c 2,2,-1
 639 553 l 2,3,4
 639 483 639 483 627.5 414.5 c 128,-1,5
 616 346 616 346 587.5 292 c 128,-1,6
 559 238 559 238 512 204 c 128,-1,7
 465 170 465 170 393 170 c 0,8,9
 338 170 338 170 299 195.5 c 128,-1,10
 260 221 260 221 233.5 262 c 128,-1,11
 207 303 207 303 188.5 355.5 c 128,-1,12
 170 408 170 408 161 461 c 128,-1,13
 152 514 152 514 149.5 570.5 c 128,-1,14
 147 627 147 627 147 670 c 1,15,-1
 0 670 l 1,16,-1
 0 899 l 5,17,-1
 147 899 l 1,18,-1
 147 901 l 1,19,20
 163 1155 163 1155 250.5 1290 c 128,-1,21
 338 1425 338 1425 496 1425 c 0,22,23
 576 1425 576 1425 634 1376 c 128,-1,24
 692 1327 692 1327 735 1252.5 c 128,-1,25
 778 1178 778 1178 802.5 1084.5 c 128,-1,26
 827 991 827 991 838 899 c 1,27,-1
 1309 899 l 1,28,-1
 1309 670 l 1,29,-1
 903 670 l 1,30,31
 921 598 921 598 948 541.5 c 128,-1,32
 975 485 975 485 1001.5 443 c 128,-1,33
 1028 401 1028 401 1053.5 370.5 c 128,-1,34
 1079 340 1079 340 1096 315 c 1,35,-1
 1057 113 l 1,36,-1
 1028 113 l 1,37,38
 934 222 934 222 870.5 410 c 128,-1,39
 807 598 807 598 780.5 767 c 128,-1,40
 754 936 754 936 726 1005.5 c 128,-1,41
 698 1075 698 1075 661.5 1122 c 128,-1,42
 625 1169 625 1169 583 1196 c 128,-1,43
 541 1223 541 1223 496 1223 c 0,44,45
 291 1223 291 1223 231 899 c 1,46,-1
 532 899 l 2,0,1
227 670 m 1,47,48
 227 602 227 602 229 543.5 c 128,-1,49
 231 485 231 485 246.5 442 c 128,-1,50
 262 399 262 399 297 374.5 c 128,-1,51
 332 350 332 350 393 350 c 0,52,53
 454 350 454 350 488 373.5 c 128,-1,54
 522 397 522 397 538.5 440 c 128,-1,55
 555 483 555 483 557 540.5 c 128,-1,56
 559 598 559 598 559 670 c 1,57,-1
 227 670 l 1,47,48
EndSplineSet
Validated: 1
EndChar

StartChar: uniE081
Encoding: 57473 57473 70
Width: 1753
Flags: W
LayerCount: 2
Fore
SplineSet
565 670 m 1,0,-1
 233 670 l 1,1,2
 233 602 233 602 235.5 543.5 c 128,-1,3
 238 485 238 485 253 442 c 128,-1,4
 268 399 268 399 303 374.5 c 128,-1,5
 338 350 338 350 399 350 c 0,6,7
 460 350 460 350 494 373.5 c 128,-1,8
 528 397 528 397 543.5 440 c 128,-1,9
 559 483 559 483 562 540.5 c 128,-1,10
 565 598 565 598 565 670 c 1,0,-1
154 899 m 1,11,-1
 154 901 l 1,12,13
 170 1155 170 1155 257 1290 c 128,-1,14
 344 1425 344 1425 502 1425 c 0,15,16
 582 1425 582 1425 640 1376 c 128,-1,17
 698 1327 698 1327 741 1252.5 c 128,-1,18
 784 1178 784 1178 809 1084.5 c 128,-1,19
 834 991 834 991 844 899 c 1,20,-1
 1409 899 l 1,21,22
 1503 893 1503 893 1555.5 823.5 c 128,-1,23
 1608 754 1608 754 1608 637 c 2,24,-1
 1608 516 l 2,25,26
 1608 444 1608 444 1583.5 400 c 128,-1,27
 1559 356 1559 356 1522 356 c 1,28,-1
 1522 379 l 2,29,30
 1522 516 1522 516 1471.5 591 c 128,-1,31
 1421 666 1421 666 1321 670 c 1,32,-1
 909 670 l 1,33,34
 927 598 927 598 954 541.5 c 128,-1,35
 981 485 981 485 1007.5 443 c 128,-1,36
 1034 401 1034 401 1059.5 370.5 c 128,-1,37
 1085 340 1085 340 1102 315 c 1,38,-1
 1063 113 l 1,39,-1
 1034 113 l 1,40,41
 940 222 940 222 877 410 c 0,42,43
 820 582 820 582 774 844 c 0,44,45
 760 936 760 936 732.5 1005.5 c 128,-1,46
 705 1075 705 1075 668 1122 c 128,-1,47
 631 1169 631 1169 589 1196 c 128,-1,48
 547 1223 547 1223 502 1223 c 0,49,50
 297 1223 297 1223 238 899 c 1,51,-1
 539 899 l 2,52,53
 645 899 645 899 645 791 c 2,54,-1
 645 553 l 2,55,56
 645 483 645 483 634 414.5 c 128,-1,57
 623 346 623 346 594 292 c 128,-1,58
 565 238 565 238 517 204 c 128,-1,59
 469 170 469 170 399 170 c 0,60,61
 344 170 344 170 305 195.5 c 128,-1,62
 266 221 266 221 239.5 262 c 128,-1,63
 213 303 213 303 194.5 355.5 c 128,-1,64
 176 408 176 408 167 461 c 128,-1,65
 158 514 158 514 156 570.5 c 128,-1,66
 154 627 154 627 154 670 c 1,67,-1
 0 670 l 1,68,-1
 0 899 l 1,69,-1
 154 899 l 1,11,-1
EndSplineSet
Validated: 1
EndChar

StartChar: uniE082
Encoding: 57474 57474 71
Width: 980
Flags: W
LayerCount: 2
Fore
SplineSet
842 899 m 1,0,1
 836 950 836 950 818.5 1008.5 c 128,-1,2
 801 1067 801 1067 763 1113 c 128,-1,3
 725 1159 725 1159 668.5 1192 c 128,-1,4
 612 1225 612 1225 532 1225 c 0,5,6
 479 1225 479 1225 427 1203.5 c 128,-1,7
 375 1182 375 1182 330 1142 c 128,-1,8
 285 1102 285 1102 253 1041.5 c 128,-1,9
 221 981 221 981 209 899 c 1,10,-1
 420 899 l 2,11,12
 471 899 471 899 498.5 868.5 c 128,-1,13
 526 838 526 838 530 786 c 1,14,15
 532 837 532 837 560 868 c 0,16,17
 586 899 586 899 639 899 c 2,18,-1
 842 899 l 1,0,1
858 670 m 1,19,-1
 612 670 l 1,20,21
 612 594 612 594 616.5 544 c 128,-1,22
 621 494 621 494 632 460 c 128,-1,23
 643 426 643 426 666.5 410.5 c 128,-1,24
 690 395 690 395 727 395 c 0,25,26
 805 395 805 395 831.5 463 c 128,-1,27
 858 531 858 531 858 670 c 1,19,-1
449 670 m 1,28,-1
 205 670 l 1,29,30
 205 531 205 531 229.5 463 c 128,-1,31
 254 395 254 395 330 395 c 0,32,33
 369 395 369 395 392.5 410.5 c 128,-1,34
 416 426 416 426 427 460 c 128,-1,35
 438 494 438 494 443.5 544 c 128,-1,36
 449 594 449 594 449 670 c 1,28,-1
940 670 m 1,37,-1
 940 666 l 2,38,39
 940 560 940 560 929 476.5 c 128,-1,40
 918 393 918 393 891 334.5 c 128,-1,41
 864 276 864 276 826 245.5 c 128,-1,42
 788 215 788 215 727 215 c 0,43,44
 633 215 633 215 582.5 285.5 c 128,-1,45
 532 356 532 356 530 500 c 1,46,47
 526 359 526 359 476 287 c 128,-1,48
 426 215 426 215 330 215 c 0,49,50
 273 215 273 215 231.5 245.5 c 128,-1,51
 190 276 190 276 165.5 334.5 c 128,-1,52
 141 393 141 393 131 476 c 128,-1,53
 121 559 121 559 121 666 c 2,54,-1
 121 901 l 1,55,56
 127 1028 127 1028 163 1127.5 c 128,-1,57
 199 1227 199 1227 254 1293.5 c 128,-1,58
 309 1360 309 1360 381 1395 c 128,-1,59
 453 1430 453 1430 532 1430 c 0,60,61
 641 1430 641 1430 716 1383.5 c 128,-1,62
 791 1337 791 1337 839 1263.5 c 128,-1,63
 887 1190 887 1190 911.5 1093.5 c 128,-1,64
 936 997 936 997 940 901 c 1,65,-1
 940 899 l 1,66,-1
 1081 899 l 1,67,-1
 1081 670 l 1,68,-1
 940 670 l 1,37,-1
EndSplineSet
Validated: 1
EndChar

StartChar: uniE083
Encoding: 57475 57475 72
Width: 995
Flags: W
LayerCount: 2
Fore
SplineSet
856 899 m 1,0,1
 850 950 850 950 832.5 1008.5 c 128,-1,2
 815 1067 815 1067 778 1113 c 128,-1,3
 741 1159 741 1159 685 1192 c 128,-1,4
 629 1225 629 1225 549 1225 c 0,5,6
 496 1225 496 1225 442.5 1203.5 c 128,-1,7
 389 1182 389 1182 344 1142 c 128,-1,8
 299 1102 299 1102 268.5 1041.5 c 128,-1,9
 238 981 238 981 223 899 c 1,10,-1
 434 899 l 2,11,12
 485 899 485 899 513 868.5 c 128,-1,13
 541 838 541 838 545 786 c 1,14,15
 547 837 547 837 574.5 868 c 128,-1,16
 602 899 602 899 655 899 c 2,17,-1
 856 899 l 1,0,1
465 670 m 1,18,-1
 219 670 l 1,19,20
 219 531 219 531 243.5 463 c 128,-1,21
 268 395 268 395 344 395 c 0,22,23
 383 395 383 395 406.5 410.5 c 128,-1,24
 430 426 430 426 441.5 460 c 128,-1,25
 453 494 453 494 459 544 c 128,-1,26
 465 594 465 594 465 670 c 1,18,-1
872 670 m 1,27,-1
 629 670 l 1,28,29
 629 594 629 594 632 544 c 128,-1,30
 635 494 635 494 647 460 c 128,-1,31
 659 426 659 426 683 410.5 c 128,-1,32
 707 395 707 395 743 395 c 0,33,34
 821 395 821 395 846.5 463 c 128,-1,35
 872 531 872 531 872 670 c 1,27,-1
956 670 m 1,36,-1
 956 666 l 2,37,38
 956 560 956 560 944 476.5 c 128,-1,39
 932 393 932 393 906.5 334.5 c 128,-1,40
 881 276 881 276 842 245.5 c 128,-1,41
 803 215 803 215 743 215 c 0,42,43
 649 215 649 215 599 285.5 c 128,-1,44
 549 356 549 356 545 500 c 1,45,46
 541 359 541 359 490.5 287 c 128,-1,47
 440 215 440 215 344 215 c 0,48,49
 287 215 287 215 247 245.5 c 128,-1,50
 207 276 207 276 182.5 334.5 c 128,-1,51
 158 393 158 393 146.5 476 c 128,-1,52
 135 559 135 559 135 666 c 2,53,-1
 135 670 l 1,54,-1
 0 670 l 5,55,-1
 0 899 l 1,56,-1
 135 899 l 1,57,-1
 135 901 l 1,58,59
 141 1028 141 1028 177 1127.5 c 128,-1,60
 213 1227 213 1227 269.5 1293.5 c 128,-1,61
 326 1360 326 1360 397.5 1395 c 128,-1,62
 469 1430 469 1430 549 1430 c 0,63,64
 658 1430 658 1430 731.5 1383.5 c 128,-1,65
 805 1337 805 1337 853 1263.5 c 128,-1,66
 901 1190 901 1190 925.5 1093.5 c 128,-1,67
 950 997 950 997 956 901 c 1,68,-1
 956 899 l 1,69,-1
 1096 899 l 1,70,-1
 1096 670 l 1,71,-1
 956 670 l 1,36,-1
EndSplineSet
Validated: 1
EndChar

StartChar: uniE084
Encoding: 57476 57476 73
Width: 1087
Flags: W
LayerCount: 2
Fore
SplineSet
872 899 m 5,0,1
 866 950 866 950 847.5 1008.5 c 132,-1,2
 829 1067 829 1067 792.5 1113 c 132,-1,3
 756 1159 756 1159 699.5 1192 c 132,-1,4
 643 1225 643 1225 563 1225 c 4,5,6
 510 1225 510 1225 458 1203.5 c 132,-1,7
 406 1182 406 1182 360.5 1142 c 132,-1,8
 315 1102 315 1102 283.5 1041.5 c 132,-1,9
 252 981 252 981 238 899 c 5,10,-1
 451 899 l 6,11,12
 502 899 502 899 528.5 868.5 c 132,-1,13
 555 838 555 838 559 786 c 5,14,15
 561 837 561 837 588.5 868 c 132,-1,16
 616 899 616 899 670 899 c 6,17,-1
 872 899 l 5,0,1
889 670 m 1,18,-1
 643 670 l 1,19,20
 643 594 643 594 646 544 c 128,-1,21
 649 494 649 494 661.5 460 c 128,-1,22
 674 426 674 426 697.5 410.5 c 128,-1,23
 721 395 721 395 758 395 c 0,24,25
 836 395 836 395 862.5 463 c 128,-1,26
 889 531 889 531 889 670 c 1,18,-1
479 670 m 1,27,-1
 233 670 l 1,28,29
 233 531 233 531 258 463 c 128,-1,30
 283 395 283 395 360 395 c 0,31,32
 399 395 399 395 421.5 410.5 c 128,-1,33
 444 426 444 426 456.5 460 c 128,-1,34
 469 494 469 494 474 544 c 128,-1,35
 479 594 479 594 479 670 c 1,27,-1
152 670 m 9,36,-1
 0 670 l 25,37,-1
 0 899 l 25,38,-1
 152 899 l 17,39,-1
 152 901 l 1,40,41
 158 1028 158 1028 193.5 1127.5 c 128,-1,42
 229 1227 229 1227 284.5 1293.5 c 128,-1,43
 340 1360 340 1360 411.5 1395 c 128,-1,44
 483 1430 483 1430 563 1430 c 0,45,46
 672 1430 672 1430 745.5 1383.5 c 128,-1,47
 819 1337 819 1337 868.5 1263.5 c 128,-1,48
 918 1190 918 1190 942.5 1093.5 c 128,-1,49
 967 997 967 997 971 901 c 1,50,-1
 971 666 l 2,51,52
 971 560 971 560 958.5 476.5 c 128,-1,53
 946 393 946 393 920.5 334.5 c 128,-1,54
 895 276 895 276 856 245.5 c 128,-1,55
 817 215 817 215 758 215 c 0,56,57
 664 215 664 215 613.5 285.5 c 128,-1,58
 563 356 563 356 559 500 c 1,59,60
 555 359 555 359 505 287 c 128,-1,61
 455 215 455 215 360 215 c 0,62,63
 303 215 303 215 262 245.5 c 128,-1,64
 221 276 221 276 196.5 334.5 c 128,-1,65
 172 393 172 393 162 476 c 128,-1,66
 152 559 152 559 152 666 c 2,67,-1
 152 670 l 9,36,-1
EndSplineSet
Validated: 1
EndChar

StartChar: uniE086
Encoding: 57478 57478 74
Width: 1763
Flags: W
LayerCount: 2
Fore
SplineSet
924 670 m 1,0,1
 947 572 947 572 994.5 483.5 c 128,-1,2
 1042 395 1042 395 1106 317 c 1,3,-1
 1071 111 l 1,4,-1
 1040 111 l 1,5,6
 936 258 936 258 878.5 430 c 128,-1,7
 821 602 821 602 791 786 c 0,8,9
 771 899 771 899 740 981 c 128,-1,10
 709 1063 709 1063 673 1116 c 128,-1,11
 637 1169 637 1169 595 1196 c 128,-1,12
 553 1223 553 1223 508 1223 c 0,13,14
 303 1223 303 1223 246 899 c 1,15,-1
 547 899 l 2,16,17
 651 899 651 899 651 795 c 0,18,19
 651 793 651 793 651 791 c 2,20,-1
 651 584 l 2,21,22
 651 498 651 498 636 437.5 c 128,-1,23
 621 377 621 377 592 336 c 128,-1,24
 563 295 563 295 518 272.5 c 128,-1,25
 473 250 473 250 412 240 c 0,26,27
 320 230 320 230 269.5 209 c 128,-1,28
 219 188 219 188 197 172 c 1,29,30
 195 192 195 192 192.5 214 c 128,-1,31
 190 236 190 236 190 246 c 0,32,33
 190 291 190 291 198.5 322.5 c 128,-1,34
 207 354 207 354 233.5 380 c 128,-1,35
 260 406 260 406 306 421 c 128,-1,36
 352 436 352 436 428 444 c 0,37,38
 459 446 459 446 483.5 454.5 c 128,-1,39
 508 463 508 463 526.5 481.5 c 128,-1,40
 545 500 545 500 552 529.5 c 128,-1,41
 559 559 559 559 559 612 c 2,42,-1
 559 670 l 1,43,-1
 160 670 l 1,44,-1
 160 899 l 1,45,46
 176 1153 176 1153 263 1289 c 128,-1,47
 350 1425 350 1425 508 1425 c 0,48,49
 588 1425 588 1425 646.5 1381 c 128,-1,50
 705 1337 705 1337 748 1264.5 c 128,-1,51
 791 1192 791 1192 819.5 1095.5 c 128,-1,52
 848 999 848 999 862 899 c 1,53,-1
 1399 899 l 1,54,55
 1491 893 1491 893 1544 822.5 c 128,-1,56
 1597 752 1597 752 1597 633 c 2,57,-1
 1597 512 l 2,58,59
 1597 440 1597 440 1572.5 396 c 128,-1,60
 1548 352 1548 352 1511 352 c 1,61,-1
 1511 375 l 2,62,63
 1511 510 1511 510 1460 588 c 128,-1,64
 1409 666 1409 666 1311 670 c 1,65,-1
 924 670 l 1,0,1
EndSplineSet
Validated: 1
EndChar

StartChar: uniE087
Encoding: 57479 57479 75
Width: 1130
Flags: W
LayerCount: 2
Fore
SplineSet
874 899 m 1,0,1
 868 950 868 950 851 1008.5 c 128,-1,2
 834 1067 834 1067 797 1113 c 128,-1,3
 760 1159 760 1159 702.5 1192 c 128,-1,4
 645 1225 645 1225 565 1225 c 0,5,6
 512 1225 512 1225 460 1203.5 c 128,-1,7
 408 1182 408 1182 362.5 1142 c 128,-1,8
 317 1102 317 1102 286.5 1041.5 c 128,-1,9
 256 981 256 981 242 899 c 1,10,-1
 453 899 l 2,11,12
 504 899 504 899 531.5 868.5 c 128,-1,13
 559 838 559 838 563 786 c 1,14,15
 565 837 565 837 593 868 c 128,-1,16
 621 899 621 899 674 899 c 2,17,-1
 874 899 l 1,0,1
891 670 m 1,18,-1
 645 670 l 1,19,20
 645 594 645 594 649 544 c 128,-1,21
 653 494 653 494 665.5 460 c 128,-1,22
 678 426 678 426 701.5 410.5 c 128,-1,23
 725 395 725 395 762 395 c 0,24,25
 840 395 840 395 865.5 463 c 128,-1,26
 891 531 891 531 891 670 c 1,18,-1
483 670 m 1,27,-1
 154 670 l 1,28,-1
 154 901 l 1,29,30
 160 1028 160 1028 195.5 1127.5 c 128,-1,31
 231 1227 231 1227 286.5 1293.5 c 128,-1,32
 342 1360 342 1360 413.5 1395 c 128,-1,33
 485 1430 485 1430 565 1430 c 0,34,35
 674 1430 674 1430 748.5 1383.5 c 128,-1,36
 823 1337 823 1337 871.5 1263.5 c 128,-1,37
 920 1190 920 1190 944.5 1093.5 c 128,-1,38
 969 997 969 997 975 901 c 1,39,-1
 975 666 l 2,40,41
 975 560 975 560 962.5 476.5 c 128,-1,42
 950 393 950 393 923.5 334.5 c 128,-1,43
 897 276 897 276 859 245.5 c 128,-1,44
 821 215 821 215 762 215 c 0,45,46
 668 215 668 215 616 287 c 0,47,48
 567 355 567 355 563 489 c 1,49,50
 557 387 557 387 510 324 c 0,51,52
 457 256 457 256 352 242 c 0,53,54
 270 232 270 232 225 211 c 128,-1,55
 180 190 180 190 158 176 c 1,56,57
 156 192 156 192 155 215 c 128,-1,58
 154 238 154 238 154 248 c 0,59,60
 154 293 154 293 162 324.5 c 128,-1,61
 170 356 170 356 193.5 382 c 128,-1,62
 217 408 217 408 258 422 c 128,-1,63
 299 436 299 436 365 444 c 0,64,65
 394 448 394 448 415 456.5 c 128,-1,66
 436 465 436 465 452.5 483.5 c 128,-1,67
 469 502 469 502 476 531.5 c 128,-1,68
 483 561 483 561 483 612 c 2,69,-1
 483 670 l 1,27,-1
EndSplineSet
Validated: 1
EndChar

StartChar: uniE088
Encoding: 57480 57480 76
Width: 1583
Flags: W
LayerCount: 2
Fore
SplineSet
905 670 m 5,0,-1
 662 670 l 5,1,2
 662 594 662 594 665 544 c 132,-1,3
 668 494 668 494 680 460 c 132,-1,4
 692 426 692 426 715.5 410.5 c 132,-1,5
 739 395 739 395 776 395 c 4,6,7
 854 395 854 395 879.5 463 c 132,-1,8
 905 531 905 531 905 670 c 5,0,-1
469 899 m 6,9,10
 520 899 520 899 546.5 868.5 c 132,-1,11
 573 838 573 838 578 786 c 5,12,13
 580 837 580 837 607.5 868 c 132,-1,14
 635 899 635 899 688 899 c 6,15,-1
 891 899 l 5,16,17
 885 950 885 950 866.5 1008.5 c 132,-1,18
 848 1067 848 1067 811 1113 c 132,-1,19
 774 1159 774 1159 718 1192 c 132,-1,20
 662 1225 662 1225 582 1225 c 4,21,22
 529 1225 529 1225 476.5 1203.5 c 132,-1,23
 424 1182 424 1182 379 1142 c 132,-1,24
 334 1102 334 1102 302 1041.5 c 132,-1,25
 270 981 270 981 256 899 c 5,26,-1
 469 899 l 6,9,10
170 899 m 21,27,-1
 170 901 l 5,28,29
 176 1028 176 1028 212 1127.5 c 132,-1,30
 248 1227 248 1227 303 1293.5 c 132,-1,31
 358 1360 358 1360 430 1395 c 132,-1,32
 502 1430 502 1430 582 1430 c 4,33,34
 691 1430 691 1430 764.5 1383.5 c 132,-1,35
 838 1337 838 1337 887 1263.5 c 132,-1,36
 936 1190 936 1190 959.5 1093.5 c 132,-1,37
 983 997 983 997 989 901 c 5,38,-1
 989 899 l 5,39,-1
 1225 899 l 5,40,41
 1319 893 1319 893 1371 823.5 c 132,-1,42
 1423 754 1423 754 1423 637 c 6,43,-1
 1423 516 l 6,44,45
 1423 444 1423 444 1398.5 400 c 132,-1,46
 1374 356 1374 356 1335 356 c 5,47,-1
 1335 379 l 6,48,49
 1335 516 1335 516 1286 591 c 132,-1,50
 1237 666 1237 666 1137 670 c 5,51,-1
 989 670 l 5,52,-1
 989 666 l 6,53,54
 989 560 989 560 977 476.5 c 132,-1,55
 965 393 965 393 939 334.5 c 132,-1,56
 913 276 913 276 874.5 245.5 c 132,-1,57
 836 215 836 215 776 215 c 4,58,59
 684 215 684 215 633 287 c 4,60,61
 584 355 584 355 578 489 c 5,62,63
 572 387 572 387 524 324 c 4,64,65
 471 254 471 254 367 242 c 4,66,67
 285 232 285 232 241 211 c 132,-1,68
 197 190 197 190 172 176 c 5,69,70
 170 192 170 192 170 215 c 132,-1,71
 170 238 170 238 170 248 c 4,72,73
 170 293 170 293 177 324.5 c 132,-1,74
 184 356 184 356 207.5 382 c 132,-1,75
 231 408 231 408 272 422 c 132,-1,76
 313 436 313 436 379 444 c 4,77,78
 408 448 408 448 430.5 456.5 c 132,-1,79
 453 465 453 465 468 483.5 c 132,-1,80
 483 502 483 502 490.5 531.5 c 132,-1,81
 498 561 498 561 498 612 c 6,82,-1
 498 670 l 5,83,-1
 168 670 l 13,84,-1
 170 899 l 21,27,-1
EndSplineSet
Validated: 1
EndChar

StartChar: uniE089
Encoding: 57481 57481 77
Width: 1122
Flags: W
LayerCount: 2
Fore
SplineSet
1223 899 m 1,0,-1
 1223 670 l 1,1,-1
 952 670 l 1,2,3
 950 637 950 637 945 581.5 c 128,-1,4
 940 526 940 526 934 468 c 128,-1,5
 928 410 928 410 919.5 355.5 c 128,-1,6
 911 301 911 301 901 270 c 1,7,-1
 856 256 l 1,8,9
 836 303 836 303 819.5 370.5 c 128,-1,10
 803 438 803 438 789.5 512 c 128,-1,11
 776 586 776 586 768 656.5 c 128,-1,12
 760 727 760 727 760 780 c 0,13,14
 760 893 760 893 737.5 977 c 128,-1,15
 715 1061 715 1061 679 1114 c 128,-1,16
 643 1167 643 1167 599 1194 c 128,-1,17
 555 1221 555 1221 514 1221 c 0,18,19
 307 1221 307 1221 248 899 c 1,20,-1
 551 899 l 2,21,22
 657 899 657 899 657 791 c 2,23,-1
 657 580 l 2,24,25
 657 494 657 494 643 433.5 c 128,-1,26
 629 373 629 373 598 331 c 128,-1,27
 567 289 567 289 522 266.5 c 128,-1,28
 477 244 477 244 416 238 c 0,29,30
 324 228 324 228 273.5 205 c 128,-1,31
 223 182 223 182 199 170 c 1,32,33
 197 186 197 186 195 207.5 c 128,-1,34
 193 229 193 229 193 240 c 0,35,36
 193 285 193 285 202 317.5 c 128,-1,37
 211 350 211 350 236.5 374.5 c 128,-1,38
 262 399 262 399 310 414.5 c 128,-1,39
 358 430 358 430 432 438 c 0,40,41
 465 440 465 440 489.5 450.5 c 128,-1,42
 514 461 514 461 532.5 478.5 c 128,-1,43
 551 496 551 496 559 527.5 c 128,-1,44
 567 559 567 559 567 608 c 2,45,-1
 567 670 l 1,46,-1
 162 670 l 1,47,-1
 162 899 l 1,48,49
 180 1155 180 1155 267 1290 c 128,-1,50
 354 1425 354 1425 514 1425 c 0,51,52
 592 1425 592 1425 651.5 1387.5 c 128,-1,53
 711 1350 711 1350 754 1281 c 128,-1,54
 797 1212 797 1212 823.5 1115 c 128,-1,55
 850 1018 850 1018 858 899 c 1,56,-1
 1223 899 l 1,0,-1
EndSplineSet
Validated: 1
EndChar

StartChar: uniE08A
Encoding: 57482 57482 78
Width: 1118
Flags: W
LayerCount: 2
Fore
SplineSet
160 899 m 1,0,1
 178 1155 178 1155 265 1290 c 128,-1,2
 352 1425 352 1425 512 1425 c 0,3,4
 590 1425 590 1425 649.5 1387.5 c 128,-1,5
 709 1350 709 1350 752 1281 c 128,-1,6
 795 1212 795 1212 821.5 1115 c 128,-1,7
 848 1018 848 1018 856 899 c 1,8,-1
 1221 899 l 1,9,-1
 1221 670 l 1,10,-1
 950 670 l 1,11,12
 948 637 948 637 943 581.5 c 128,-1,13
 938 526 938 526 932 468 c 128,-1,14
 926 410 926 410 917.5 355.5 c 128,-1,15
 909 301 909 301 899 270 c 1,16,-1
 854 256 l 1,17,18
 834 303 834 303 817.5 370.5 c 128,-1,19
 801 438 801 438 787.5 512 c 128,-1,20
 774 586 774 586 766 656.5 c 128,-1,21
 758 727 758 727 758 780 c 0,22,23
 758 893 758 893 735.5 977 c 128,-1,24
 713 1061 713 1061 677 1114 c 128,-1,25
 641 1167 641 1167 598 1194 c 128,-1,26
 555 1221 555 1221 512 1221 c 0,27,28
 305 1221 305 1221 246 899 c 1,29,-1
 549 899 l 2,30,31
 655 899 655 899 655 791 c 2,32,-1
 655 580 l 2,33,34
 655 494 655 494 641 433.5 c 128,-1,35
 627 373 627 373 596 331 c 128,-1,36
 565 289 565 289 520 266.5 c 128,-1,37
 475 244 475 244 414 238 c 0,38,39
 322 228 322 228 271.5 205 c 128,-1,40
 221 182 221 182 197 170 c 1,41,42
 195 186 195 186 192.5 207.5 c 128,-1,43
 190 229 190 229 190 240 c 0,44,45
 190 285 190 285 199.5 317.5 c 128,-1,46
 209 350 209 350 234.5 374.5 c 128,-1,47
 260 399 260 399 309 416 c 0,48,49
 366 434 366 434 430 438 c 0,50,51
 463 440 463 440 487.5 450.5 c 128,-1,52
 512 461 512 461 530.5 478.5 c 128,-1,53
 549 496 549 496 557 527.5 c 128,-1,54
 565 559 565 559 565 608 c 2,55,-1
 565 670 l 1,56,-1
 0 670 l 1,57,-1
 0 899 l 1,58,-1
 160 899 l 1,0,1
EndSplineSet
Validated: 1
EndChar

StartChar: uniE08C
Encoding: 57484 57484 79
Width: 1222
Flags: W
LayerCount: 2
Fore
SplineSet
1323 899 m 1,0,-1
 1323 670 l 1,1,-1
 928 670 l 1,2,3
 951 572 951 572 999 483.5 c 128,-1,4
 1047 395 1047 395 1110 317 c 1,5,-1
 1075 111 l 1,6,-1
 1044 111 l 1,7,8
 940 258 940 258 881.5 430 c 128,-1,9
 823 602 823 602 795 786 c 0,10,11
 775 899 775 899 744 981 c 128,-1,12
 713 1063 713 1063 676 1116 c 128,-1,13
 639 1169 639 1169 597 1196 c 128,-1,14
 555 1223 555 1223 512 1223 c 0,15,16
 307 1223 307 1223 248 899 c 1,17,-1
 549 899 l 2,18,19
 655 899 655 899 655 791 c 2,20,-1
 655 584 l 2,21,22
 655 498 655 498 640 437.5 c 128,-1,23
 625 377 625 377 595 336 c 128,-1,24
 565 295 565 295 520 272.5 c 128,-1,25
 475 250 475 250 416 240 c 0,26,27
 324 230 324 230 272.5 209 c 128,-1,28
 221 188 221 188 199 172 c 1,29,30
 197 192 197 192 196 214 c 128,-1,31
 195 236 195 236 195 246 c 0,32,33
 195 291 195 291 203 322.5 c 128,-1,34
 211 354 211 354 237.5 380 c 128,-1,35
 264 406 264 406 310 421 c 128,-1,36
 356 436 356 436 430 444 c 0,37,38
 461 446 461 446 486.5 454.5 c 128,-1,39
 512 463 512 463 529.5 481.5 c 128,-1,40
 547 500 547 500 555 529.5 c 128,-1,41
 563 559 563 559 563 612 c 2,42,-1
 563 670 l 1,43,-1
 164 670 l 1,44,-1
 164 899 l 1,45,46
 180 1153 180 1153 267 1289 c 128,-1,47
 354 1425 354 1425 512 1425 c 0,48,49
 592 1425 592 1425 649.5 1381 c 128,-1,50
 707 1337 707 1337 751 1264.5 c 128,-1,51
 795 1192 795 1192 823.5 1095.5 c 128,-1,52
 852 999 852 999 864 899 c 1,53,-1
 1323 899 l 1,0,-1
EndSplineSet
Validated: 1
EndChar

StartChar: uniE08D
Encoding: 57485 57485 80
Width: 1218
Flags: W
LayerCount: 2
Fore
SplineSet
162 899 m 1,0,1
 178 1153 178 1153 265 1289 c 128,-1,2
 352 1425 352 1425 510 1425 c 0,3,4
 590 1425 590 1425 647.5 1381 c 128,-1,5
 705 1337 705 1337 749 1264.5 c 128,-1,6
 793 1192 793 1192 821.5 1095.5 c 128,-1,7
 850 999 850 999 862 899 c 1,8,-1
 1321 899 l 1,9,-1
 1321 670 l 1,10,-1
 926 670 l 1,11,12
 949 572 949 572 996.5 483.5 c 128,-1,13
 1044 395 1044 395 1108 317 c 1,14,-1
 1073 111 l 1,15,-1
 1042 111 l 1,16,17
 938 258 938 258 881 430 c 0,18,19
 826 592 826 592 793 786 c 0,20,21
 775 888 775 888 741 981 c 0,22,23
 710 1063 710 1063 673.5 1116 c 128,-1,24
 637 1169 637 1169 596 1196 c 128,-1,25
 555 1223 555 1223 510 1223 c 0,26,27
 305 1223 305 1223 246 899 c 1,28,-1
 547 899 l 2,29,30
 653 899 653 899 653 791 c 2,31,-1
 653 584 l 2,32,33
 653 498 653 498 638 437.5 c 128,-1,34
 623 377 623 377 593 336 c 128,-1,35
 563 295 563 295 518 272 c 0,36,37
 469 247 469 247 414 240 c 0,38,39
 318 228 318 228 270 209 c 0,40,41
 219 189 219 189 197 172 c 1,42,43
 195 192 195 192 194 214 c 128,-1,44
 193 236 193 236 193 246 c 0,45,46
 193 291 193 291 201 322.5 c 128,-1,47
 209 354 209 354 235.5 380 c 128,-1,48
 262 406 262 406 307 420 c 0,49,50
 358 438 358 438 428 444 c 0,51,52
 465 448 465 448 485 455 c 0,53,54
 510 463 510 463 527.5 481.5 c 128,-1,55
 545 500 545 500 553 529.5 c 128,-1,56
 561 559 561 559 561 612 c 2,57,-1
 561 670 l 1,58,-1
 0 670 l 5,59,-1
 0 899 l 1,60,-1
 162 899 l 1,0,1
EndSplineSet
Validated: 1
EndChar

StartChar: uniE08E
Encoding: 57486 57486 81
Width: 1630
Flags: W
LayerCount: 2
Fore
SplineSet
938 670 m 1,0,1
 961 572 961 572 1009 483.5 c 128,-1,2
 1057 395 1057 395 1118 317 c 1,3,-1
 1085 111 l 1,4,-1
 1055 111 l 1,5,6
 951 258 951 258 893 430 c 0,7,8
 838 592 838 592 805 786 c 0,9,10
 787 888 787 888 752 981 c 0,11,12
 721 1063 721 1063 685 1116 c 128,-1,13
 649 1169 649 1169 607 1196 c 128,-1,14
 565 1223 565 1223 520 1223 c 0,15,16
 315 1223 315 1223 258 899 c 1,17,-1
 559 899 l 2,18,19
 665 899 665 899 666 791 c 2,20,-1
 666 584 l 2,21,22
 666 498 666 498 650.5 437.5 c 128,-1,23
 635 377 635 377 605 336 c 128,-1,24
 575 295 575 295 530 272 c 0,25,26
 481 247 481 247 426 240 c 0,27,28
 330 228 330 228 283 209 c 0,29,30
 232 189 232 189 209 172 c 1,31,32
 207 192 207 192 206 214 c 128,-1,33
 205 236 205 236 205 246 c 0,34,35
 205 291 205 291 212 322.5 c 128,-1,36
 219 354 219 354 246.5 380 c 128,-1,37
 274 406 274 406 319 420 c 0,38,39
 370 438 370 438 440 444 c 0,40,41
 477 448 477 448 496 455 c 0,42,43
 521 463 521 463 539 481.5 c 128,-1,44
 557 500 557 500 565 529.5 c 128,-1,45
 573 559 573 559 573 612 c 2,46,-1
 573 670 l 1,47,-1
 0 670 l 5,48,-1
 0 899 l 1,49,-1
 172 899 l 1,50,51
 188 1153 188 1153 276.5 1289 c 128,-1,52
 365 1425 365 1425 520 1425 c 0,53,54
 600 1425 600 1425 658.5 1381 c 128,-1,55
 717 1337 717 1337 761 1264.5 c 128,-1,56
 805 1192 805 1192 832.5 1095.5 c 128,-1,57
 860 999 860 999 874 899 c 1,58,-1
 1411 899 l 1,59,60
 1503 893 1503 893 1557.5 822.5 c 128,-1,61
 1612 752 1612 752 1612 633 c 2,62,-1
 1612 512 l 2,63,64
 1612 440 1612 440 1586.5 396 c 128,-1,65
 1561 352 1561 352 1524 352 c 1,66,-1
 1524 375 l 2,67,68
 1524 510 1524 510 1472.5 588 c 128,-1,69
 1421 666 1421 666 1323 670 c 1,70,-1
 938 670 l 1,0,1
EndSplineSet
Validated: 1
EndChar

StartChar: uniE08F
Encoding: 57487 57487 82
Width: 995
Flags: W
LayerCount: 2
Fore
SplineSet
856 899 m 1,0,1
 850 950 850 950 832.5 1008.5 c 128,-1,2
 815 1067 815 1067 778 1113 c 128,-1,3
 741 1159 741 1159 685 1192 c 128,-1,4
 629 1225 629 1225 549 1225 c 0,5,6
 496 1225 496 1225 442.5 1203.5 c 128,-1,7
 389 1182 389 1182 344 1142 c 128,-1,8
 299 1102 299 1102 268.5 1041.5 c 128,-1,9
 238 981 238 981 223 899 c 1,10,-1
 434 899 l 2,11,12
 485 899 485 899 513 868.5 c 128,-1,13
 541 838 541 838 545 786 c 1,14,15
 547 837 547 837 574.5 868 c 128,-1,16
 602 899 602 899 655 899 c 2,17,-1
 856 899 l 1,0,1
872 670 m 1,18,-1
 629 670 l 1,19,20
 629 594 629 594 632 544 c 128,-1,21
 635 494 635 494 647 460 c 128,-1,22
 659 426 659 426 683 410.5 c 128,-1,23
 707 395 707 395 743 395 c 0,24,25
 821 395 821 395 846.5 463 c 128,-1,26
 872 531 872 531 872 670 c 1,18,-1
956 670 m 1,27,-1
 956 666 l 2,28,29
 956 560 956 560 944 476.5 c 128,-1,30
 932 393 932 393 906.5 334.5 c 128,-1,31
 881 276 881 276 842 245.5 c 128,-1,32
 803 215 803 215 743 215 c 0,33,34
 649 215 649 215 598 287 c 0,35,36
 549 355 549 355 545 489 c 1,37,38
 539 387 539 387 492 324 c 0,39,40
 439 256 439 256 334 242 c 0,41,42
 252 232 252 232 208 211 c 128,-1,43
 164 190 164 190 139 176 c 1,44,45
 137 192 137 192 136 215 c 128,-1,46
 135 238 135 238 135 248 c 0,47,48
 135 293 135 293 143.5 324.5 c 128,-1,49
 152 356 152 356 175.5 382 c 128,-1,50
 199 408 199 408 240 422 c 128,-1,51
 281 436 281 436 346 444 c 0,52,53
 375 448 375 448 397.5 456.5 c 128,-1,54
 420 465 420 465 435.5 483.5 c 128,-1,55
 451 502 451 502 458 531.5 c 128,-1,56
 465 561 465 561 465 612 c 2,57,-1
 465 670 l 1,58,-1
 135 670 l 1,59,-1
 135 901 l 1,60,61
 141 1028 141 1028 177 1127.5 c 128,-1,62
 213 1227 213 1227 269.5 1293.5 c 128,-1,63
 326 1360 326 1360 397.5 1395 c 128,-1,64
 469 1430 469 1430 549 1430 c 0,65,66
 658 1430 658 1430 731.5 1383.5 c 128,-1,67
 805 1337 805 1337 853 1263.5 c 128,-1,68
 901 1190 901 1190 925.5 1093.5 c 128,-1,69
 950 997 950 997 956 901 c 1,70,-1
 956 899 l 1,71,-1
 1096 899 l 1,72,-1
 1096 670 l 1,73,-1
 956 670 l 1,27,-1
EndSplineSet
Validated: 1
EndChar

StartChar: uniE090
Encoding: 57488 57488 83
Width: 1028
Flags: W
LayerCount: 2
Fore
SplineSet
907 670 m 1,0,-1
 662 670 l 1,1,2
 662 594 662 594 666 544 c 128,-1,3
 670 494 670 494 681 460 c 128,-1,4
 692 426 692 426 715.5 410.5 c 128,-1,5
 739 395 739 395 776 395 c 0,6,7
 854 395 854 395 880.5 463 c 128,-1,8
 907 531 907 531 907 670 c 1,0,-1
170 899 m 1,9,-1
 170 901 l 1,10,11
 176 1028 176 1028 212 1127.5 c 128,-1,12
 248 1227 248 1227 303 1293.5 c 128,-1,13
 358 1360 358 1360 430 1395 c 128,-1,14
 502 1430 502 1430 582 1430 c 0,15,16
 691 1430 691 1430 765.5 1383.5 c 128,-1,17
 840 1337 840 1337 888 1263.5 c 128,-1,18
 936 1190 936 1190 960.5 1093.5 c 128,-1,19
 985 997 985 997 989 901 c 1,20,-1
 989 899 l 1,21,-1
 1130 899 l 1,22,-1
 1130 670 l 1,23,-1
 989 670 l 1,24,-1
 989 666 l 2,25,26
 989 560 989 560 978 476.5 c 128,-1,27
 967 393 967 393 940 334.5 c 128,-1,28
 913 276 913 276 875.5 245.5 c 128,-1,29
 838 215 838 215 776 215 c 0,30,31
 684 215 684 215 633 287 c 0,32,33
 584 355 584 355 580 489 c 1,34,35
 574 387 574 387 524 324 c 0,36,37
 471 254 471 254 369 242 c 0,38,39
 287 232 287 232 242 211 c 128,-1,40
 197 190 197 190 174 176 c 1,41,42
 172 192 172 192 171 215 c 128,-1,43
 170 238 170 238 170 248 c 0,44,45
 170 293 170 293 177 324.5 c 128,-1,46
 184 356 184 356 208.5 382 c 128,-1,47
 233 408 233 408 273 422 c 128,-1,48
 313 436 313 436 381 444 c 0,49,50
 410 448 410 448 431.5 456.5 c 128,-1,51
 453 465 453 465 469 483.5 c 128,-1,52
 485 502 485 502 492.5 531.5 c 128,-1,53
 500 561 500 561 500 612 c 2,54,-1
 500 670 l 1,55,-1
 0 670 l 1,56,-1
 0 899 l 1,57,-1
 170 899 l 1,9,-1
469 899 m 2,58,59
 520 899 520 899 547.5 868.5 c 128,-1,60
 575 838 575 838 580 786 c 1,61,62
 582 837 582 837 609.5 868 c 128,-1,63
 637 899 637 899 688 899 c 2,64,-1
 891 899 l 1,65,66
 885 950 885 950 867.5 1008.5 c 128,-1,67
 850 1067 850 1067 812 1113 c 128,-1,68
 774 1159 774 1159 718 1192 c 128,-1,69
 662 1225 662 1225 582 1225 c 0,70,71
 529 1225 529 1225 476.5 1203.5 c 128,-1,72
 424 1182 424 1182 379 1142 c 128,-1,73
 334 1102 334 1102 302 1041.5 c 128,-1,74
 270 981 270 981 256 899 c 1,75,-1
 469 899 l 2,58,59
EndSplineSet
Validated: 1
EndChar

StartChar: uniE091
Encoding: 57489 57489 84
Width: 1126
Flags: W
LayerCount: 2
Fore
SplineSet
891 670 m 1,0,-1
 645 670 l 1,1,2
 645 594 645 594 649 544 c 128,-1,3
 653 494 653 494 665.5 460 c 128,-1,4
 678 426 678 426 701.5 410.5 c 128,-1,5
 725 395 725 395 762 395 c 0,6,7
 840 395 840 395 865.5 463 c 128,-1,8
 891 531 891 531 891 670 c 1,0,-1
154 899 m 1,9,-1
 154 901 l 1,10,11
 160 1028 160 1028 195.5 1127.5 c 128,-1,12
 231 1227 231 1227 286.5 1293.5 c 128,-1,13
 342 1360 342 1360 413.5 1395 c 128,-1,14
 485 1430 485 1430 565 1430 c 0,15,16
 674 1430 674 1430 748.5 1383.5 c 128,-1,17
 823 1337 823 1337 871.5 1263.5 c 128,-1,18
 920 1190 920 1190 944.5 1093.5 c 128,-1,19
 969 997 969 997 975 901 c 1,20,-1
 975 666 l 2,21,22
 975 560 975 560 962.5 476.5 c 128,-1,23
 950 393 950 393 923.5 334.5 c 128,-1,24
 897 276 897 276 859 245.5 c 128,-1,25
 821 215 821 215 762 215 c 0,26,27
 670 215 670 215 616 287 c 0,28,29
 567 355 567 355 563 489 c 1,30,31
 557 387 557 387 510 324 c 0,32,33
 457 254 457 254 352 242 c 0,34,35
 270 232 270 232 225 211 c 128,-1,36
 180 190 180 190 158 176 c 1,37,38
 156 192 156 192 155 215 c 128,-1,39
 154 238 154 238 154 248 c 0,40,41
 154 293 154 293 162 324.5 c 128,-1,42
 170 356 170 356 193.5 382 c 128,-1,43
 217 408 217 408 258 422 c 128,-1,44
 299 436 299 436 365 444 c 0,45,46
 394 448 394 448 415 456.5 c 128,-1,47
 436 465 436 465 452.5 483.5 c 128,-1,48
 469 502 469 502 476 531.5 c 128,-1,49
 483 561 483 561 483 612 c 2,50,-1
 483 670 l 1,51,-1
 0 670 l 1,52,-1
 0 899 l 5,53,-1
 154 899 l 1,9,-1
453 899 m 2,54,55
 504 899 504 899 531.5 868.5 c 128,-1,56
 559 838 559 838 563 786 c 1,57,58
 565 837 565 837 593 868 c 128,-1,59
 621 899 621 899 674 899 c 2,60,-1
 874 899 l 1,61,62
 868 950 868 950 851 1008.5 c 128,-1,63
 834 1067 834 1067 797 1113 c 128,-1,64
 760 1159 760 1159 702.5 1192 c 128,-1,65
 645 1225 645 1225 565 1225 c 0,66,67
 512 1225 512 1225 460 1203.5 c 128,-1,68
 408 1182 408 1182 362.5 1142 c 128,-1,69
 317 1102 317 1102 286.5 1041.5 c 128,-1,70
 256 981 256 981 242 899 c 1,71,-1
 453 899 l 2,54,55
EndSplineSet
Validated: 1
EndChar

StartChar: uniE092
Encoding: 57490 57490 85
Width: 1566
Flags: W
LayerCount: 2
Fore
SplineSet
1206 899 m 1,0,1
 1298 893 1298 893 1352.5 822.5 c 128,-1,2
 1407 752 1407 752 1407 633 c 2,3,-1
 1407 512 l 2,4,5
 1407 440 1407 440 1381.5 396 c 128,-1,6
 1356 352 1356 352 1319 352 c 1,7,-1
 1319 375 l 2,8,9
 1319 510 1319 510 1268 588 c 128,-1,10
 1217 666 1217 666 1118 670 c 1,11,-1
 780 670 l 1,12,13
 807 570 807 570 854 480.5 c 128,-1,14
 901 391 901 391 969 315 c 1,15,-1
 934 106 l 1,16,-1
 901 106 l 1,17,18
 835 200 835 200 795.5 282.5 c 128,-1,19
 756 365 756 365 732.5 443.5 c 128,-1,20
 709 522 709 522 678 678 c 128,-1,21
 647 834 647 834 635 915.5 c 128,-1,22
 623 997 623 997 602.5 1065 c 128,-1,23
 582 1133 582 1133 549 1178 c 128,-1,24
 516 1223 516 1223 465 1223 c 0,25,26
 422 1223 422 1223 389 1200.5 c 128,-1,27
 356 1178 356 1178 332.5 1142 c 128,-1,28
 309 1106 309 1106 295 1060 c 128,-1,29
 281 1014 281 1014 270.5 966 c 128,-1,30
 260 918 260 918 257 870.5 c 128,-1,31
 254 823 254 823 254 786 c 0,32,33
 254 716 254 716 265 660 c 128,-1,34
 276 604 276 604 301 556 c 128,-1,35
 326 508 326 508 360.5 461 c 128,-1,36
 395 414 395 414 444 360 c 1,37,-1
 385 156 l 1,38,-1
 360 156 l 1,39,40
 272 273 272 273 220 407 c 128,-1,41
 168 541 168 541 168 788 c 0,42,43
 168 964 168 964 194.5 1080 c 128,-1,44
 221 1196 221 1196 259 1268.5 c 128,-1,45
 297 1341 297 1341 348 1384 c 128,-1,46
 399 1427 399 1427 467 1427 c 128,-1,47
 535 1427 535 1427 581 1388.5 c 128,-1,48
 627 1350 627 1350 657.5 1280 c 128,-1,49
 688 1210 688 1210 706.5 1114 c 128,-1,50
 725 1018 725 1018 733 899 c 1,51,-1
 1206 899 l 1,0,1
EndSplineSet
Validated: 1
EndChar

StartChar: uniE093
Encoding: 57491 57491 86
Width: 1468
Flags: W
LayerCount: 2
Fore
SplineSet
844 670 m 5,0,-1
 639 670 l 5,1,-1
 639 569 l 6,2,3
 639 520 639 520 644 488.5 c 132,-1,4
 649 457 649 457 661.5 437.5 c 132,-1,5
 674 418 674 418 692.5 412 c 132,-1,6
 711 406 711 406 741 406 c 260,7,8
 772 406 772 406 792.5 412 c 132,-1,9
 813 418 813 418 824.5 438.5 c 132,-1,10
 836 459 836 459 840 490.5 c 132,-1,11
 844 522 844 522 844 569 c 6,12,-1
 844 670 l 5,0,-1
129 670 m 0,13,14
 123 752 123 752 123 813 c 0,15,16
 123 866 123 866 127 899 c 1,17,18
 127 932 127 932 131 963 c 0,19,20
 143 1035 143 1035 163.5 1100 c 128,-1,21
 184 1165 184 1165 217 1223.5 c 128,-1,22
 250 1282 250 1282 297 1326 c 128,-1,23
 344 1370 344 1370 404.5 1394.5 c 128,-1,24
 465 1419 465 1419 545 1419 c 0,25,26
 645 1419 645 1419 714.5 1385.5 c 128,-1,27
 784 1352 784 1352 827 1287.5 c 128,-1,28
 870 1223 870 1223 898 1118.5 c 128,-1,29
 926 1014 926 1014 926 899 c 1,30,-1
 1130 899 l 1,31,32
 1224 893 1224 893 1277.5 823.5 c 128,-1,33
 1331 754 1331 754 1331 633 c 2,34,-1
 1331 512 l 2,35,36
 1331 438 1331 438 1305.5 395 c 128,-1,37
 1280 352 1280 352 1243 352 c 1,38,-1
 1243 375 l 2,39,40
 1243 512 1243 512 1192 589 c 128,-1,41
 1141 666 1141 666 1042 670 c 1,42,-1
 926 670 l 1,43,-1
 926 504 l 2,44,45
 926 438 926 438 918.5 386 c 128,-1,46
 911 334 911 334 890.5 298 c 128,-1,47
 870 262 870 262 835.5 243.5 c 128,-1,48
 801 225 801 225 741 225 c 0,49,50
 647 225 647 225 603 292.5 c 128,-1,51
 559 360 559 360 559 504 c 2,52,-1
 559 815 l 2,53,54
 559 833 559 833 562 847.5 c 128,-1,55
 565 862 565 862 573.5 875.5 c 128,-1,56
 582 889 582 889 598 894 c 128,-1,57
 614 899 614 899 639 899 c 2,58,-1
 844 899 l 1,59,60
 844 1044 844 1044 771 1131.5 c 128,-1,61
 698 1219 698 1219 545 1219 c 0,62,63
 447 1219 447 1219 384.5 1183 c 128,-1,64
 322 1147 322 1147 284 1090.5 c 128,-1,65
 246 1034 246 1034 228.5 963.5 c 128,-1,66
 211 893 211 893 211 821 c 0,67,68
 211 735 211 735 224.5 668.5 c 128,-1,69
 238 602 238 602 260.5 545.5 c 128,-1,70
 283 489 283 489 312.5 436 c 128,-1,71
 342 383 342 383 385 317 c 1,72,-1
 299 137 l 1,73,74
 252 203 252 203 219 285 c 128,-1,75
 186 367 186 367 163.5 459 c 128,-1,76
 141 551 141 551 131 643 c 0,77,-1
 129 670 l 0,13,14
EndSplineSet
Validated: 1
EndChar

StartChar: uniE094
Encoding: 57492 57492 87
Width: 991
Flags: W
LayerCount: 2
Fore
SplineSet
643 750 m 0,0,1
 643 900 643 900 637 948.5 c 128,-1,2
 631 997 631 997 617.5 1034 c 128,-1,3
 604 1071 604 1071 581.5 1102 c 128,-1,4
 559 1133 559 1133 527.5 1151 c 128,-1,5
 496 1169 496 1169 455 1169 c 0,6,7
 392 1169 392 1169 345.5 1129.5 c 128,-1,8
 299 1090 299 1090 268.5 1032.5 c 128,-1,9
 238 975 238 975 224.5 909.5 c 128,-1,10
 211 844 211 844 211 788 c 0,11,12
 211 686 211 686 256 577.5 c 128,-1,13
 301 469 301 469 397 362 c 1,14,-1
 338 160 l 1,15,-1
 315 160 l 1,16,17
 223 275 223 275 173 406 c 128,-1,18
 123 537 123 537 123 670 c 2,19,-1
 123 901 l 1,20,21
 129 1003 129 1003 158.5 1090.5 c 128,-1,22
 188 1178 188 1178 232 1240.5 c 128,-1,23
 276 1303 276 1303 333.5 1337.5 c 128,-1,24
 391 1372 391 1372 461 1372 c 0,25,26
 529 1372 529 1372 579 1337.5 c 128,-1,27
 629 1303 629 1303 664.5 1239.5 c 128,-1,28
 700 1176 700 1176 716.5 1090 c 128,-1,29
 733 1004 733 1004 737 899 c 1,30,-1
 1094 899 l 1,31,-1
 1094 670 l 1,32,-1
 831 670 l 1,33,34
 829 639 829 639 823 585.5 c 128,-1,35
 817 532 817 532 811 473 c 128,-1,36
 805 414 805 414 796.5 360.5 c 128,-1,37
 788 307 788 307 780 276 c 1,38,-1
 735 260 l 1,39,40
 694 354 694 354 668.5 474 c 128,-1,41
 643 594 643 594 643 750 c 0,0,1
EndSplineSet
Validated: 1
EndChar

StartChar: uniE095
Encoding: 57493 57493 88
Width: 978
Flags: W
LayerCount: 2
Fore
SplineSet
111 899 m 5,0,-1
 111 901 l 5,1,2
 117 1003 117 1003 146.5 1090.5 c 128,-1,3
 176 1178 176 1178 219 1240.5 c 128,-1,4
 262 1303 262 1303 320.5 1337.5 c 128,-1,5
 379 1372 379 1372 446.5 1372 c 128,-1,6
 514 1372 514 1372 565 1337.5 c 128,-1,7
 616 1303 616 1303 651 1239.5 c 128,-1,8
 686 1176 686 1176 703.5 1090 c 128,-1,9
 721 1004 721 1004 725 899 c 1,10,-1
 1079 899 l 1,11,-1
 1079 670 l 1,12,-1
 817 670 l 1,13,14
 815 639 815 639 810 585.5 c 128,-1,15
 805 532 805 532 799 473 c 128,-1,16
 793 414 793 414 784.5 360.5 c 128,-1,17
 776 307 776 307 768 276 c 1,18,-1
 723 260 l 1,19,20
 682 354 682 354 656.5 475 c 128,-1,21
 631 596 631 596 631 750 c 0,22,23
 631 900 631 900 624.5 948.5 c 128,-1,24
 618 997 618 997 605 1034 c 128,-1,25
 592 1071 592 1071 569.5 1102 c 128,-1,26
 547 1133 547 1133 515 1151 c 128,-1,27
 483 1169 483 1169 442 1169 c 0,28,29
 379 1169 379 1169 333 1129.5 c 128,-1,30
 287 1090 287 1090 256 1032.5 c 128,-1,31
 225 975 225 975 211 909.5 c 128,-1,32
 197 844 197 844 197 788 c 0,33,34
 197 686 197 686 243 578 c 0,35,36
 291 469 291 469 385 362 c 1,37,-1
 324 160 l 1,38,-1
 303 160 l 1,39,40
 211 275 211 275 161 406 c 128,-1,41
 111 537 111 537 111 670 c 5,42,-1
 0 670 l 5,43,-1
 0 899 l 5,44,-1
 111 899 l 5,0,-1
EndSplineSet
Validated: 1
EndChar

StartChar: uniE097
Encoding: 57495 57495 89
Width: 1032
Flags: W
LayerCount: 2
Fore
SplineSet
1135 899 m 1,0,-1
 1135 670 l 1,1,-1
 737 670 l 1,2,3
 764 570 764 570 811 480.5 c 128,-1,4
 858 391 858 391 926 315 c 1,5,-1
 889 106 l 1,6,-1
 856 106 l 1,7,8
 790 200 790 200 751.5 282.5 c 128,-1,9
 713 365 713 365 688.5 443.5 c 128,-1,10
 664 522 664 522 635 678 c 0,11,12
 604 834 604 834 591 915.5 c 128,-1,13
 578 997 578 997 557.5 1065 c 128,-1,14
 537 1133 537 1133 505 1178 c 128,-1,15
 473 1223 473 1223 420 1223 c 0,16,17
 377 1223 377 1223 344 1200.5 c 128,-1,18
 311 1178 311 1178 288.5 1142 c 128,-1,19
 266 1106 266 1106 251 1060 c 128,-1,20
 236 1014 236 1014 226.5 966 c 128,-1,21
 217 918 217 918 214 870.5 c 128,-1,22
 211 823 211 823 211 786 c 0,23,24
 211 716 211 716 222 660 c 128,-1,25
 233 604 233 604 257 556 c 128,-1,26
 281 508 281 508 316.5 461 c 128,-1,27
 352 414 352 414 399 360 c 1,28,-1
 340 156 l 1,29,-1
 317 156 l 1,30,31
 229 273 229 273 176 407 c 128,-1,32
 123 541 123 541 123 788 c 0,33,34
 123 964 123 964 149.5 1080 c 128,-1,35
 176 1196 176 1196 214 1268.5 c 128,-1,36
 252 1341 252 1341 303 1384 c 128,-1,37
 354 1427 354 1427 424 1427 c 0,38,39
 492 1427 492 1427 538 1388.5 c 128,-1,40
 584 1350 584 1350 614.5 1280 c 128,-1,41
 645 1210 645 1210 663.5 1114 c 128,-1,42
 682 1018 682 1018 688 899 c 1,43,-1
 1135 899 l 1,0,-1
EndSplineSet
Validated: 1
EndChar

StartChar: uniE098
Encoding: 57496 57496 90
Width: 1038
Flags: W
LayerCount: 2
Fore
SplineSet
129 899 m 1,0,-1
 129 901 l 1,1,2
 137 1005 137 1005 160.5 1100.5 c 128,-1,3
 184 1196 184 1196 221 1268.5 c 128,-1,4
 258 1341 258 1341 310 1384 c 128,-1,5
 362 1427 362 1427 430 1427 c 128,-1,6
 498 1427 498 1427 544 1388.5 c 128,-1,7
 590 1350 590 1350 620.5 1280 c 128,-1,8
 651 1210 651 1210 669.5 1114 c 128,-1,9
 688 1018 688 1018 696 899 c 1,10,-1
 1141 899 l 1,11,-1
 1141 670 l 1,12,-1
 743 670 l 1,13,14
 770 570 770 570 817 480.5 c 128,-1,15
 864 391 864 391 932 315 c 1,16,-1
 897 106 l 1,17,-1
 864 106 l 1,18,19
 798 200 798 200 758.5 282.5 c 128,-1,20
 719 365 719 365 695.5 443.5 c 128,-1,21
 672 522 672 522 655 600 c 0,22,23
 647 637 647 637 625 762 c 0,24,25
 602 885 602 885 598 915 c 0,26,27
 586 997 586 997 565.5 1065 c 128,-1,28
 545 1133 545 1133 512 1178 c 128,-1,29
 479 1223 479 1223 426 1223 c 0,30,31
 383 1223 383 1223 351 1200.5 c 128,-1,32
 319 1178 319 1178 295.5 1142 c 128,-1,33
 272 1106 272 1106 258 1060 c 128,-1,34
 244 1014 244 1014 233.5 966 c 128,-1,35
 223 918 223 918 220 870.5 c 128,-1,36
 217 823 217 823 217 786 c 0,37,38
 217 716 217 716 228.5 660 c 128,-1,39
 240 604 240 604 264.5 556 c 128,-1,40
 289 508 289 508 323.5 461 c 128,-1,41
 358 414 358 414 408 360 c 1,42,-1
 346 156 l 1,43,-1
 324 156 l 1,44,45
 236 273 236 273 182.5 407 c 128,-1,46
 129 541 129 541 129 670 c 2,47,-1
 129 670 l 1,48,-1
 0 670 l 1,49,-1
 0 899 l 1,50,-1
 129 899 l 1,0,-1
EndSplineSet
Validated: 5
EndChar

StartChar: uniE099
Encoding: 57497 57497 91
Width: 1533
Flags: W
LayerCount: 2
Fore
SplineSet
129 899 m 1,0,-1
 129 901 l 1,1,2
 137 1005 137 1005 160.5 1100.5 c 128,-1,3
 184 1196 184 1196 221 1268.5 c 128,-1,4
 258 1341 258 1341 310 1384 c 128,-1,5
 362 1427 362 1427 430 1427 c 128,-1,6
 498 1427 498 1427 544 1388.5 c 128,-1,7
 590 1350 590 1350 620.5 1280 c 128,-1,8
 651 1210 651 1210 669.5 1114 c 128,-1,9
 688 1018 688 1018 696 899 c 1,10,-1
 1169 899 l 1,11,12
 1261 893 1261 893 1314.5 822.5 c 128,-1,13
 1368 752 1368 752 1368 633 c 2,14,-1
 1368 512 l 2,15,16
 1368 440 1368 440 1343.5 396 c 128,-1,17
 1319 352 1319 352 1282 352 c 1,18,-1
 1282 375 l 2,19,20
 1282 510 1282 510 1231 588 c 128,-1,21
 1180 666 1180 666 1081 670 c 1,22,-1
 743 670 l 1,23,24
 770 570 770 570 817 480.5 c 128,-1,25
 864 391 864 391 932 315 c 1,26,-1
 897 106 l 1,27,-1
 864 106 l 1,28,29
 798 200 798 200 758.5 282.5 c 128,-1,30
 719 365 719 365 695.5 443.5 c 128,-1,31
 672 522 672 522 655 600 c 0,32,33
 647 637 647 637 625 762 c 0,34,35
 602 885 602 885 598 915 c 0,36,37
 586 997 586 997 565.5 1065 c 128,-1,38
 545 1133 545 1133 512 1178 c 128,-1,39
 479 1223 479 1223 426 1223 c 0,40,41
 383 1223 383 1223 351 1200.5 c 128,-1,42
 319 1178 319 1178 295.5 1142 c 128,-1,43
 272 1106 272 1106 258 1060 c 128,-1,44
 244 1014 244 1014 233.5 966 c 128,-1,45
 223 918 223 918 220 870.5 c 128,-1,46
 217 823 217 823 217 786 c 0,47,48
 217 716 217 716 228.5 660 c 128,-1,49
 240 604 240 604 264.5 556 c 128,-1,50
 289 508 289 508 323.5 461 c 128,-1,51
 358 414 358 414 408 360 c 1,52,-1
 346 156 l 1,53,-1
 324 156 l 1,54,55
 236 273 236 273 182.5 407 c 128,-1,56
 129 541 129 541 129 670 c 2,57,-1
 129 670 l 1,58,-1
 0 670 l 1,59,-1
 0 899 l 1,60,-1
 129 899 l 1,0,-1
EndSplineSet
Validated: 5
EndChar

StartChar: uniE09A
Encoding: 57498 57498 92
Width: 1523
Flags: W
LayerCount: 2
Fore
SplineSet
864 670 m 1,0,-1
 662 670 l 1,1,-1
 662 569 l 2,2,3
 662 520 662 520 667 488.5 c 128,-1,4
 672 457 672 457 684 437.5 c 128,-1,5
 696 418 696 418 713.5 412 c 128,-1,6
 731 406 731 406 764 406 c 256,7,8
 795 406 795 406 815.5 412 c 128,-1,9
 836 418 836 418 847 438.5 c 128,-1,10
 858 459 858 459 861 490.5 c 128,-1,11
 864 522 864 522 864 569 c 2,12,-1
 864 670 l 1,0,-1
1624 899 m 1,13,-1
 1624 670 l 1,14,-1
 1151 670 l 1,15,-1
 1411 299 l 1,16,-1
 1411 266 l 1,17,-1
 1358 4 l 1,18,-1
 1327 4 l 1,19,-1
 1065 670 l 1,20,-1
 946 670 l 1,21,-1
 946 504 l 2,22,23
 946 438 946 438 940 386 c 128,-1,24
 934 334 934 334 913.5 298 c 128,-1,25
 893 262 893 262 857 243.5 c 128,-1,26
 821 225 821 225 764 225 c 0,27,28
 670 225 670 225 626 292.5 c 128,-1,29
 582 360 582 360 582 504 c 2,30,-1
 582 815 l 2,31,32
 582 831 582 831 585 846.5 c 128,-1,33
 588 862 588 862 596 875.5 c 128,-1,34
 604 889 604 889 620.5 894 c 128,-1,35
 637 899 637 899 662 899 c 2,36,-1
 864 899 l 1,37,38
 864 1042 864 1042 791.5 1130.5 c 128,-1,39
 719 1219 719 1219 565 1219 c 0,40,41
 469 1219 469 1219 405.5 1183 c 128,-1,42
 342 1147 342 1147 304 1090.5 c 128,-1,43
 266 1034 266 1034 249.5 963.5 c 128,-1,44
 233 893 233 893 233 821 c 0,45,46
 233 735 233 735 246.5 668.5 c 128,-1,47
 260 602 260 602 282.5 545.5 c 128,-1,48
 305 489 305 489 336 436 c 128,-1,49
 367 383 367 383 408 317 c 1,50,-1
 322 137 l 1,51,52
 275 203 275 203 242 285 c 128,-1,53
 209 367 209 367 187.5 459 c 128,-1,54
 166 551 166 551 154 643 c 0,55,56
 148 729 148 729 147 799 c 0,57,58
 147 879 147 879 154 963 c 1,59,60
 164 1035 164 1035 185.5 1100 c 128,-1,61
 207 1165 207 1165 238.5 1223.5 c 128,-1,62
 270 1282 270 1282 318.5 1326 c 128,-1,63
 367 1370 367 1370 427 1394.5 c 128,-1,64
 487 1419 487 1419 565 1419 c 0,65,66
 665 1419 665 1419 736 1385.5 c 128,-1,67
 807 1352 807 1352 850 1287.5 c 128,-1,68
 893 1223 893 1223 919.5 1119.5 c 128,-1,69
 946 1016 946 1016 946 899 c 1,70,-1
 1624 899 l 1,13,-1
EndSplineSet
Validated: 1
EndChar

StartChar: uniE09B
Encoding: 57499 57499 93
Width: 1003
Flags: W
LayerCount: 2
Fore
SplineSet
829 670 m 5,0,-1
 627 670 l 5,1,-1
 627 569 l 6,2,3
 627 520 627 520 631 488.5 c 132,-1,4
 635 457 635 457 647 437.5 c 132,-1,5
 659 418 659 418 677.5 412 c 132,-1,6
 696 406 696 406 727 406 c 260,7,8
 758 406 758 406 778.5 412 c 132,-1,9
 799 418 799 418 810 438.5 c 132,-1,10
 821 459 821 459 825 490.5 c 132,-1,11
 829 522 829 522 829 569 c 6,12,-1
 829 670 l 5,0,-1
117 670 m 5,13,-1
 -2 670 l 5,14,-1
 -2 899 l 5,15,-1
 115 899 l 5,16,17
 115 942 115 942 119 963 c 4,18,19
 127 1029 127 1029 150 1100 c 4,20,21
 170 1166 170 1166 203 1224 c 132,-1,22
 236 1282 236 1282 283 1326 c 132,-1,23
 330 1370 330 1370 390.5 1394.5 c 132,-1,24
 451 1419 451 1419 530 1419 c 4,25,26
 630 1419 630 1419 700 1385.5 c 132,-1,27
 770 1352 770 1352 813 1287.5 c 132,-1,28
 856 1223 856 1223 883.5 1119.5 c 132,-1,29
 911 1016 911 1016 911 899 c 5,30,-1
 1087 899 l 5,31,-1
 1087 670 l 5,32,-1
 911 670 l 5,33,-1
 911 504 l 6,34,35
 911 438 911 438 904 386 c 132,-1,36
 897 334 897 334 876.5 298 c 132,-1,37
 856 262 856 262 821 243.5 c 132,-1,38
 786 225 786 225 727 225 c 4,39,40
 633 225 633 225 590 292.5 c 132,-1,41
 547 360 547 360 547 504 c 6,42,-1
 547 815 l 6,43,44
 547 831 547 831 549 846.5 c 132,-1,45
 551 862 551 862 559 875.5 c 132,-1,46
 567 889 567 889 583.5 894 c 132,-1,47
 600 899 600 899 627 899 c 6,48,-1
 829 899 l 5,49,50
 829 1042 829 1042 755.5 1130.5 c 132,-1,51
 682 1219 682 1219 530 1219 c 4,52,53
 434 1219 434 1219 370.5 1183 c 132,-1,54
 307 1147 307 1147 269 1090.5 c 132,-1,55
 231 1034 231 1034 214 963.5 c 132,-1,56
 197 893 197 893 197 821 c 4,57,58
 197 735 197 735 210 668.5 c 132,-1,59
 223 602 223 602 245.5 545.5 c 132,-1,60
 268 489 268 489 299 436 c 132,-1,61
 330 383 330 383 373 317 c 5,62,-1
 285 137 l 5,63,64
 238 203 238 203 205 285 c 132,-1,65
 172 367 172 367 150 459 c 4,66,67
 123 578 123 578 119 643 c 4,68,69
 117 658 117 658 117 670 c 5,13,-1
EndSplineSet
Validated: 1
EndChar

StartChar: uniE09C
Encoding: 57500 57500 94
Width: 1028
Flags: W
LayerCount: 2
Fore
SplineSet
819 670 m 1,0,-1
 616 670 l 1,1,-1
 616 569 l 2,2,3
 616 520 616 520 621.5 488.5 c 128,-1,4
 627 457 627 457 639 437.5 c 128,-1,5
 651 418 651 418 668.5 412 c 128,-1,6
 686 406 686 406 719 406 c 256,7,8
 750 406 750 406 770.5 412 c 128,-1,9
 791 418 791 418 802 438.5 c 128,-1,10
 813 459 813 459 816 490.5 c 128,-1,11
 819 522 819 522 819 569 c 2,12,-1
 819 670 l 1,0,-1
104 899 m 1,13,14
 104 942 104 942 109 963 c 0,15,16
 117 1029 117 1029 141 1100 c 0,17,18
 161 1166 161 1166 193 1224 c 128,-1,19
 225 1282 225 1282 273.5 1326 c 128,-1,20
 322 1370 322 1370 382 1394.5 c 128,-1,21
 442 1419 442 1419 520 1419 c 0,22,23
 620 1419 620 1419 691 1385.5 c 128,-1,24
 762 1352 762 1352 805 1287.5 c 128,-1,25
 848 1223 848 1223 874.5 1119.5 c 128,-1,26
 901 1016 901 1016 901 899 c 2,27,-1
 901 504 l 2,28,29
 901 438 901 438 895 386 c 128,-1,30
 889 334 889 334 868.5 298 c 128,-1,31
 848 262 848 262 812 243.5 c 128,-1,32
 776 225 776 225 719 225 c 0,33,34
 625 225 625 225 581 292.5 c 128,-1,35
 537 360 537 360 537 504 c 2,36,-1
 537 815 l 2,37,38
 537 831 537 831 540 846.5 c 128,-1,39
 543 862 543 862 551 875.5 c 128,-1,40
 559 889 559 889 575.5 894 c 128,-1,41
 592 899 592 899 616 899 c 2,42,-1
 819 899 l 1,43,44
 819 1042 819 1042 746.5 1130.5 c 128,-1,45
 674 1219 674 1219 520 1219 c 0,46,47
 424 1219 424 1219 361.5 1183 c 128,-1,48
 299 1147 299 1147 260 1090.5 c 128,-1,49
 221 1034 221 1034 204.5 963.5 c 128,-1,50
 188 893 188 893 188 821 c 0,51,52
 188 735 188 735 201.5 668.5 c 128,-1,53
 215 602 215 602 237.5 545.5 c 128,-1,54
 260 489 260 489 291 436 c 128,-1,55
 322 383 322 383 362 317 c 1,56,-1
 276 137 l 1,57,58
 229 203 229 203 196.5 285 c 128,-1,59
 164 367 164 367 141 459 c 0,60,61
 114 578 114 578 109 643 c 0,62,63
 109 657 109 657 106 670 c 1,64,-1
 0 670 l 1,65,-1
 0 899 l 1,66,-1
 104 899 l 1,13,14
EndSplineSet
Validated: 1
EndChar

StartChar: uniE09D
Encoding: 57501 57501 95
Width: 1671
Flags: W
LayerCount: 2
Fore
SplineSet
1386 362 m 4,0,1
 1386 350 1386 350 1378 340 c 132,-1,2
 1370 330 1370 330 1360 318.5 c 132,-1,3
 1350 307 1350 307 1333.5 296 c 132,-1,4
 1317 285 1317 285 1303 268 c 4,5,6
 1289 252 1289 252 1277.5 237.5 c 132,-1,7
 1266 223 1266 223 1257.5 213 c 132,-1,8
 1249 203 1249 203 1243 196.5 c 132,-1,9
 1237 190 1237 190 1227 190 c 4,10,11
 1207 190 1207 190 1190.5 199.5 c 132,-1,12
 1174 209 1174 209 1174 236 c 4,13,14
 1174 265 1174 265 1180 287 c 132,-1,15
 1186 309 1186 309 1194 342 c 4,16,17
 1200 358 1200 358 1209.5 377.5 c 132,-1,18
 1219 397 1219 397 1233 414.5 c 132,-1,19
 1247 432 1247 432 1263.5 443.5 c 132,-1,20
 1280 455 1280 455 1300 455 c 4,21,22
 1318 455 1318 455 1343 430 c 4,23,24
 1386 393 1386 393 1386 362 c 4,0,1
1135 449 m 4,25,26
 1135 437 1135 437 1126.5 426.5 c 132,-1,27
 1118 416 1118 416 1108 405.5 c 132,-1,28
 1098 395 1098 395 1081.5 382 c 132,-1,29
 1065 369 1065 369 1051 354 c 4,30,31
 1037 338 1037 338 1025.5 323.5 c 132,-1,32
 1014 309 1014 309 1005.5 300 c 132,-1,33
 997 291 997 291 990 282.5 c 132,-1,34
 983 274 983 274 975 274 c 4,35,36
 955 274 955 274 938.5 285.5 c 132,-1,37
 922 297 922 297 922 319 c 4,38,39
 922 350 922 350 927 373.5 c 132,-1,40
 932 397 932 397 942 426 c 4,41,42
 948 446 948 446 957.5 465.5 c 132,-1,43
 967 485 967 485 981 500.5 c 132,-1,44
 995 516 995 516 1011.5 528.5 c 132,-1,45
 1028 541 1028 541 1049 541 c 4,46,47
 1067 541 1067 541 1094 516 c 4,48,49
 1135 480 1135 480 1135 449 c 4,25,26
1548 438 m 2,50,-1
 1548 23 l 2,51,52
 1548 -63 1548 -63 1532 -128 c 128,-1,53
 1516 -193 1516 -193 1485 -241 c 128,-1,54
 1454 -289 1454 -289 1409 -322.5 c 128,-1,55
 1364 -356 1364 -356 1305 -383 c 0,56,57
 1270 -397 1270 -397 1250.5 -409.5 c 128,-1,58
 1231 -422 1231 -422 1216.5 -435.5 c 128,-1,59
 1202 -449 1202 -449 1192 -466 c 128,-1,60
 1182 -483 1182 -483 1167 -512 c 1,61,-1
 1145 -512 l 1,62,-1
 1210 -225 l 1,63,64
 1224 -221 1224 -221 1237.5 -217 c 128,-1,65
 1251 -213 1251 -213 1267.5 -209 c 128,-1,66
 1284 -205 1284 -205 1301.5 -194.5 c 128,-1,67
 1319 -184 1319 -184 1346 -170 c 0,68,69
 1360 -162 1360 -162 1379.5 -148.5 c 128,-1,70
 1399 -135 1399 -135 1415.5 -112.5 c 128,-1,71
 1432 -90 1432 -90 1443 -57.5 c 128,-1,72
 1454 -25 1454 -25 1454 23 c 2,73,-1
 1454 438 l 2,74,75
 1454 553 1454 553 1412 611.5 c 128,-1,76
 1370 670 1370 670 1294 670 c 2,77,-1
 1085 670 l 1,78,-1
 1085 899 l 1,79,-1
 1294 899 l 2,80,81
 1421 899 1421 899 1484.5 785 c 128,-1,82
 1548 671 1548 671 1548 438 c 2,50,-1
543 899 m 1,83,84
 543 682 543 682 558 635 c 128,-1,85
 573 588 573 588 597 548 c 128,-1,86
 621 508 621 508 647.5 476 c 128,-1,87
 674 444 674 444 696 422 c 1,88,89
 696 465 696 465 697 514 c 128,-1,90
 698 563 698 563 704.5 623.5 c 128,-1,91
 711 684 711 684 724 748.5 c 128,-1,92
 737 813 737 813 762 887 c 1,93,94
 801 985 801 985 826.5 1057.5 c 128,-1,95
 852 1130 852 1130 868.5 1184.5 c 128,-1,96
 885 1239 885 1239 893 1285 c 128,-1,97
 901 1331 901 1331 901 1378 c 0,98,99
 901 1396 901 1396 896 1424 c 128,-1,100
 891 1452 891 1452 885 1479.5 c 128,-1,101
 879 1507 879 1507 871.5 1529.5 c 128,-1,102
 864 1552 864 1552 864 1563 c 0,103,104
 864 1596 864 1596 874.5 1611 c 128,-1,105
 885 1626 885 1626 909 1626 c 0,106,107
 932 1626 932 1626 956.5 1578 c 128,-1,108
 981 1530 981 1530 1020 1450 c 0,109,110
 1063 1366 1063 1366 1098 1304.5 c 128,-1,111
 1133 1243 1133 1243 1149 1196 c 1,112,113
 1118 1163 1118 1163 1082.5 1116 c 128,-1,114
 1047 1069 1047 1069 1012 1015 c 128,-1,115
 977 961 977 961 946 905 c 0,116,117
 919 858 919 858 899 798.5 c 128,-1,118
 879 739 879 739 860.5 686 c 128,-1,119
 842 633 842 633 828.5 569.5 c 128,-1,120
 815 506 815 506 809 424 c 128,-1,121
 803 342 803 342 803 225 c 1,122,123
 733 262 733 262 670.5 313.5 c 128,-1,124
 608 365 608 365 563 424 c 0,125,126
 520 479 520 479 489 547 c 0,127,128
 460 608 460 608 457 670 c 1,129,-1
 305 670 l 1,130,131
 303 639 303 639 298 585.5 c 128,-1,132
 293 532 293 532 287 473 c 128,-1,133
 281 414 281 414 272.5 360.5 c 128,-1,134
 264 307 264 307 254 276 c 1,135,-1
 209 260 l 1,136,137
 168 354 168 354 146.5 458.5 c 128,-1,138
 125 563 125 563 115 670 c 1,139,-1
 -2 670 l 1,140,-1
 -2 899 l 1,141,-1
 543 899 l 1,83,84
EndSplineSet
Validated: 1
EndChar

StartChar: uniE09F
Encoding: 57503 57503 96
Width: 1728
Flags: W
LayerCount: 2
Fore
SplineSet
562 670 m 1,0,-1
 231 670 l 1,1,2
 231 602 231 602 233 543.5 c 128,-1,3
 235 485 235 485 250 442.5 c 128,-1,4
 265 400 265 400 299.5 375 c 128,-1,5
 334 350 334 350 397 350 c 0,6,7
 458 350 458 350 491.5 374 c 128,-1,8
 525 398 525 398 541 440.5 c 128,-1,9
 557 483 557 483 559.5 540.5 c 128,-1,10
 562 598 562 598 562 670 c 1,0,-1
906 670 m 1,11,12
 925 598 925 598 951 541.5 c 128,-1,13
 977 485 977 485 1004 443.5 c 128,-1,14
 1031 402 1031 402 1057 370.5 c 128,-1,15
 1083 339 1083 339 1099 315 c 1,16,-1
 1059 112 l 1,17,-1
 1031 112 l 1,18,19
 937 221 937 221 873 409.5 c 128,-1,20
 809 598 809 598 772 843 c 0,21,22
 757 935 757 935 729 1005.5 c 128,-1,23
 701 1076 701 1076 664.5 1123 c 128,-1,24
 628 1170 628 1170 585.5 1196 c 128,-1,25
 543 1222 543 1222 498 1222 c 0,26,27
 294 1222 294 1222 235 900 c 1,28,-1
 536 900 l 2,29,30
 642 900 642 900 642 791 c 2,31,-1
 642 553 l 2,32,33
 642 483 642 483 630.5 414.5 c 128,-1,34
 619 346 619 346 590.5 292 c 128,-1,35
 562 238 562 238 514.5 204.5 c 128,-1,36
 467 171 467 171 397 171 c 0,37,38
 358 171 358 171 327 183 c 1,39,40
 316 151 316 151 315 149 c 0,41,42
 313 133 313 133 313 119 c 0,43,44
 313 92 313 92 321.5 74 c 128,-1,45
 330 56 330 56 340.5 39.5 c 128,-1,46
 351 23 351 23 359 4 c 128,-1,47
 367 -15 367 -15 367 -47 c 0,48,49
 367 -67 367 -67 361.5 -78.5 c 128,-1,50
 356 -90 356 -90 345.5 -99 c 128,-1,51
 335 -108 335 -108 323 -111 c 128,-1,52
 311 -114 311 -114 302 -114 c 0,53,54
 245 -114 245 -114 210.5 -70.5 c 128,-1,55
 176 -27 176 -27 176 42 c 0,56,57
 176 61 176 61 182.5 84.5 c 128,-1,58
 189 108 189 108 198 132.5 c 128,-1,59
 207 157 207 157 221 181 c 0,60,61
 232 199 232 199 254 239 c 1,62,63
 244 250 244 250 236 262 c 0,64,65
 209 303 209 303 191 355 c 128,-1,66
 173 407 173 407 164 461 c 128,-1,67
 155 515 155 515 152.5 570.5 c 128,-1,68
 150 626 150 626 150 670 c 2,69,-1
 150 901 l 1,70,71
 166 1155 166 1155 253.5 1290 c 128,-1,72
 341 1425 341 1425 498 1425 c 0,73,74
 577 1425 577 1425 636.5 1376.5 c 128,-1,75
 696 1328 696 1328 738.5 1252.5 c 128,-1,76
 781 1177 781 1177 806 1084 c 128,-1,77
 831 991 831 991 840 900 c 1,78,-1
 1389 900 l 1,79,80
 1482 893 1482 893 1535.5 822.5 c 128,-1,81
 1589 752 1589 752 1589 632 c 2,82,-1
 1589 511 l 2,83,84
 1589 439 1589 439 1564 395.5 c 128,-1,85
 1539 352 1539 352 1502 352 c 1,86,-1
 1502 375 l 2,87,88
 1502 511 1502 511 1451 588.5 c 128,-1,89
 1400 666 1400 666 1301 670 c 1,90,-1
 906 670 l 1,11,12
EndSplineSet
Validated: 1
EndChar

StartChar: uniE0A0
Encoding: 57504 57504 97
Width: 1124
Flags: W
LayerCount: 2
Fore
SplineSet
879 899 m 1,0,1
 873 950 873 950 854.5 1008.5 c 128,-1,2
 836 1067 836 1067 799 1113 c 128,-1,3
 762 1159 762 1159 705.5 1192 c 128,-1,4
 649 1225 649 1225 569 1225 c 0,5,6
 516 1225 516 1225 464 1203.5 c 128,-1,7
 412 1182 412 1182 367 1142 c 128,-1,8
 322 1102 322 1102 290 1041.5 c 128,-1,9
 258 981 258 981 244 899 c 1,10,-1
 457 899 l 2,11,12
 508 899 508 899 534.5 868.5 c 128,-1,13
 561 838 561 838 565 786 c 1,14,15
 567 837 567 837 595 868 c 128,-1,16
 623 899 623 899 676 899 c 2,17,-1
 879 899 l 1,0,1
895 670 m 1,18,-1
 649 670 l 1,19,20
 649 594 649 594 652 544 c 128,-1,21
 655 494 655 494 667.5 460 c 128,-1,22
 680 426 680 426 703.5 410.5 c 128,-1,23
 727 395 727 395 764 395 c 0,24,25
 842 395 842 395 868.5 463 c 128,-1,26
 895 531 895 531 895 670 c 1,18,-1
485 670 m 1,27,-1
 240 670 l 1,28,29
 240 531 240 531 264.5 463 c 128,-1,30
 289 395 289 395 367 395 c 0,31,32
 406 395 406 395 428.5 410.5 c 128,-1,33
 451 426 451 426 462 460 c 128,-1,34
 473 494 473 494 479 544 c 128,-1,35
 485 594 485 594 485 670 c 1,27,-1
203 336 m 0,36,37
 178 393 178 393 168 476 c 128,-1,38
 158 559 158 559 158 666 c 2,39,-1
 158 901 l 1,40,41
 164 1028 164 1028 200 1127.5 c 128,-1,42
 236 1227 236 1227 291 1293.5 c 128,-1,43
 346 1360 346 1360 417.5 1395 c 128,-1,44
 489 1430 489 1430 569 1430 c 0,45,46
 678 1430 678 1430 751.5 1383.5 c 128,-1,47
 825 1337 825 1337 874.5 1263.5 c 128,-1,48
 924 1190 924 1190 948.5 1093.5 c 128,-1,49
 973 997 973 997 977 901 c 1,50,-1
 977 666 l 2,51,52
 977 560 977 560 964.5 476.5 c 128,-1,53
 952 393 952 393 926.5 334.5 c 128,-1,54
 901 276 901 276 862 245.5 c 128,-1,55
 823 215 823 215 764 215 c 0,56,57
 670 215 670 215 619.5 285.5 c 128,-1,58
 569 356 569 356 565 500 c 1,59,60
 561 359 561 359 511 287 c 128,-1,61
 461 215 461 215 367 215 c 0,62,63
 357 215 357 215 344 217 c 1,64,65
 340 201 340 201 332 178 c 0,66,67
 320 143 320 143 319 119 c 0,68,69
 319 92 319 92 327.5 73.5 c 128,-1,70
 336 55 336 55 346 39 c 128,-1,71
 356 23 356 23 364.5 4.5 c 128,-1,72
 373 -14 373 -14 373 -47 c 0,73,74
 373 -67 373 -67 367.5 -78.5 c 128,-1,75
 362 -90 362 -90 352 -99.5 c 128,-1,76
 342 -109 342 -109 329.5 -112 c 128,-1,77
 317 -115 317 -115 307 -115 c 0,78,79
 250 -115 250 -115 216 -71 c 128,-1,80
 182 -27 182 -27 182 43 c 0,81,82
 182 61 182 61 188.5 85 c 128,-1,83
 195 109 195 109 204 133.5 c 128,-1,84
 213 158 213 158 226.5 180.5 c 128,-1,85
 240 203 240 203 264 248 c 1,86,87
 226 281 226 281 203 336 c 0,36,37
EndSplineSet
Validated: 1
EndChar

StartChar: uniE0A1
Encoding: 57505 57505 98
Width: 1550
Flags: W
LayerCount: 2
Fore
SplineSet
872 899 m 1,0,1
 866 950 866 950 848.5 1008.5 c 128,-1,2
 831 1067 831 1067 794.5 1113 c 132,-1,3
 758 1159 758 1159 700.5 1192 c 132,-1,4
 643 1225 643 1225 563 1225 c 4,5,6
 510 1225 510 1225 458 1203.5 c 132,-1,7
 406 1182 406 1182 360.5 1142 c 132,-1,8
 315 1102 315 1102 284.5 1041.5 c 128,-1,9
 254 981 254 981 240 899 c 1,10,-1
 451 899 l 2,11,12
 502 899 502 899 529.5 868.5 c 128,-1,13
 557 838 557 838 561 786 c 1,14,15
 563 837 563 837 590.5 868 c 128,-1,16
 618 899 618 899 672 899 c 2,17,-1
 872 899 l 1,0,1
889 670 m 1,18,-1
 643 670 l 1,19,20
 643 594 643 594 647 544 c 128,-1,21
 651 494 651 494 663.5 460 c 128,-1,22
 676 426 676 426 699.5 410.5 c 128,-1,23
 723 395 723 395 760 395 c 0,24,25
 838 395 838 395 863.5 463 c 128,-1,26
 889 531 889 531 889 670 c 1,18,-1
236 670 m 1,27,28
 236 531 236 531 260.5 463 c 128,-1,29
 285 395 285 395 360 395 c 0,30,31
 399 395 399 395 422.5 410.5 c 128,-1,32
 446 426 446 426 457.5 460 c 128,-1,33
 469 494 469 494 474 545 c 128,-1,34
 479 596 479 596 479 670 c 1,35,-1
 236 670 l 1,27,28
152 901 m 17,36,37
 158 1028 158 1028 193.5 1127.5 c 128,-1,38
 229 1227 229 1227 285.5 1293.5 c 128,-1,39
 342 1360 342 1360 412.5 1395 c 128,-1,40
 483 1430 483 1430 563 1430 c 0,41,42
 672 1430 672 1430 746.5 1383.5 c 128,-1,43
 821 1337 821 1337 869.5 1263.5 c 128,-1,44
 918 1190 918 1190 942.5 1093.5 c 128,-1,45
 967 997 967 997 973 901 c 1,46,-1
 973 899 l 1,47,-1
 1190 899 l 1,48,49
 1282 893 1282 893 1336.5 822.5 c 128,-1,50
 1391 752 1391 752 1391 633 c 2,51,-1
 1391 512 l 2,52,53
 1391 440 1391 440 1365 396 c 128,-1,54
 1339 352 1339 352 1303 352 c 1,55,-1
 1303 375 l 2,56,57
 1303 510 1303 510 1251.5 588 c 128,-1,58
 1200 666 1200 666 1102 670 c 1,59,-1
 973 670 l 1,60,-1
 973 666 l 2,61,62
 973 560 973 560 960.5 476.5 c 128,-1,63
 948 393 948 393 922.5 334.5 c 128,-1,64
 897 276 897 276 858 245.5 c 128,-1,65
 819 215 819 215 760 215 c 0,66,67
 666 215 666 215 614.5 285.5 c 128,-1,68
 563 356 563 356 561 500 c 1,69,70
 557 359 557 359 507 287 c 128,-1,71
 457 215 457 215 360 215 c 0,72,73
 350 215 350 215 340 217 c 1,74,75
 336 201 336 201 326 178 c 0,76,77
 314 143 314 143 313 119 c 0,78,79
 313 92 313 92 321.5 73.5 c 128,-1,80
 330 55 330 55 340 39 c 128,-1,81
 350 23 350 23 358.5 4.5 c 128,-1,82
 367 -14 367 -14 367 -47 c 0,83,84
 367 -67 367 -67 361.5 -78.5 c 128,-1,85
 356 -90 356 -90 346 -99.5 c 128,-1,86
 336 -109 336 -109 323.5 -112 c 128,-1,87
 311 -115 311 -115 301 -115 c 0,88,89
 244 -115 244 -115 210 -71 c 128,-1,90
 176 -27 176 -27 176 43 c 0,91,92
 176 61 176 61 182 85 c 128,-1,93
 188 109 188 109 197.5 133.5 c 128,-1,94
 207 158 207 158 220 180.5 c 128,-1,95
 233 203 233 203 258 248 c 1,96,-1
 258 250 l 1,97,98
 219 281 219 281 199 336 c 0,99,100
 174 393 174 393 163 476 c 128,-1,101
 152 559 152 559 152 666 c 2,102,-1
 152 670 l 9,103,-1
 152 901 l 17,36,37
EndSplineSet
Validated: 1
EndChar

StartChar: uniE0A2
Encoding: 57506 57506 99
Width: 1134
Flags: W
LayerCount: 2
Fore
SplineSet
588 670 m 1,0,-1
 256 670 l 1,1,2
 256 604 256 604 258 545.5 c 128,-1,3
 260 487 260 487 275.5 444 c 128,-1,4
 291 401 291 401 324.5 376.5 c 128,-1,5
 358 352 358 352 422 352 c 0,6,7
 485 352 485 352 519 375.5 c 128,-1,8
 553 399 553 399 568.5 441 c 128,-1,9
 584 483 584 483 586 541.5 c 128,-1,10
 588 600 588 600 588 670 c 1,0,-1
279 240 m 1,11,12
 271 250 271 250 262 260 c 0,13,14
 233 301 233 301 217 353.5 c 128,-1,15
 201 406 201 406 190.5 460 c 128,-1,16
 180 514 180 514 177 569.5 c 128,-1,17
 174 625 174 625 174 670 c 2,18,-1
 174 901 l 1,19,20
 192 1157 192 1157 279.5 1291 c 128,-1,21
 367 1425 367 1425 526 1425 c 0,22,23
 604 1425 604 1425 664.5 1387.5 c 128,-1,24
 725 1350 725 1350 767 1280 c 128,-1,25
 809 1210 809 1210 834.5 1114 c 128,-1,26
 860 1018 860 1018 870 899 c 1,27,-1
 1235 899 l 1,28,-1
 1235 670 l 1,29,-1
 973 670 l 1,30,31
 971 639 971 639 964.5 585.5 c 128,-1,32
 958 532 958 532 952 473 c 128,-1,33
 946 414 946 414 938 360.5 c 128,-1,34
 930 307 930 307 920 276 c 1,35,-1
 874 260 l 1,36,37
 833 354 833 354 812 458.5 c 128,-1,38
 791 563 791 563 784 670 c 0,39,40
 784 740 784 740 782 809 c 0,41,42
 780 887 780 887 762 961 c 0,43,44
 742 1041 742 1041 709 1098 c 128,-1,45
 676 1155 676 1155 631 1188 c 128,-1,46
 586 1221 586 1221 526 1221 c 0,47,48
 319 1221 319 1221 260 899 c 1,49,-1
 563 899 l 2,50,51
 672 899 672 899 672 791 c 2,52,-1
 672 555 l 2,53,54
 672 481 672 481 658.5 411.5 c 128,-1,55
 645 342 645 342 616.5 289 c 128,-1,56
 588 236 588 236 541 203 c 128,-1,57
 494 170 494 170 422 170 c 0,58,59
 385 170 385 170 352 182 c 1,60,61
 340 151 340 151 340 150 c 0,62,63
 338 134 338 134 338 119 c 0,64,65
 338 92 338 92 346 73.5 c 128,-1,66
 354 55 354 55 364.5 39 c 128,-1,67
 375 23 375 23 383 4.5 c 128,-1,68
 391 -14 391 -14 391 -47 c 0,69,70
 391 -67 391 -67 386 -78.5 c 128,-1,71
 381 -90 381 -90 369.5 -99.5 c 128,-1,72
 358 -109 358 -109 347 -112 c 128,-1,73
 336 -115 336 -115 326 -115 c 0,74,75
 269 -115 269 -115 235 -71 c 128,-1,76
 201 -27 201 -27 201 43 c 0,77,78
 201 61 201 61 207 85 c 128,-1,79
 213 109 213 109 222 133.5 c 128,-1,80
 231 158 231 158 246 180 c 0,81,82
 256 199 256 199 279 240 c 1,11,12
EndSplineSet
Validated: 1
EndChar

StartChar: uniE000
Encoding: 57344 57344 102
Width: 698
Flags: W
LayerCount: 2
Fore
SplineSet
532 670 m 1,0,1
 530 572 530 572 518 473.5 c 128,-1,2
 506 375 506 375 487 272 c 1,3,-1
 440 262 l 1,4,5
 413 315 413 315 397 382 c 128,-1,6
 381 449 381 449 367.5 513.5 c 128,-1,7
 354 578 354 578 348 631 c 128,-1,8
 342 684 342 684 342 709 c 2,9,-1
 342 899 l 2,10,11
 342 950 342 950 330.5 983 c 128,-1,12
 319 1016 319 1016 291 1016 c 0,13,14
 271 1016 271 1016 254.5 1012 c 128,-1,15
 238 1008 238 1008 223.5 1000.5 c 128,-1,16
 209 993 209 993 193.5 986 c 128,-1,17
 178 979 178 979 158 963 c 0,18,19
 129 943 129 943 110.5 926 c 128,-1,20
 92 909 92 909 84 909 c 1,21,22
 70 923 70 923 58.5 938.5 c 128,-1,23
 47 954 47 954 47 967 c 1,24,25
 61 981 61 981 78.5 1003.5 c 128,-1,26
 96 1026 96 1026 115 1044 c 0,27,28
 201 1140 201 1140 261.5 1185.5 c 128,-1,29
 322 1231 322 1231 365 1231 c 0,30,31
 424 1231 424 1231 455.5 1174.5 c 128,-1,32
 487 1118 487 1118 487 1026 c 2,33,-1
 487 899 l 1,34,-1
 801 899 l 1,35,-1
 801 670 l 1,36,-1
 532 670 l 1,0,1
EndSplineSet
Validated: 1
EndChar

StartChar: uniE001
Encoding: 57345 57345 103
Width: 691
Flags: W
LayerCount: 2
Fore
SplineSet
794 899 m 1,0,-1
 794 670 l 1,1,-1
 598 670 l 1,2,-1
 598 498 l 2,3,4
 598 344 598 344 543.5 258 c 128,-1,5
 489 172 489 172 375 172 c 0,6,7
 260 172 260 172 201.5 258 c 128,-1,8
 143 344 143 344 143 498 c 2,9,-1
 143 670 l 1,10,-1
 143 670 l 1,11,-1
 143 899 l 1,12,-1
 794 899 l 1,0,-1
211 670 m 1,13,-1
 211 498 l 2,14,15
 211 424 211 424 257 388 c 128,-1,16
 303 352 303 352 377 352 c 0,17,18
 449 352 449 352 488.5 388 c 128,-1,19
 528 424 528 424 528 498 c 2,20,-1
 528 670 l 1,21,-1
 211 670 l 1,13,-1
EndSplineSet
Validated: 1
EndChar

StartChar: uniE005
Encoding: 57349 57349 104
Width: 469
Flags: W
LayerCount: 2
Fore
SplineSet
570 899 m 5,0,-1
 570 670 l 5,1,-1
 308 670 l 5,2,3
 306 639 306 639 299.5 585.5 c 132,-1,4
 293 532 293 532 288 473 c 132,-1,5
 283 414 283 414 275 360.5 c 132,-1,6
 267 307 267 307 256 276 c 5,7,-1
 211 260 l 5,8,9
 170 354 170 354 147.5 458.5 c 132,-1,10
 125 563 125 563 117 670 c 5,11,-1
 0 670 l 5,12,-1
 0 899 l 5,13,-1
 570 899 l 5,0,-1
EndSplineSet
Validated: 1
EndChar

StartChar: uniE006
Encoding: 57350 57350 105
Width: 499
Flags: W
LayerCount: 2
Fore
SplineSet
196 670 m 5,0,-1
 456 299 l 5,1,-1
 456 266 l 5,2,-1
 403 4 l 5,3,-1
 372 4 l 5,4,-1
 110 670 l 5,5,-1
 -1 670 l 5,6,-1
 -1 899 l 5,7,-1
 669 899 l 5,8,-1
 669 670 l 5,9,-1
 196 670 l 5,0,-1
EndSplineSet
Validated: 1
EndChar

StartChar: uniE008
Encoding: 57352 57352 106
Width: 667
Flags: W
LayerCount: 2
Fore
SplineSet
770 899 m 5,0,-1
 770 670 l 5,1,-1
 574 670 l 5,2,-1
 574 498 l 6,3,4
 574 344 574 344 519.5 258 c 132,-1,5
 465 172 465 172 351 172 c 4,6,7
 236 172 236 172 177.5 258 c 132,-1,8
 119 344 119 344 119 498 c 6,9,-1
 119 670 l 5,10,-1
 0 670 l 5,11,-1
 0 899 l 5,12,-1
 770 899 l 5,0,-1
187 670 m 5,13,-1
 187 498 l 6,14,15
 187 424 187 424 233 388 c 132,-1,16
 279 352 279 352 353 352 c 4,17,18
 425 352 425 352 464.5 388 c 132,-1,19
 504 424 504 424 504 498 c 6,20,-1
 504 670 l 5,21,-1
 187 670 l 5,13,-1
EndSplineSet
Validated: 1
EndChar

StartChar: uniE00C
Encoding: 57356 57356 107
Width: 1073
Flags: W
LayerCount: 2
Fore
SplineSet
924 1395 m 1,0,1
 832 1276 832 1276 767 1183 c 128,-1,2
 702 1090 702 1090 634.5 919 c 128,-1,3
 567 748 567 748 511 545 c 128,-1,4
 455 342 455 342 455 145 c 1,5,6
 383 182 383 182 321.5 245.5 c 128,-1,7
 260 309 260 309 215 383 c 128,-1,8
 170 457 170 457 140.5 532.5 c 128,-1,9
 111 608 111 608 106 670 c 1,10,-1
 0 670 l 1,11,-1
 0 899 l 1,12,-1
 190 899 l 1,13,-1
 190 762 l 2,14,15
 190 715 190 715 207.5 654.5 c 128,-1,16
 225 594 225 594 250.5 535.5 c 128,-1,17
 276 477 276 477 304 431 c 128,-1,18
 332 385 332 385 354 365 c 1,19,20
 348 383 348 383 348 416 c 0,21,22
 348 436 348 436 352 463 c 0,23,24
 358 526 358 526 387 655 c 128,-1,25
 416 784 416 784 502 1002.5 c 128,-1,26
 588 1221 588 1221 628 1370.5 c 128,-1,27
 668 1520 668 1520 668 1561 c 0,28,29
 668 1588 668 1588 662.5 1620.5 c 128,-1,30
 657 1653 657 1653 651 1687.5 c 128,-1,31
 645 1722 645 1722 639 1752 c 128,-1,32
 633 1782 633 1782 633 1790 c 0,33,34
 633 1825 633 1825 641 1840 c 128,-1,35
 649 1855 649 1855 676 1855 c 0,36,37
 682 1855 682 1855 695.5 1838 c 128,-1,38
 709 1821 709 1821 723 1796 c 0,39,40
 754 1739 754 1739 777.5 1692 c 128,-1,41
 801 1645 801 1645 823.5 1597.5 c 128,-1,42
 846 1550 846 1550 870.5 1501 c 128,-1,43
 895 1452 895 1452 924 1395 c 1,0,1
EndSplineSet
Validated: 1
EndChar

StartChar: uniE00D
Encoding: 57357 57357 108
Width: 574
Flags: W
LayerCount: 2
Fore
SplineSet
463 438 m 6,0,-1
 463 23 l 6,1,2
 463 -63 463 -63 446.5 -128 c 132,-1,3
 430 -193 430 -193 399.5 -241 c 132,-1,4
 369 -289 369 -289 322.5 -322.5 c 132,-1,5
 276 -356 276 -356 219 -383 c 4,6,7
 184 -397 184 -397 164.5 -409.5 c 132,-1,8
 145 -422 145 -422 131 -435.5 c 132,-1,9
 117 -449 117 -449 105.5 -466 c 132,-1,10
 94 -483 94 -483 82 -512 c 5,11,-1
 59 -512 l 5,12,-1
 125 -225 l 5,13,14
 139 -221 139 -221 152.5 -217 c 132,-1,15
 166 -213 166 -213 182.5 -209 c 132,-1,16
 199 -205 199 -205 216 -194.5 c 132,-1,17
 233 -184 233 -184 258 -170 c 4,18,19
 272 -162 272 -162 292.5 -148.5 c 132,-1,20
 313 -135 313 -135 329.5 -112.5 c 132,-1,21
 346 -90 346 -90 357.5 -57.5 c 132,-1,22
 369 -25 369 -25 369 23 c 6,23,-1
 369 438 l 6,24,25
 369 553 369 553 327 611.5 c 132,-1,26
 285 670 285 670 209 670 c 6,27,-1
 0 670 l 5,28,-1
 0 899 l 5,29,-1
 209 899 l 6,30,31
 336 899 336 899 399.5 785 c 132,-1,32
 463 671 463 671 463 438 c 6,0,-1
EndSplineSet
Validated: 1
EndChar

StartChar: uniE00E
Encoding: 57358 57358 109
Width: 761
Flags: W
LayerCount: 2
Fore
SplineSet
650 846 m 4,0,1
 650 805 650 805 644.5 787.5 c 132,-1,2
 639 770 639 770 625 770 c 4,3,4
 613 770 613 770 604.5 787.5 c 4,5,6
 592 813 592 813 590 821 c 4,7,8
 578 876 578 876 564.5 936.5 c 132,-1,9
 551 997 551 997 532.5 1048.5 c 132,-1,10
 514 1100 514 1100 482.5 1134.5 c 132,-1,11
 451 1169 451 1169 402 1169 c 4,12,13
 345 1169 345 1169 304 1139.5 c 132,-1,14
 263 1110 263 1110 232 1058 c 132,-1,15
 201 1006 201 1006 187.5 937 c 132,-1,16
 174 868 174 868 174 793 c 4,17,18
 174 730 174 730 216 628 c 132,-1,19
 258 526 258 526 343 450.5 c 132,-1,20
 428 375 428 375 443 360 c 5,21,-1
 381 162 l 5,22,-1
 361 162 l 5,23,24
 318 211 318 211 275 276.5 c 132,-1,25
 232 342 232 342 196 412.5 c 132,-1,26
 160 483 160 483 139.5 549.5 c 132,-1,27
 119 616 119 616 119 670 c 5,28,-1
 0 670 l 5,29,-1
 0 899 l 5,30,-1
 119 899 l 5,31,32
 135 1126 135 1126 207 1250 c 132,-1,33
 279 1374 279 1374 404 1374 c 4,34,35
 474 1374 474 1374 523 1327 c 132,-1,36
 572 1280 572 1280 600.5 1204 c 132,-1,37
 629 1128 629 1128 639.5 1034 c 132,-1,38
 650 940 650 940 650 846 c 4,0,1
EndSplineSet
Validated: 1
EndChar

StartChar: uniE00F
Encoding: 57359 57359 110
Width: 704
Flags: W
LayerCount: 2
Fore
SplineSet
574 899 m 1,0,-1
 574 670 l 1,1,-1
 574 670 l 1,2,-1
 574 498 l 2,3,4
 574 344 574 344 519.5 258 c 128,-1,5
 465 172 465 172 351 172 c 0,6,7
 236 172 236 172 177.5 258 c 128,-1,8
 119 344 119 344 119 498 c 2,9,-1
 119 670 l 1,10,-1
 0 670 l 1,11,-1
 0 899 l 1,12,-1
 574 899 l 1,0,-1
187 670 m 1,13,-1
 187 498 l 2,14,15
 187 424 187 424 233 388 c 128,-1,16
 279 352 279 352 353 352 c 0,17,18
 425 352 425 352 464.5 388 c 128,-1,19
 504 424 504 424 504 498 c 2,20,-1
 504 670 l 1,21,-1
 187 670 l 1,13,-1
EndSplineSet
Validated: 1
EndChar

StartChar: uniE010
Encoding: 57360 57360 111
Width: 1127
Flags: W
LayerCount: 2
Fore
SplineSet
187 670 m 1,0,-1
 187 498 l 2,1,2
 187 424 187 424 233 388 c 128,-1,3
 279 352 279 352 353 352 c 0,4,5
 425 352 425 352 464.5 388 c 128,-1,6
 504 424 504 424 504 498 c 2,7,-1
 504 670 l 1,8,-1
 187 670 l 1,0,-1
574 670 m 1,9,-1
 574 498 l 2,10,11
 574 344 574 344 519.5 258 c 128,-1,12
 465 172 465 172 351 172 c 0,13,14
 236 172 236 172 177.5 258 c 128,-1,15
 119 344 119 344 119 498 c 2,16,-1
 119 670 l 1,17,-1
 0 670 l 1,18,-1
 0 899 l 1,19,-1
 799 899 l 1,20,21
 891 893 891 893 945.5 822.5 c 128,-1,22
 1000 752 1000 752 1000 633 c 2,23,-1
 1000 512 l 2,24,25
 1000 440 1000 440 974.5 396 c 128,-1,26
 949 352 949 352 912 352 c 1,27,-1
 912 375 l 2,28,29
 912 510 912 510 860.5 588 c 128,-1,30
 809 666 809 666 711 670 c 1,31,-1
 574 670 l 1,9,-1
EndSplineSet
Validated: 1
EndChar

StartChar: uniE0A3
Encoding: 57507 57507 112
Width: 1069
Flags: W
LayerCount: 2
Fore
SplineSet
500 899 m 2,0,1
 607 899 607 899 606 795 c 0,2,3
 606 793 606 793 606 791 c 2,4,-1
 606 555 l 2,5,6
 606 481 606 481 594 411.5 c 128,-1,7
 582 342 582 342 553 289 c 128,-1,8
 524 236 524 236 477 203 c 128,-1,9
 430 170 430 170 356 170 c 0,10,11
 319 170 319 170 289 182 c 1,12,13
 277 151 277 151 276 150 c 0,14,15
 274 134 274 134 272 119 c 0,16,17
 272 92 272 92 281.5 73.5 c 128,-1,18
 291 55 291 55 301 39 c 128,-1,19
 311 23 311 23 319.5 4.5 c 128,-1,20
 328 -14 328 -14 328 -47 c 0,21,22
 328 -67 328 -67 321.5 -78.5 c 128,-1,23
 315 -90 315 -90 305 -99.5 c 128,-1,24
 295 -109 295 -109 282.5 -112 c 128,-1,25
 270 -115 270 -115 262 -115 c 0,26,27
 205 -115 205 -115 170 -71 c 128,-1,28
 135 -27 135 -27 135 43 c 0,29,30
 135 61 135 61 142.5 85 c 128,-1,31
 150 109 150 109 158 133 c 0,32,33
 170 164 170 164 180 180 c 0,34,35
 190 198 190 198 213 240 c 1,36,37
 205 250 205 250 199 260 c 0,38,39
 170 301 170 301 152.5 353.5 c 128,-1,40
 135 406 135 406 126 460 c 128,-1,41
 117 514 117 514 114 569.5 c 128,-1,42
 111 625 111 625 111 670 c 1,43,-1
 0 670 l 1,44,-1
 0 899 l 1,45,-1
 111 899 l 1,46,-1
 111 901 l 1,47,48
 129 1157 129 1157 216 1291 c 128,-1,49
 303 1425 303 1425 463 1425 c 0,50,51
 541 1425 541 1425 600 1387.5 c 128,-1,52
 659 1350 659 1350 702 1280 c 128,-1,53
 745 1210 745 1210 771 1114 c 128,-1,54
 797 1018 797 1018 807 899 c 1,55,-1
 1169 899 l 1,56,-1
 1169 670 l 1,57,-1
 907 670 l 1,58,59
 905 639 905 639 900 585.5 c 128,-1,60
 895 532 895 532 889 473 c 128,-1,61
 883 414 883 414 874.5 360.5 c 128,-1,62
 866 307 866 307 856 276 c 1,63,-1
 811 260 l 1,64,65
 770 354 770 354 748 459 c 0,66,67
 721 585 721 585 721 659 c 0,68,69
 721 664 721 664 721 670 c 0,70,71
 721 695 721 695 719 809 c 0,72,73
 719 883 719 883 698 961 c 0,74,75
 678 1041 678 1041 644 1098 c 128,-1,76
 610 1155 610 1155 566 1188 c 128,-1,77
 522 1221 522 1221 463 1221 c 0,78,79
 256 1221 256 1221 197 899 c 1,80,-1
 500 899 l 2,0,1
193 670 m 1,81,82
 193 604 193 604 195 545.5 c 128,-1,83
 197 487 197 487 212 444 c 128,-1,84
 227 401 227 401 261 376.5 c 128,-1,85
 295 352 295 352 356 352 c 0,86,87
 419 352 419 352 453 375.5 c 128,-1,88
 487 399 487 399 502.5 441 c 128,-1,89
 518 483 518 483 521 541.5 c 128,-1,90
 524 600 524 600 524 670 c 1,91,-1
 193 670 l 1,81,82
EndSplineSet
Validated: 33
EndChar

StartChar: uniE0A5
Encoding: 57509 57509 113
Width: 1255
Flags: W
LayerCount: 2
Fore
SplineSet
580 670 m 1,0,-1
 250 670 l 1,1,2
 250 602 250 602 252 543.5 c 128,-1,3
 254 485 254 485 268.5 442 c 128,-1,4
 283 399 283 399 317.5 374.5 c 128,-1,5
 352 350 352 350 416 350 c 0,6,7
 477 350 477 350 510 373.5 c 128,-1,8
 543 397 543 397 559 440 c 128,-1,9
 575 483 575 483 577.5 540.5 c 128,-1,10
 580 598 580 598 580 670 c 1,0,-1
272 240 m 1,11,12
 262 250 262 250 254 262 c 0,13,14
 227 303 227 303 208.5 355.5 c 128,-1,15
 190 408 190 408 181 461 c 128,-1,16
 172 514 172 514 170 570.5 c 128,-1,17
 168 627 168 627 168 670 c 2,18,-1
 168 901 l 1,19,20
 184 1155 184 1155 271 1290 c 128,-1,21
 358 1425 358 1425 516 1425 c 0,22,23
 596 1425 596 1425 655.5 1376 c 128,-1,24
 715 1327 715 1327 757 1252.5 c 128,-1,25
 799 1178 799 1178 824.5 1084.5 c 128,-1,26
 850 991 850 991 858 899 c 1,27,-1
 1378 899 l 1,28,-1
 1378 670 l 1,29,-1
 924 670 l 1,30,31
 942 598 942 598 968.5 541.5 c 128,-1,32
 995 485 995 485 1022 443 c 128,-1,33
 1049 401 1049 401 1075.5 370.5 c 128,-1,34
 1102 340 1102 340 1116 315 c 1,35,-1
 1077 113 l 1,36,-1
 1049 113 l 1,37,38
 955 222 955 222 891 410 c 128,-1,39
 827 598 827 598 791 844 c 0,40,41
 777 936 777 936 748 1005.5 c 128,-1,42
 719 1075 719 1075 682 1122 c 128,-1,43
 645 1169 645 1169 603 1196 c 128,-1,44
 561 1223 561 1223 516 1223 c 0,45,46
 311 1223 311 1223 254 899 c 1,47,-1
 555 899 l 2,48,49
 659 899 659 899 659 795 c 0,50,51
 659 793 659 793 659 791 c 2,52,-1
 659 553 l 2,53,54
 659 483 659 483 648 414.5 c 128,-1,55
 637 346 637 346 608.5 292 c 128,-1,56
 580 238 580 238 532.5 204 c 128,-1,57
 485 170 485 170 416 170 c 0,58,59
 377 170 377 170 344 182 c 1,60,-1
 334 150 l 0,61,62
 332 134 332 134 332 119 c 0,63,64
 332 92 332 92 340 73.5 c 128,-1,65
 348 55 348 55 358.5 39 c 128,-1,66
 369 23 369 23 377 4.5 c 128,-1,67
 385 -14 385 -14 385 -47 c 0,68,69
 385 -67 385 -67 380 -78.5 c 128,-1,70
 375 -90 375 -90 363.5 -99.5 c 128,-1,71
 352 -109 352 -109 341 -112 c 128,-1,72
 330 -115 330 -115 319 -115 c 0,73,74
 262 -115 262 -115 228.5 -71 c 128,-1,75
 195 -27 195 -27 195 43 c 0,76,77
 195 61 195 61 201 85 c 128,-1,78
 207 109 207 109 216 133.5 c 128,-1,79
 225 158 225 158 240 180 c 0,80,81
 249 199 249 199 272 240 c 1,11,12
EndSplineSet
Validated: 1
EndChar

StartChar: uniE0A6
Encoding: 57510 57510 114
Width: 1191
Flags: W
LayerCount: 2
Fore
SplineSet
496 899 m 2,0,1
 602 899 602 899 602 791 c 2,2,-1
 602 553 l 2,3,4
 602 483 602 483 591 414.5 c 128,-1,5
 580 346 580 346 551 292 c 128,-1,6
 522 238 522 238 474 204 c 128,-1,7
 426 170 426 170 356 170 c 0,8,9
 317 170 317 170 287 182 c 1,10,11
 277 149 277 149 274 150 c 0,12,13
 272 134 272 134 272 119 c 0,14,15
 272 92 272 92 281.5 73.5 c 128,-1,16
 291 55 291 55 301 39 c 128,-1,17
 311 23 311 23 319.5 4.5 c 128,-1,18
 328 -14 328 -14 328 -47 c 0,19,20
 328 -67 328 -67 321.5 -78.5 c 128,-1,21
 315 -90 315 -90 305 -99.5 c 128,-1,22
 295 -109 295 -109 282.5 -112 c 128,-1,23
 270 -115 270 -115 262 -115 c 0,24,25
 205 -115 205 -115 170 -71 c 128,-1,26
 135 -27 135 -27 135 43 c 0,27,28
 135 61 135 61 142.5 85 c 128,-1,29
 150 109 150 109 159 133.5 c 128,-1,30
 168 158 168 158 180 180 c 0,31,32
 190 198 190 198 213 240 c 1,33,34
 203 250 203 250 197 262 c 0,35,36
 170 303 170 303 151.5 355.5 c 128,-1,37
 133 408 133 408 124 461 c 128,-1,38
 115 514 115 514 113 570.5 c 128,-1,39
 111 627 111 627 111 670 c 1,40,-1
 0 670 l 1,41,-1
 0 899 l 1,42,-1
 111 899 l 1,43,-1
 111 901 l 1,44,45
 127 1155 127 1155 214 1290 c 128,-1,46
 301 1425 301 1425 459 1425 c 0,47,48
 539 1425 539 1425 597 1376 c 128,-1,49
 655 1327 655 1327 698 1252.5 c 128,-1,50
 741 1178 741 1178 766 1084.5 c 128,-1,51
 791 991 791 991 801 899 c 1,52,-1
 1321 899 l 1,53,-1
 1321 670 l 1,54,-1
 866 670 l 1,55,56
 884 598 884 598 911 541.5 c 128,-1,57
 938 485 938 485 964.5 443 c 128,-1,58
 991 401 991 401 1016.5 370.5 c 128,-1,59
 1042 340 1042 340 1059 315 c 1,60,-1
 1020 113 l 1,61,-1
 991 113 l 1,62,63
 897 222 897 222 834 410 c 0,64,65
 777 582 777 582 731 844 c 0,66,67
 717 936 717 936 689.5 1005.5 c 128,-1,68
 662 1075 662 1075 625 1122 c 128,-1,69
 588 1169 588 1169 546 1196 c 128,-1,70
 504 1223 504 1223 459 1223 c 0,71,72
 254 1223 254 1223 195 899 c 1,73,-1
 496 899 l 2,0,1
190 670 m 1,74,75
 190 602 190 602 192.5 543.5 c 128,-1,76
 195 485 195 485 210 442 c 128,-1,77
 225 399 225 399 260 374.5 c 128,-1,78
 295 350 295 350 356 350 c 0,79,80
 417 350 417 350 451 373.5 c 128,-1,81
 485 397 485 397 500.5 440 c 128,-1,82
 516 483 516 483 519 540.5 c 128,-1,83
 522 598 522 598 522 670 c 1,84,-1
 190 670 l 1,74,75
EndSplineSet
Validated: 1
EndChar

StartChar: uniE0A7
Encoding: 57511 57511 115
Width: 1710
Flags: W
LayerCount: 2
Fore
SplineSet
496 899 m 2,0,1
 602 899 602 899 602 791 c 2,2,-1
 602 553 l 2,3,4
 602 483 602 483 591 414.5 c 128,-1,5
 580 346 580 346 551 292 c 128,-1,6
 522 238 522 238 474 204 c 128,-1,7
 426 170 426 170 356 170 c 0,8,9
 317 170 317 170 287 182 c 1,10,11
 277 149 277 149 274 150 c 0,12,13
 272 134 272 134 272 119 c 0,14,15
 272 92 272 92 281.5 73.5 c 128,-1,16
 291 55 291 55 301 39 c 128,-1,17
 311 23 311 23 319.5 4.5 c 128,-1,18
 328 -14 328 -14 328 -47 c 0,19,20
 328 -67 328 -67 321.5 -78.5 c 128,-1,21
 315 -90 315 -90 305 -99.5 c 128,-1,22
 295 -109 295 -109 282.5 -112 c 128,-1,23
 270 -115 270 -115 262 -115 c 0,24,25
 205 -115 205 -115 170 -71 c 128,-1,26
 135 -27 135 -27 135 43 c 0,27,28
 135 61 135 61 142.5 85 c 128,-1,29
 150 109 150 109 159 133.5 c 128,-1,30
 168 158 168 158 180 180 c 0,31,32
 190 198 190 198 213 240 c 1,33,34
 203 250 203 250 197 262 c 0,35,36
 170 303 170 303 151.5 355.5 c 128,-1,37
 133 408 133 408 124 461 c 128,-1,38
 115 514 115 514 113 570.5 c 128,-1,39
 111 627 111 627 111 670 c 1,40,-1
 0 670 l 1,41,-1
 0 899 l 1,42,-1
 111 899 l 1,43,-1
 111 901 l 1,44,45
 127 1155 127 1155 214 1290 c 128,-1,46
 301 1425 301 1425 459 1425 c 0,47,48
 539 1425 539 1425 597 1376 c 128,-1,49
 655 1327 655 1327 698 1252.5 c 128,-1,50
 741 1178 741 1178 766 1084.5 c 128,-1,51
 791 991 791 991 801 899 c 1,52,-1
 1350 899 l 1,53,54
 1442 893 1442 893 1495 822.5 c 128,-1,55
 1548 752 1548 752 1548 633 c 2,56,-1
 1548 512 l 2,57,58
 1548 440 1548 440 1523.5 396 c 128,-1,59
 1499 352 1499 352 1462 352 c 1,60,-1
 1462 375 l 2,61,62
 1462 510 1462 510 1411 588 c 128,-1,63
 1360 666 1360 666 1262 670 c 1,64,-1
 866 670 l 1,65,66
 884 598 884 598 911 541.5 c 128,-1,67
 938 485 938 485 964.5 443 c 128,-1,68
 991 401 991 401 1016.5 370.5 c 128,-1,69
 1042 340 1042 340 1059 315 c 1,70,-1
 1020 113 l 1,71,-1
 991 113 l 1,72,73
 897 222 897 222 834 410 c 0,74,75
 777 582 777 582 731 844 c 0,76,77
 717 936 717 936 689.5 1005.5 c 128,-1,78
 662 1075 662 1075 625 1122 c 128,-1,79
 588 1169 588 1169 546 1196 c 128,-1,80
 504 1223 504 1223 459 1223 c 0,81,82
 254 1223 254 1223 195 899 c 1,83,-1
 496 899 l 2,0,1
190 670 m 1,84,85
 190 602 190 602 192.5 543.5 c 128,-1,86
 195 485 195 485 210 442 c 128,-1,87
 225 399 225 399 260 374.5 c 128,-1,88
 295 350 295 350 356 350 c 0,89,90
 417 350 417 350 451 373.5 c 128,-1,91
 485 397 485 397 500.5 440 c 128,-1,92
 516 483 516 483 519 540.5 c 128,-1,93
 522 598 522 598 522 670 c 1,94,-1
 190 670 l 1,84,85
EndSplineSet
Validated: 1
EndChar

